<svg width="900" height="180" viewBox="0 0 900 180" fill="none" xmlns="http://www.w3.org/2000/svg">
<path d="M733.375 54.875C736.421 57.3407 738.607 59.9034 741 63C741.33 59.04 741.66 55.08 742 51C745.63 51 749.26 51 753 51C753.047 59.5898 753.082 68.1795 753.104 76.7693C753.114 80.7597 753.128 84.75 753.151 88.7403C753.173 92.6047 753.185 96.4691 753.19 100.334C753.193 101.794 753.2 103.255 753.211 104.715C753.432 135.438 753.432 135.438 743.25 146.984C734.533 155.483 723.074 158.293 711.281 158.317C701.349 158.135 692.559 154.461 685 148C679.981 142.561 675 136.639 675 129C678.774 128.517 682.243 128.323 686 129C688.042 130.761 689.201 132.546 690.617 134.832C693.886 139.957 698.87 143.66 704.641 145.527C715.173 147.637 723.688 145.647 732.812 140.375C737.605 135.172 740.312 129.495 740.312 122.375C740.234 120.915 740.139 119.455 740 118C739.538 118.459 739.077 118.918 738.602 119.391C730.061 127.424 720.72 130.351 709.156 130.211C698.271 129.483 688.059 124.028 680.602 116.129C672.638 105.544 670.948 94.8256 672 82C673.985 70.3822 679.516 62.1112 688.875 55.0625C702.894 46.043 719.082 46.9344 733.375 54.875ZM689 71C683.628 78.8109 682.006 87.3004 683.562 96.625C686.118 106.149 692.882 112.866 701.062 117.875C708.085 120.522 717.13 120.177 724 117.313C732.156 112.978 736.901 107.197 740.312 98.75C741.951 89.812 741.943 81.8384 737 74C732.105 66.9996 725.568 61.629 717 60C705.507 58.896 696.677 62.2692 689 71Z" fill="white"/>
<path d="M460.602 33.918C466.461 38.8273 471.553 44.6601 474 52C461.36 53.0776 461.36 53.0776 458.344 50.6875C457.633 49.482 456.959 48.2546 456.316 47.0117C451.32 39.3758 440.454 36.2499 432 34.3125C419.311 32.9907 407.558 35.5815 397 43C389.897 49.2047 383.582 58.5444 382 68C381.185 80.7282 381.822 91.8115 390.25 102.094C398.735 111.336 408.063 117.443 420.82 118.238C434.735 118.596 445.804 115.729 456.195 105.93C461.151 100.681 462.844 97.1008 466 90C447.19 90 428.38 90 409 90C409 86.7 409 83.4 409 80C432.43 80 455.86 80 480 80C478.444 97.1153 472.613 107.758 459.73 118.926C447.048 128.56 432.539 131.123 417 130C401.113 127.72 387.853 119.394 378.047 106.934C369.853 95.1901 367.622 82.0587 369 68C372.045 52.3411 380.049 39.9198 393.008 30.8594C414.284 17.6382 440.554 19.1383 460.602 33.918Z" fill="white"/>
<path d="M250.191 30.9141C261.911 39.6184 270.146 50.8863 273.5 65.25C273.715 66.8275 273.881 68.4124 274 70C274.12 71.3594 274.12 71.3594 274.242 72.7461C274.924 87.8367 269.139 100.132 260.75 112.25C249.206 123.794 235.423 130.087 219.188 130.313C203.832 130.225 190.385 125.051 179.25 114.344C168.791 103.449 163.258 91.1119 162.934 75.8829C163.489 62.1172 168.045 50.4418 177 40C177.544 39.3452 178.088 38.6904 178.648 38.0157C196.538 18.2933 228.54 16.989 250.191 30.9141ZM185.188 47.8125C176.428 58.4725 173.882 70.4392 175 84C177.589 95.6779 184.469 104.97 194 112C204.882 118.647 216.144 120.652 228.773 118.535C240.459 115.42 250.688 108.025 256.812 97.5625C257.568 96.0545 258.298 94.5337 259 93C259.48 92.0236 259.48 92.0236 259.969 91.0274C263.679 82.1118 263.419 70.126 260.438 61C255.154 48.7653 245.161 40.0132 233 35C215.92 28.4542 197.262 34.9595 185.188 47.8125Z" fill="white"/>
<path d="M832.129 48.8087C843.7 48.2329 854.39 52.3453 863 60.0001C872.465 69.6292 875 80.8603 875 94.0001C852.23 94.0001 829.46 94.0001 806 94.0001C809.292 104.972 812.019 110.084 821.688 115.5C829.423 119.049 836.687 119.181 844.813 116.813C850.999 114.396 855.264 111.749 858.188 105.688C859.336 103.606 859.336 103.606 861 102C865.077 101.299 868.904 101.53 873 102C870.658 111.133 864.704 118.706 857 124C845.383 130.219 833.494 132.308 820.625 128.438C810.482 124.544 802.553 117.15 797.715 107.414C792.884 95.8822 792.782 84.7797 797 73.0001C802.22 62.1258 810.385 54.6874 821.766 50.6759C825.255 49.6205 828.51 49.134 832.129 48.8087ZM811 71.0001C807.39 76.6323 807.39 76.6323 806 83.0001C824.81 83.0001 843.62 83.0001 863 83.0001C861.356 74.7804 856.974 68.9313 850.063 64.2188C836.969 56.4819 820.865 59.1483 811 71.0001Z" fill="white"/>
<path d="M301 24C316.84 24 332.68 24 349 24C349 27.3 349 30.6 349 34C336.13 34 323.26 34 310 34C309.67 37.63 309.34 41.26 309 45C308.682 46.9853 308.338 48.9671 307.938 50.9375C307.292 54.1391 307 56.6897 307 60C308.217 59.505 309.434 59.01 310.688 58.5C319.533 55.5979 328.77 55.9928 337.363 59.543C346.194 64.4228 352.278 71.7399 356.25 80.875C358.98 92.2516 358.253 103.297 352.535 113.684C347.257 121.648 340.187 126.679 331.113 129.609C321.857 131.32 312.264 130.628 304 126C293.737 118.516 288.462 110.388 286 98C286 97.01 286 96.02 286 95C289.96 95 293.92 95 298 95C298.412 96.5263 298.825 98.0525 299.25 99.625C301.458 106.908 304.778 111.52 311 116C316.901 118.816 323.442 119.125 329.656 117.16C336.729 113.997 340.84 109.559 344.133 102.609C346.227 96.3065 345.87 89.2331 343.312 83.125C339.945 76.6598 336.291 72.4028 329.461 69.6914C323.17 67.9239 316.957 68.4017 310.926 70.8555C308.599 72.2383 306.959 73.949 305.062 75.875C303.098 77.7461 303.098 77.7461 301 79C297.597 78.708 295.025 77.5022 292 76C292.573 69.4653 293.414 63.0493 294.594 56.5977C294.745 55.7533 294.897 54.9089 295.053 54.0389C295.371 52.2749 295.69 50.5112 296.011 48.7478C296.503 46.0456 296.988 43.3422 297.473 40.6387C297.783 38.9166 298.095 37.1946 298.406 35.4727C298.551 34.6664 298.696 33.8602 298.845 33.0296C299.411 29.9368 300.004 26.9871 301 24Z" fill="white"/>
<path d="M81.25 27.8125C88.9293 33.9211 95.1934 41.0001 97 51C98.1081 66.2775 93.7469 76.1144 86 89C85.5587 89.736 85.1174 90.472 84.6627 91.2303C81.5558 96.3886 78.3754 101.494 75.1326 106.568C73.9963 108.366 72.8789 110.176 71.78 111.997C62.7878 126.861 62.7878 126.861 58.0447 128.799C53.8897 129.559 50.0529 129.031 46 128C50.9188 120.231 55.9066 112.509 60.9375 104.812C61.6213 103.765 62.3052 102.718 63.0098 101.639C64.6726 99.092 66.336 96.5458 68 94C67.01 94.495 67.01 94.495 66 95C55.4657 95.8637 46.7213 94.9382 38.25 88.3125C30.2095 80.765 26.062 71.8514 25.5466 60.9138C25.3105 49.6412 27.9983 40.0832 35.9844 31.75C49.6709 19.8671 65.6154 19.0932 81.25 27.8125ZM42 42C37.13 48.8991 35.6658 55.6637 37 64C39.3923 71.9209 44.3485 77.2574 51 82C56.3378 84.6689 62.3608 84.8485 68.1445 83.5C75.6938 80.9595 80.4306 76.5459 84.0156 69.5156C86.9968 61.8971 86.4841 55.0527 83.3555 47.5781C79.8508 40.9122 75.417 36.3305 68.3242 33.6211C58.3082 30.9445 48.7524 34.2478 42 42Z" fill="white"/>
<path d="M647 58.0001C655.128 65.5679 660.275 74.3492 661.336 85.5431C661.49 99.9318 658.102 109.667 648.086 119.969C638.974 128.536 629.094 130.518 616.859 130.277C606.02 129.499 596.491 124.034 589.188 116.125C581.784 107.094 578.885 96.6159 580 85.0001C582.181 72.9554 587.499 63.7669 597 56.0001C613.028 45.8028 631.788 46.5659 647 58.0001ZM597.914 70.5782C592.356 77.6109 590.479 85.4316 591.184 94.3165C592.592 102.663 597.569 109.622 604.176 114.781C611.495 119.671 619.368 120.001 628 119C636.479 116.589 642.78 110.612 647.125 103.039C650.678 95.2159 651.049 87.5269 648.375 79.4376C644.699 70.1954 638.861 65.3574 630 61.0001C617.641 56.986 606.396 61.4072 597.914 70.5782Z" fill="white"/>
<path d="M554.836 56.2773C563.92 63.5082 570.409 72.2336 572 84C573.236 96.0967 569.833 106.955 562.332 116.488C554.755 124.649 546.53 129.343 535.461 130.309C523.768 130.702 514.059 128.601 505.031 120.914C496.83 113.185 491.527 105.3 490.797 93.8008C490.624 80.9503 493.236 70.5284 502.004 60.7695C516.54 46.9096 538.317 44.3989 554.836 56.2773ZM509 70C503.402 78.1584 500.87 86.5182 502.359 96.3789C504.249 104.54 509.325 110.546 516.004 115.48C523.185 119.777 530.836 119.759 539 119C547.345 116.59 552.927 111.19 557.281 103.836C560.986 96.3464 562.012 88.338 559.848 80.2265C556.638 71.7959 550.913 66.2054 543.098 61.9687C531.286 56.7513 517.372 60.3463 509 70Z" fill="white"/>
<path d="M106 24C125.47 24 144.94 24 165 24C165 27.3 165 30.6 165 34C157.08 34 149.16 34 141 34C141 65.02 141 96.04 141 128C137.37 128 133.74 128 130 128C130 96.98 130 65.96 130 34C122.08 34 114.16 34 106 34C106 30.7 106 27.4 106 24Z" fill="white"/>
<path d="M769 24C772.96 24 776.92 24 781 24C781 58.32 781 92.64 781 128C777.04 128 773.08 128 769 128C769 93.68 769 59.36 769 24Z" fill="white"/>
<path d="M222 37.9999C223.657 41.314 223.142 45.0137 223.133 48.6562C223.134 49.5142 223.135 50.3723 223.136 51.2564C223.136 53.0721 223.135 54.8878 223.13 56.7035C223.125 59.4886 223.13 62.2735 223.137 65.0585C223.136 66.8202 223.135 68.5819 223.133 70.3437C223.135 71.1801 223.137 72.0166 223.139 72.8785C223.115 78.77 223.115 78.77 222 80.9999C216.844 82.7186 211.397 82.1845 206 82.1874C204.799 82.1997 203.597 82.2119 202.359 82.2245C201.21 82.2265 200.06 82.2284 198.875 82.2304C197.293 82.2365 197.293 82.2365 195.68 82.2428C193 81.9999 193 81.9999 190 79.9999C189.688 77.4999 189.688 77.4999 190 74.9999C192 72.9999 192 72.9999 194.247 72.7729C195.158 72.7833 196.069 72.7938 197.008 72.8046C197.994 72.811 198.98 72.8175 199.996 72.8241C201.029 72.8409 202.061 72.8576 203.125 72.8749C204.165 72.8839 205.206 72.893 206.277 72.9023C208.852 72.9259 211.426 72.9588 214 72.9999C213.992 71.5161 213.992 71.5161 213.984 70.0024C213.966 66.3385 213.955 62.6746 213.945 59.0107C213.94 57.4237 213.933 55.8368 213.925 54.2499C213.912 51.9713 213.907 49.6927 213.902 47.414C213.897 46.7025 213.892 45.991 213.887 45.2579C213.886 40.2277 213.886 40.2277 215 37.9999C218.116 36.9613 219.026 36.9095 222 37.9999Z" fill="white"/>
</svg>
