<svg width="554" height="70" viewBox="0 0 554 70" fill="none" xmlns="http://www.w3.org/2000/svg">
<g clip-path="url(#clip0_2425_10141)">
<path d="M14.4075 -0.501201C15.4787 -0.506736 16.5499 -0.51227 17.6535 -0.517972C21.255 -0.531622 24.8559 -0.516586 28.4574 -0.501705C31.0344 -0.505487 33.6113 -0.510985 36.1883 -0.518078C42.4681 -0.532021 48.7476 -0.524447 55.0274 -0.509402C62.3371 -0.492556 69.6467 -0.495751 76.9564 -0.499496C89.9962 -0.505377 103.036 -0.491196 116.076 -0.466549C128.735 -0.442623 141.395 -0.435546 154.055 -0.446041C167.835 -0.457444 181.614 -0.459389 195.394 -0.444943C196.862 -0.443417 198.331 -0.441897 199.8 -0.440382C200.522 -0.439624 201.245 -0.438866 201.989 -0.438085C207.087 -0.433338 212.186 -0.435197 217.284 -0.439447C224.142 -0.444881 230.999 -0.434159 237.857 -0.412493C240.379 -0.40691 242.902 -0.406472 245.424 -0.411445C248.856 -0.417365 252.288 -0.404956 255.72 -0.387676C257.232 -0.396691 257.232 -0.396691 258.774 -0.405888C259.69 -0.397448 260.606 -0.389008 261.55 -0.380313C262.739 -0.378769 262.739 -0.378769 263.952 -0.377194C266.527 0.0969776 267.383 0.98393 269 3C270.339 5.67827 270.149 7.76416 270.177 10.7632C270.19 11.9714 270.203 13.1796 270.216 14.4244C270.227 16.3916 270.227 16.3916 270.238 18.3984C270.242 19.0646 270.247 19.7308 270.251 20.4171C270.272 23.9425 270.286 27.4678 270.295 30.9932C270.306 34.634 270.341 38.2742 270.38 41.9149C270.407 44.715 270.415 47.515 270.419 50.3153C270.426 52.3095 270.452 54.3036 270.479 56.2977C270.475 58.1195 270.475 58.1195 270.47 59.978C270.479 61.5811 270.479 61.5811 270.488 63.2166C269.837 66.9281 269.088 67.8102 266 70C262.539 70.6098 259.106 70.5391 255.599 70.5079C254.529 70.5142 253.459 70.5204 252.356 70.5268C248.756 70.5428 245.158 70.5301 241.559 70.5176C238.983 70.523 236.408 70.5301 233.833 70.5388C227.557 70.5566 221.281 70.5528 215.005 70.5412C209.905 70.5321 204.805 70.5309 199.705 70.5353C198.617 70.5362 198.617 70.5362 197.506 70.5371C196.033 70.5384 194.559 70.5397 193.085 70.541C179.262 70.5524 165.439 70.5393 151.615 70.5178C139.75 70.4999 127.886 70.503 116.021 70.5215C102.247 70.5429 88.4739 70.5513 74.7004 70.539C73.2321 70.5378 71.7639 70.5365 70.2956 70.5353C69.5731 70.5347 68.8507 70.534 68.1063 70.5334C63.0116 70.5299 57.9169 70.5358 52.8221 70.5452C45.9668 70.5576 39.1118 70.5488 32.2566 70.5256C29.7362 70.5203 27.2158 70.5219 24.6955 70.5307C21.2636 70.5415 17.8326 70.5279 14.4008 70.5079C13.3957 70.5169 12.3907 70.5258 11.3552 70.535C4.64722 70.4588 4.64722 70.4588 1.38183 68.1438C-0.466616 65.2759 -0.507432 63.3214 -0.517456 59.918C-0.536369 58.0759 -0.536369 58.0759 -0.555664 56.1965C-0.548504 54.8602 -0.5403 53.5238 -0.531128 52.1875C-0.533824 50.8127 -0.537707 49.438 -0.542725 48.0632C-0.548616 45.1849 -0.54007 42.307 -0.521362 39.4287C-0.498572 35.743 -0.511697 32.0584 -0.535652 28.3727C-0.550121 25.5347 -0.545499 22.697 -0.535141 19.859C-0.532477 18.5003 -0.535733 17.1415 -0.545059 15.7828C-0.55524 13.8826 -0.536965 11.9822 -0.517456 10.082C-0.514274 9.00156 -0.511091 7.92108 -0.507812 6.80787C0.970494 -1.36421 7.62638 -0.565963 14.4075 -0.501201ZM174 10C169.874 14.8936 169.405 18.568 169.469 24.6875C169.465 25.5082 169.461 26.329 169.457 27.1746C169.455 28.9025 169.462 30.6305 169.479 32.3584C169.5 34.9925 169.479 37.6238 169.453 40.2578C169.456 41.9427 169.461 43.6276 169.469 45.3125C169.461 46.0939 169.453 46.8753 169.444 47.6804C169.533 52.8891 170.569 55.8642 174 60C177.603 62.5382 179.57 63 184 63C188.557 62.1881 190.855 60.3701 194 57C196.702 50.5912 196.336 44.0817 196.316 37.26C196.313 35.0719 196.336 32.8852 196.361 30.6973C196.364 29.2891 196.364 27.8809 196.363 26.4727C196.366 25.2069 196.369 23.9411 196.372 22.637C195.839 17.4215 194.424 13.5035 190.75 9.625C184.711 6.05615 179.97 6.5084 174 10ZM29.0001 8C27.4722 13.8262 26.2829 19.6378 25.2736 25.5742C25.0447 26.9045 25.0447 26.9045 24.8113 28.2617C24.4922 30.1228 24.1746 31.9843 23.8585 33.846C23.3746 36.6906 22.883 39.5338 22.3907 42.377C22.0804 44.1926 21.7705 46.0084 21.4611 47.8242C21.3142 48.6701 21.1674 49.5161 21.0161 50.3876C20.3575 54.302 19.8112 58.0132 20.0001 62C22.6401 62 25.2801 62 28.0001 62C28.3374 60.5634 28.6698 59.1257 29.0001 57.6875C29.1857 56.887 29.3714 56.0865 29.5626 55.2617C30.0951 52.893 30.0951 52.893 30.0001 50C32.9701 50 35.9401 50 39.0001 50C39.0607 50.7825 39.1213 51.5649 39.1837 52.3711C39.3094 53.889 39.3094 53.889 39.4376 55.4375C39.5188 56.4468 39.6 57.4562 39.6837 58.4961C39.7322 60.9364 39.7322 60.9364 41.0001 62C43.6707 62.1412 46.3244 62.0425 49.0001 62C47.7615 51.2743 46.1932 40.6407 44.3407 30.0042C43.9302 27.6448 43.5263 25.2844 43.1232 22.9238C42.8625 21.4114 42.6014 19.899 42.34 18.3867C42.1603 17.3369 42.1603 17.3369 41.9769 16.2658C41.4779 13.4151 40.9172 10.7511 40.0001 8C36.3701 8 32.7401 8 29.0001 8ZM59.0001 8C59.0001 25.82 59.0001 43.64 59.0001 62C61.6401 62 64.2801 62 67.0001 62C67.3301 51.77 67.6601 41.54 68.0001 31C68.7104 33.154 69.4207 35.3081 70.1525 37.5273C70.8401 39.606 71.5288 41.6842 72.2177 43.7625C72.6969 45.2103 73.1751 46.6586 73.6522 48.1072C74.337 50.1857 75.0256 52.2629 75.715 54.3398C76.1287 55.5914 76.5424 56.843 76.9686 58.1326C77.7208 60.8627 77.7208 60.8627 79.0001 62C81.6401 62 84.2801 62 87.0001 62C87.0001 44.18 87.0001 26.36 87.0001 8C84.3601 8 81.7201 8 79.0001 8C78.6701 18.23 78.3401 28.46 78.0001 39C77.362 36.846 76.724 34.692 76.0665 32.4727C75.4484 30.3941 74.8292 28.3158 74.2098 26.2376C73.779 24.7897 73.3493 23.3414 72.9208 21.8928C72.3057 19.8144 71.6865 17.7372 71.0665 15.6602C70.6947 14.4086 70.3229 13.157 69.9398 11.8674C69.2823 9.13164 69.2823 9.13164 68.0001 8C65.0301 8 62.0601 8 59.0001 8ZM98.0001 8C98.0001 25.82 98.0001 43.64 98.0001 62C112.387 63.0988 112.387 63.0988 121.846 56.2808C123.606 52.8037 123.468 49.3208 123.469 45.5078C123.48 44.2725 123.48 44.2725 123.492 43.0122C123.503 41.2723 123.506 39.5324 123.501 37.7925C123.5 35.1405 123.542 32.4914 123.586 29.8398C123.591 28.1458 123.594 26.4518 123.594 24.7578C123.61 23.9701 123.627 23.1824 123.644 22.3709C123.594 18.369 123.233 15.7714 120.713 12.5776C113.365 5.59568 110.015 8 98.0001 8ZM134 8C134 25.82 134 43.64 134 62C136.64 62 139.28 62 142 62C142 55.4 142 48.8 142 42C143.65 42.33 145.3 42.66 147 43C148.65 49.27 150.3 55.54 152 62C154.97 62 157.94 62 161 62C160.843 61.3848 160.687 60.7696 160.525 60.1357C159.82 57.3428 159.129 54.5466 158.438 51.75C158.191 50.7819 157.944 49.8138 157.69 48.8164C157.346 47.4146 157.346 47.4146 156.996 45.9844C156.782 45.1255 156.567 44.2667 156.346 43.3818C155.879 40.1635 156.374 38.0404 158.039 35.2734C159.504 31.8078 159.369 28.3264 159.375 24.625C159.4 23.8825 159.424 23.14 159.449 22.375C159.477 17.1402 158.529 14.0988 155 10C149.211 6.7329 149.211 6.7329 134 8ZM206 8C206 25.82 206 43.64 206 62C208.64 62 211.28 62 214 62C214 44.18 214 26.36 214 8C211.36 8 208.72 8 206 8ZM224 8C224 25.82 224 43.64 224 62C239.844 63.5717 239.844 63.5717 247 58C250.368 53.9165 250.454 49.9467 250.434 44.8477C250.439 44.0699 250.444 43.2922 250.45 42.4908C250.456 40.8511 250.455 39.2113 250.446 37.5715C250.438 35.0735 250.466 32.5778 250.498 30.0801C250.5 28.4818 250.499 26.8835 250.496 25.2852C250.507 24.5444 250.519 23.8036 250.53 23.0403C250.461 17.8758 249.347 14.9167 246 11C239.542 6.54227 239.542 6.54227 224 8Z" fill="white"/>
<path d="M447 8C450.063 7.91884 453.124 7.85943 456.188 7.8125C457.484 7.7748 457.484 7.7748 458.807 7.73633C463.712 7.67994 467.021 7.78055 471 11C473.813 14.6111 473.331 19.0597 473.313 23.4375C473.329 24.1884 473.345 24.9393 473.361 25.7129C473.366 31.413 473.366 31.413 471.418 34.5352C468.548 39.5242 471.165 46.0381 472.559 51.3418C472.944 52.7664 473.329 54.1909 473.715 55.6152C474.184 57.4001 474.597 59.1992 475 61C474 62 474 62 472.152 62.0977C470.102 62.0651 468.051 62.0326 466 62C465.162 59.0638 464.33 56.1262 463.5 53.1875C463.262 52.3541 463.023 51.5207 462.777 50.6621C462.552 49.8597 462.326 49.0572 462.094 48.2305C461.884 47.4921 461.675 46.7537 461.459 45.9929C461 44 461 44 461 41C459.35 41 457.7 41 456 41C456.005 41.6006 456.011 42.2012 456.016 42.8201C456.037 45.5259 456.05 48.2317 456.063 50.9375C456.071 51.883 456.079 52.8286 456.088 53.8027C456.091 54.7019 456.094 55.601 456.098 56.5273C456.103 57.36 456.108 58.1927 456.114 59.0505C456 61 456 61 455 62C451.5 62.125 451.5 62.125 448 62C447 61 447 61 446.88 58.8677C446.882 57.9283 446.884 56.989 446.887 56.0212C446.887 54.9602 446.887 53.8992 446.887 52.806C446.892 51.6519 446.897 50.4977 446.902 49.3086C446.904 48.1336 446.905 46.9586 446.907 45.7481C446.912 41.9779 446.925 38.2077 446.938 34.4375C446.943 31.8887 446.947 29.3398 446.951 26.791C446.962 20.5273 446.979 14.2637 447 8ZM456 16C456 21.61 456 27.22 456 33C458.31 33 460.62 33 463 33C465.309 31.1183 465.309 31.1183 465.266 28.0313C465.261 26.8659 465.255 25.7006 465.25 24.5C465.258 22.752 465.258 22.752 465.266 20.9688C465.309 17.8817 465.309 17.8817 463 16C460.69 16 458.38 16 456 16Z" fill="white"/>
<path d="M433 7.00002C437.051 9.06243 439.471 10.7147 441 15C441.205 17.9478 441.304 20.7984 441.301 23.7461C441.305 24.5942 441.309 25.4424 441.314 26.3162C441.32 28.1074 441.32 29.8986 441.316 31.6897C441.313 34.4244 441.336 37.158 441.361 39.8926C441.364 41.6354 441.364 43.3783 441.363 45.1211C441.372 45.9358 441.382 46.7506 441.391 47.59C441.354 52.2314 440.966 55.2087 438 59C434.308 62.1494 430.912 62.5313 426.215 62.3438C422.615 61.7851 420.647 60.4581 418 58C415.375 52.9181 414.617 49.1441 414.602 43.3438C414.599 42.6378 414.596 41.9318 414.593 41.2045C414.591 39.7221 414.596 38.2397 414.609 36.7573C414.625 34.5056 414.609 32.2556 414.59 30.0039C414.592 28.5547 414.596 27.1055 414.602 25.6563C414.605 24.355 414.608 23.0537 414.612 21.7129C415.18 16.2797 416.525 12.37 420.625 8.56252C424.937 6.56626 428.327 6.16402 433 7.00002ZM426 15C423.487 17.513 423.744 19.0809 423.696 22.5116C423.697 23.2606 423.698 24.0096 423.699 24.7813C423.695 25.5506 423.691 26.3198 423.686 27.1124C423.68 28.7398 423.68 30.3673 423.684 31.9946C423.687 34.4904 423.664 36.9849 423.639 39.4805C423.636 41.0599 423.636 42.6393 423.637 44.2188C423.628 44.9678 423.618 45.7167 423.609 46.4884C423.595 48.8147 423.595 48.8147 424 52C426.692 54.2644 426.692 54.2644 429.062 53.75C431.195 53.0747 431.195 53.0747 433 51C433.212 48.5261 433.304 46.1669 433.301 43.6914C433.305 42.9689 433.309 42.2464 433.314 41.502C433.32 39.9729 433.32 38.4439 433.316 36.9148C433.313 34.5749 433.336 32.2363 433.361 29.8965C433.364 28.4115 433.364 26.9265 433.363 25.4414C433.372 24.7414 433.382 24.0413 433.391 23.32C433.364 20.4718 433.298 18.4599 431.727 16.0349C429.764 14.6574 429.764 14.6574 426 15Z" fill="white"/>
<path d="M383 8C385.64 8 388.28 8 391 8C391.33 15.26 391.66 22.52 392 30C394.97 30.33 397.94 30.66 401 31C401 23.41 401 15.82 401 8C403.64 8 406.28 8 409 8C409 25.49 409 42.98 409 61C406.36 61 403.72 61 401 61C401 53.74 401 46.48 401 39C397.7 39 394.4 39 391 39C391 46.59 391 54.18 391 62C388.36 62 385.72 62 383 62C383 44.18 383 26.36 383 8Z" fill="white"/>
<path d="M296 8C299.96 8 303.92 8 308 8C309.308 15.3675 310.608 22.7365 311.9 30.1069C312.341 32.6158 312.785 35.1243 313.23 37.6323C313.869 41.2304 314.5 44.8299 315.129 48.4297C315.331 49.5568 315.533 50.6839 315.741 51.8452C315.921 52.8861 316.102 53.927 316.287 54.9995C316.531 56.3785 316.531 56.3785 316.779 57.7854C317 60 317 60 316 62C313.36 62 310.72 62 308 62C307.34 57.71 306.68 53.42 306 49C303.36 49 300.72 49 298 49C297.34 53.29 296.68 57.58 296 62C293.03 62 290.06 62 287 62C287.796 56.8807 288.596 51.7619 289.399 46.6436C289.67 44.91 289.941 43.1762 290.21 41.4424C291.951 30.2551 293.838 19.1137 296 8ZM302 23C299.855 25.1447 300.26 29.5844 299.938 32.5625C299.847 33.3688 299.756 34.1751 299.662 35.0059C299.438 37.0035 299.218 39.0017 299 41C300.98 41 302.96 41 305 41C304.34 35.06 303.68 29.12 303 23C302.67 23 302.34 23 302 23Z" fill="white"/>
<path d="M321 8C323.64 8 326.28 8 329 8C329.02 9.29212 329.04 10.5842 329.06 11.9155C329.136 16.6978 329.225 21.4798 329.317 26.2617C329.356 28.3336 329.39 30.4055 329.422 32.4775C329.467 35.4514 329.525 38.4248 329.586 41.3984C329.597 42.3287 329.609 43.2589 329.621 44.2174C329.641 45.0781 329.661 45.9389 329.681 46.8257C329.694 47.5851 329.708 48.3446 329.721 49.127C329.846 51.2431 329.846 51.2431 332 53C334.575 52.8349 334.575 52.8349 337 52C338.13 49.7396 338.153 48.4288 338.205 45.9175C338.225 45.0768 338.245 44.236 338.266 43.3698C338.291 42.0073 338.291 42.0073 338.316 40.6172C338.337 39.6878 338.358 38.7584 338.379 37.8008C338.445 34.8256 338.504 31.8503 338.562 28.875C338.606 26.8607 338.649 24.8463 338.693 22.832C338.8 17.8881 338.902 12.9441 339 8C341.64 8 344.28 8 347 8C347.153 14.4226 347.257 20.8448 347.329 27.2688C347.36 29.4522 347.4 31.6356 347.453 33.8186C347.526 36.964 347.559 40.1078 347.586 43.2539C347.617 44.224 347.648 45.194 347.68 46.1935C347.683 52.2082 346.727 55.4072 342.487 59.7489C339.278 62.4489 336.367 62.3359 332.32 62.2773C328.678 61.842 326.687 60.4315 324 58C320.495 52.6545 320.604 47.9538 320.707 41.7891C320.713 40.3369 320.713 40.3369 320.72 38.8553C320.737 35.7783 320.774 32.7019 320.812 29.625C320.827 27.5326 320.841 25.4401 320.853 23.3477C320.886 18.2315 320.938 13.1159 321 8Z" fill="white"/>
<path d="M524 7C526.97 7 529.94 7 533 7C533.839 9.43572 534.671 11.8733 535.5 14.3125C535.738 15.0028 535.977 15.6931 536.223 16.4043C537.232 19.3893 538 21.8266 538 25C538.66 25 539.32 25 540 25C540.164 24.039 540.164 24.039 540.332 23.0586C541.325 17.6438 542.625 12.9668 545 8C549.455 7.505 549.455 7.505 554 7C552.689 12.2444 551.31 17.3278 549.277 22.3398C544.001 35.6192 542.854 47.758 543 62C540.36 62 537.72 62 535 62C535.022 61.4248 535.044 60.8497 535.067 60.2571C535.542 42.3312 531.354 27.9556 524.902 11.5083C524 9 524 9 524 7Z" fill="white"/>
<path d="M494 8C502.58 8 511.16 8 520 8C520 10.31 520 12.62 520 15C519.67 15.33 519.34 15.66 519 16C516.36 16 513.72 16 511 16C511 31.18 511 46.36 511 62C508.36 62 505.72 62 503 62C503 46.82 503 31.64 503 16C500.03 16 497.06 16 494 16C494 13.36 494 10.72 494 8Z" fill="white"/>
<path d="M352 8C360.58 8 369.16 8 378 8C378 10.64 378 13.28 378 16C375.03 16 372.06 16 369 16C369 31.18 369 46.36 369 62C366.36 62 363.72 62 361 62C361 46.82 361 31.64 361 16C358.36 16 355.72 16 353 16C352.67 15.67 352.34 15.34 352 15C352 12.69 352 10.38 352 8Z" fill="white"/>
<path d="M481 8C483.64 8 486.28 8 489 8C489.025 15.5297 489.043 23.0594 489.055 30.5891C489.06 33.1529 489.067 35.7167 489.075 38.2805C489.088 41.9566 489.093 45.6325 489.098 49.3086C489.103 50.4627 489.108 51.6169 489.113 52.806C489.113 53.867 489.113 54.9281 489.114 56.0212C489.116 56.9606 489.118 57.8999 489.12 58.8677C489 61 489 61 488 62C485.69 62 483.38 62 481 62C481 44.18 481 26.36 481 8Z" fill="white"/>
<path d="M183.625 15.25C184.409 15.4975 185.193 15.745 186 16C187.523 19.0453 187.163 22.2215 187.168 25.5625C187.171 26.3096 187.175 27.0567 187.178 27.8264C187.183 29.4068 187.186 30.9871 187.185 32.5674C187.188 34.9904 187.206 37.413 187.225 39.836C187.228 41.3698 187.23 42.9037 187.231 44.4375C187.238 45.1646 187.245 45.8917 187.252 46.6409C187.229 51.7712 187.229 51.7712 185 54C181.938 54.1875 181.938 54.1875 179 54C176.979 51.9787 177.812 47.8721 177.797 45.0977C177.791 44.3048 177.786 43.5119 177.78 42.695C177.77 41.0145 177.764 39.334 177.76 37.6536C177.75 35.0767 177.719 32.5006 177.688 29.9238C177.681 28.2943 177.676 26.6647 177.672 25.0352C177.66 24.2612 177.647 23.4872 177.635 22.6897C177.644 20.5159 177.644 20.5159 178 17C181 15 181 15 183.625 15.25Z" fill="white"/>
<path d="M106 16C112 16 112 16 115 18C115.292 20.6012 115.396 22.9609 115.363 25.5625C115.364 26.3096 115.364 27.0567 115.365 27.8264C115.362 29.4068 115.353 30.9871 115.336 32.5674C115.313 34.9906 115.316 37.4127 115.322 39.8359C115.317 41.3698 115.31 42.9037 115.301 44.4375C115.302 45.5282 115.302 45.5282 115.304 46.6409C115.231 51.769 115.231 51.769 113 54C110.69 54 108.38 54 106 54C106 41.46 106 28.92 106 16Z" fill="white"/>
<path d="M233 16C239 16 239 16 240.852 17.0349C242.61 20.0442 242.408 23.0551 242.363 26.4414C242.364 27.1649 242.364 27.8884 242.365 28.6338C242.362 30.1611 242.353 31.6884 242.336 33.2156C242.313 35.5575 242.316 37.8982 242.322 40.2402C242.317 41.724 242.31 43.2077 242.301 44.6914C242.302 45.7446 242.302 45.7446 242.304 46.819C242.231 51.769 242.231 51.769 240 54C237.69 54 235.38 54 233 54C233 41.46 233 28.92 233 16Z" fill="white"/>
<path d="M142 16C148 16 148 16 151 18C151.398 21.1875 151.398 21.1875 151.375 25C151.383 26.2581 151.39 27.5163 151.398 28.8125C151.267 29.8644 151.135 30.9162 151 32C148 34 148 34 142 34C142 28.06 142 22.12 142 16Z" fill="white"/>
<path d="M33.9999 22C34.3299 22 34.6599 22 34.9999 22C37.2961 35.6333 37.2961 35.6333 36.9999 42C35.3499 42 33.6999 42 31.9999 42C31.7359 35.1348 32.7415 28.7415 33.9999 22Z" fill="white"/>
</g>
<defs>
<clipPath id="clip0_2425_10141">
<rect width="554" height="70" fill="white"/>
</clipPath>
</defs>
</svg>
