<svg width="2000" height="590" viewBox="0 0 2000 590" fill="none" xmlns="http://www.w3.org/2000/svg">
<g clip-path="url(#clip0_2425_10234)">
<path d="M460.72 105.746C461.578 105.742 462.436 105.739 463.319 105.736C466.195 105.728 469.07 105.733 471.946 105.739C474.028 105.736 476.11 105.732 478.192 105.728C483.915 105.717 489.637 105.72 495.36 105.724C501.531 105.726 507.702 105.717 513.874 105.71C525.965 105.697 538.056 105.695 550.147 105.698C559.973 105.7 569.8 105.698 579.627 105.693C581.038 105.693 582.45 105.692 583.862 105.692C585.99 105.691 588.117 105.69 590.245 105.689C610.026 105.68 629.807 105.676 649.588 105.68C650.334 105.68 651.08 105.681 651.848 105.681C655.628 105.682 659.407 105.682 663.187 105.683C663.938 105.683 664.688 105.684 665.462 105.684C666.98 105.684 668.498 105.685 670.016 105.685C693.634 105.69 717.252 105.682 740.871 105.664C767.408 105.643 793.945 105.632 820.482 105.636C823.312 105.637 826.142 105.637 828.972 105.638C829.669 105.638 830.365 105.638 831.083 105.638C841.6 105.639 852.116 105.632 862.633 105.622C874.594 105.61 886.556 105.608 898.517 105.621C904.621 105.626 910.724 105.627 916.828 105.616C922.415 105.605 928.003 105.608 933.591 105.622C935.612 105.624 937.633 105.622 939.654 105.614C964.544 105.522 964.544 105.522 973.305 114.07C978.643 120.147 979.966 126.032 979.684 134.129C978.305 141.938 974.037 148.286 970 155C968.923 156.845 967.849 158.691 966.777 160.539C964.422 164.596 962.053 168.644 959.676 172.688C956.032 178.912 952.505 185.197 949 191.5C943.902 200.657 938.687 209.737 933.386 218.778C928.917 226.408 924.506 234.07 920.125 241.75C919.792 242.334 919.459 242.917 919.116 243.519C917.422 246.488 915.729 249.457 914.037 252.427C910.673 258.328 907.306 264.227 903.937 270.125C903.606 270.705 903.275 271.286 902.933 271.884C897.53 281.343 892.092 290.783 886.642 300.216C882.095 308.091 877.572 315.979 873.062 323.875C872.731 324.455 872.4 325.036 872.058 325.634C869.705 329.755 867.352 333.878 865 338C862.313 342.709 859.626 347.417 856.937 352.125C856.44 352.996 856.44 352.996 855.933 353.884C850.535 363.334 845.104 372.765 839.657 382.187C835.652 389.121 831.674 396.069 827.711 403.026C817.194 421.488 817.194 421.488 812.625 429.25C812.274 429.858 811.923 430.466 811.561 431.093C810.764 432.43 809.891 433.723 809 435C808.34 435 807.68 435 807 435C806.304 433.737 806.304 433.737 805.594 432.449C800.057 422.476 794.273 412.657 788.443 402.853C782.579 392.99 776.757 383.102 770.975 373.191C767.914 367.947 764.843 362.713 761.672 357.535C761.191 356.743 760.71 355.951 760.214 355.135C759.354 353.724 758.484 352.318 757.602 350.919C754.929 346.514 754.929 346.514 755.263 344.086C756.086 341.756 757.111 339.702 758.301 337.535C758.777 336.664 759.253 335.793 759.744 334.895C760.261 333.96 760.779 333.026 761.312 332.063C761.85 331.085 762.388 330.107 762.942 329.099C767.522 320.797 772.213 312.561 776.937 304.34C780.13 298.783 783.287 293.206 786.437 287.625C786.977 286.669 787.518 285.712 788.074 284.727C789.169 282.787 790.264 280.847 791.359 278.907C794.61 273.148 797.865 267.391 801.12 261.634C803.857 256.794 806.591 251.953 809.32 247.109C810.151 245.637 810.151 245.637 810.998 244.135C812.024 242.316 813.048 240.497 814.072 238.678C819.304 229.405 824.664 220.216 830 211C752.78 210.67 675.56 210.34 596 210C606.208 227.192 616.381 244.305 626.894 261.293C632.007 269.6 636.957 278.002 641.92 286.398C647.182 295.297 652.518 304.137 658.002 312.9C663.462 321.665 668.696 330.562 673.951 339.45C678.568 347.255 683.205 355.038 688.075 362.689C693.157 370.737 697.935 378.972 702.78 387.164C709.271 398.154 709.271 398.154 716 409C721.47 417.594 726.595 426.397 731.78 435.164C737.698 445.216 737.698 445.216 743.822 455.142C748.917 463.18 753.85 471.31 758.737 479.475C759.614 480.94 760.495 482.403 761.378 483.865C762.625 485.931 763.862 488.002 765.098 490.074C765.476 490.698 765.855 491.321 766.245 491.963C768.2 495.269 769.886 498.12 770 502C768.851 504.865 768.851 504.865 767.055 508.023C766.734 508.597 766.412 509.171 766.082 509.763C765.026 511.641 763.951 513.508 762.875 515.375C762.134 516.686 761.393 517.997 760.655 519.31C758.796 522.605 756.921 525.891 755.042 529.175C752.989 532.77 750.963 536.381 748.933 539.989C747.373 542.753 745.804 545.511 744.234 548.27C741.895 552.393 739.602 556.539 737.328 560.699C736.71 561.823 736.092 562.947 735.456 564.105C734.273 566.258 733.097 568.416 731.931 570.579C727.979 577.75 723.869 584.573 716.812 589C709.214 590.993 701.877 591.157 694.816 587.461C688.538 582.411 685.019 575.142 681.125 568.25C680.126 566.5 679.127 564.75 678.127 563C677.095 561.192 676.065 559.382 675.036 557.572C671.883 552.033 668.689 546.518 665.5 541C664.25 538.833 663 536.667 661.75 534.5C661.131 533.428 660.512 532.355 659.875 531.25C598 424 536.125 316.75 472.375 206.25C471.126 204.084 469.876 201.919 468.627 199.754C465.488 194.314 462.35 188.873 459.215 183.43C458.59 182.345 457.965 181.261 457.321 180.144C456.074 177.98 454.828 175.816 453.583 173.651C450.428 168.173 447.245 162.713 444.016 157.277C443.373 156.192 442.731 155.106 442.069 153.987C440.849 151.929 439.623 149.875 438.39 147.826C433.217 139.081 430.745 132.226 433 122C435.38 116.253 439.656 111.214 445 108C450.372 106.151 455.066 105.714 460.72 105.746Z" fill="#FBFBFB"/>
<path d="M282.5 1.5626C290.019 6.37771 294.136 14.2364 298.438 21.8126C299.041 22.8609 299.644 23.9091 300.266 24.9891C302.184 28.3225 304.092 31.6612 306 35.0001C308.455 39.2732 310.914 43.5431 313.375 47.8126C313.995 48.8902 314.615 49.9678 315.254 51.078C319.753 58.8816 324.329 66.636 328.938 74.3751C334.733 84.11 340.402 93.908 345.999 103.758C350.931 112.434 355.957 121.049 361.063 129.625C369.469 143.746 377.671 157.979 385.855 172.23C393.457 185.463 401.142 198.64 408.949 211.754C414.064 220.367 419.05 229.048 423.999 237.758C428.931 246.434 433.957 255.049 439.063 263.625C447.469 277.746 455.671 291.979 463.855 306.23C470.827 318.366 477.846 330.47 485 342.5C493.423 356.665 501.648 370.939 509.855 385.23C516.948 397.577 524.096 409.887 531.375 422.125C540.189 436.959 540.189 436.959 544.438 444.438C544.797 445.064 545.157 445.69 545.527 446.335C548.926 452.38 550.184 458.272 548.469 465.121C545.909 472.48 542.204 476.532 535.199 479.933C528.632 482.124 521.693 481.625 514.848 481.524C513.181 481.517 511.515 481.512 509.848 481.509C505.474 481.496 501.101 481.452 496.727 481.402C493.205 481.367 489.683 481.353 486.161 481.341C481.89 481.326 477.619 481.301 473.348 481.274C472.561 481.269 471.774 481.264 470.963 481.259C466.422 481.225 461.885 481.148 457.345 481.038C454.831 480.997 452.322 481.019 449.808 481.041C448.094 481.023 446.38 481.004 444.666 480.983C443.872 481.003 443.079 481.024 442.261 481.045C439.924 480.989 438.182 480.851 436 480C433.786 477.575 432.407 474.949 431 472C430.407 470.963 429.813 469.926 429.202 468.858C428.653 467.857 428.104 466.856 427.539 465.824C426.911 464.681 426.282 463.537 425.635 462.359C425.144 461.463 425.144 461.463 424.644 460.548C423.238 457.98 421.827 455.415 420.416 452.85C419.686 451.522 418.956 450.194 418.227 448.865C414.651 442.357 411.047 435.865 407.438 429.375C406.824 428.271 406.209 427.166 405.577 426.028C404.338 423.8 403.098 421.571 401.859 419.343C398.738 413.73 395.619 408.115 392.5 402.5C391.25 400.25 390 398 388.75 395.75C306.25 247.25 306.25 247.25 304.373 243.872C303.129 241.632 301.885 239.393 300.64 237.154C297.761 231.972 294.883 226.789 292.008 221.604C282.113 203.741 282.113 203.741 272 186C269.281 189.264 267.018 192.5 264.969 196.219C264.134 197.724 264.134 197.724 263.282 199.259C262.694 200.329 262.106 201.398 261.5 202.5C260.238 204.775 258.975 207.05 257.711 209.324C257.083 210.457 256.455 211.589 255.808 212.755C253.28 217.293 250.709 221.806 248.125 226.313C247.646 227.149 247.167 227.986 246.673 228.848C245.662 230.611 244.651 232.375 243.64 234.139C240.844 239.017 238.056 243.899 235.268 248.781C233.559 251.772 231.85 254.763 230.141 257.754C229.449 258.965 228.757 260.176 228.065 261.387C192 324.5 192 324.5 191 326.25C190.333 327.417 189.666 328.585 188.999 329.753C187.34 332.655 185.681 335.558 184.022 338.461C180.927 343.876 177.833 349.292 174.744 354.711C173.302 357.241 171.859 359.771 170.416 362.3C169.41 364.063 168.406 365.827 167.402 367.59C163.682 374.11 159.896 380.583 156 387C159.419 388.043 162.532 388.115 166.097 388.098C167.348 388.095 168.598 388.091 169.887 388.088C171.27 388.08 172.653 388.071 174.037 388.063C175.496 388.057 176.954 388.053 178.413 388.049C181.553 388.04 184.694 388.028 187.834 388.016C192.801 387.998 197.768 387.996 202.735 387.998C203.574 387.999 204.412 387.999 205.276 388C207.859 388.001 210.441 388.002 213.024 388.004C223.718 388.011 234.413 388.006 245.107 387.949C252.909 387.907 260.71 387.898 268.512 387.925C272.64 387.938 276.766 387.935 280.894 387.894C284.777 387.855 288.658 387.859 292.541 387.894C293.964 387.9 295.387 387.89 296.81 387.863C307.555 387.676 307.555 387.676 311.148 390.967C312.7 393.257 313.882 395.474 315 398C315.606 399.029 316.212 400.059 316.836 401.119C317.344 402.051 317.852 402.982 318.375 403.941C318.96 405.007 319.546 406.072 320.149 407.17C320.76 408.29 321.371 409.409 322 410.563C323.33 412.983 324.664 415.4 326 417.816C326.336 418.423 326.671 419.03 327.017 419.656C330.254 425.491 333.614 431.25 337 437C342.194 445.836 347.263 454.734 352.25 463.688C352.74 464.564 352.74 464.564 353.24 465.458C354.169 467.12 355.092 468.785 356.016 470.449C356.545 471.402 357.073 472.354 357.618 473.335C358.921 475.848 359.969 478.367 361 481C317.474 481.115 273.948 481.203 230.422 481.255C225.283 481.262 220.143 481.268 215.004 481.275C213.981 481.276 212.958 481.277 211.904 481.279C195.34 481.3 178.776 481.34 162.212 481.386C145.215 481.433 128.217 481.46 111.219 481.471C100.732 481.477 90.2448 481.499 79.7575 481.54C72.5646 481.566 65.3718 481.574 58.1789 481.568C54.0297 481.564 49.881 481.569 45.7319 481.596C41.9292 481.621 38.1271 481.622 34.3243 481.605C32.3056 481.601 30.2869 481.623 28.2683 481.646C19.8754 481.577 12.8196 480.324 6.39184 474.557C0.733987 468.195 -0.757142 462.043 -0.515544 453.742C0.410333 447.023 3.59334 441.755 7.00008 436C8.04286 434.197 9.08443 432.394 10.1251 430.59C12.5068 426.478 14.9082 422.379 17.3204 418.285C20.7829 412.395 24.1549 406.458 27.5001 400.5C31.9048 392.664 36.3885 384.879 40.9376 377.125C46.3282 367.934 51.5681 358.667 56.7498 349.356C61.311 341.18 66.0101 333.092 70.7501 325.02C74.9225 317.895 78.9849 310.715 83.0001 303.5C88.0984 294.343 93.3132 285.263 98.6139 276.222C103.083 268.592 107.494 260.93 111.875 253.25C112.208 252.666 112.542 252.081 112.885 251.479C114.58 248.508 116.274 245.536 117.968 242.565C120.975 237.289 123.989 232.018 127.002 226.746C128.668 223.831 130.334 220.916 132 218C132.667 216.833 133.333 215.667 134 214.5C134.33 213.923 134.66 213.345 135 212.75C154 179.5 154 179.5 155 177.75C155.667 176.583 156.334 175.416 157 174.25C158.665 171.336 160.33 168.422 161.996 165.509C165.017 160.223 168.037 154.937 171.051 149.647C172.742 146.681 174.433 143.716 176.125 140.75C176.458 140.167 176.79 139.584 177.133 138.984C181.748 130.898 186.416 122.844 191.125 114.813C196.452 105.724 201.628 96.5595 206.751 87.3548C211.31 79.1825 216.006 71.0971 220.746 63.0284C224.968 55.8209 229.067 48.5511 233.125 41.2501C237.52 33.3663 241.963 25.5165 246.563 17.7501C247.039 16.9345 247.516 16.1188 248.006 15.2784C255.611 2.56919 267.529 -5.10088 282.5 1.5626Z" fill="#FEFCFD"/>
<path d="M1971 123C1979.91 123 1988.82 123 1998 123C1999.66 124.657 1999.12 126.648 1999.13 128.862C1999.13 129.562 1999.13 130.263 1999.13 130.985C1999.13 131.724 1999.13 132.464 1999.13 133.225C1999.14 135.721 1999.13 138.217 1999.13 140.713C1999.13 142.495 1999.13 144.276 1999.13 146.058C1999.14 150.911 1999.14 155.764 1999.13 160.618C1999.13 165.685 1999.13 170.752 1999.14 175.819C1999.14 184.33 1999.14 192.841 1999.13 201.352C1999.12 211.207 1999.13 221.062 1999.13 230.917C1999.14 239.362 1999.14 247.807 1999.13 256.252C1999.13 261.303 1999.13 266.353 1999.14 271.404C1999.14 276.152 1999.14 280.899 1999.13 285.647C1999.13 287.394 1999.13 289.142 1999.13 290.889C1999.14 293.265 1999.13 295.64 1999.13 298.015C1999.13 298.716 1999.13 299.416 1999.13 300.138C1999.11 304.886 1999.11 304.886 1998 306C1996 306.088 1994 306.107 1992 306.098C1990.78 306.094 1989.57 306.091 1988.31 306.088C1987.04 306.08 1985.76 306.071 1984.44 306.062C1983.15 306.058 1981.87 306.053 1980.55 306.049C1977.37 306.037 1974.18 306.019 1971 306C1970.67 301.71 1970.34 297.42 1970 293C1968.93 294.031 1967.86 295.062 1966.75 296.125C1954.86 306.431 1940.16 309.688 1924.71 309.273C1907.5 308.006 1891.47 301.158 1880 288C1874.13 280.434 1869.51 272.291 1867 263C1866.67 261.766 1866.67 261.766 1866.32 260.508C1861.92 240.796 1865.57 221.116 1876 204C1878.1 201.012 1880.35 198.506 1883 196C1883.64 195.339 1884.28 194.677 1884.95 193.996C1897.19 182.087 1913.23 177.456 1930.03 177.648C1946.3 178.217 1957.84 183.358 1970 194C1970.33 170.57 1970.66 147.14 1971 123ZM1903.25 214.188C1894.74 223.253 1892.37 234.854 1892.7 246.93C1893.29 257.523 1897.91 266.241 1905 274C1913.45 281.222 1922.94 284.219 1934 284C1945.75 282.352 1955.61 277.394 1963 268C1969.72 257.338 1972.4 246.438 1970 234C1967.14 222.788 1960.99 213.96 1951 208C1935.24 199.553 1916.39 202.178 1903.25 214.188Z" fill="#F2F2F2"/>
<path d="M1128 130C1138.56 130 1149.12 130 1160 130C1168.07 149.068 1176.1 168.149 1183.94 187.312C1184.27 188.114 1184.59 188.916 1184.93 189.742C1185.26 190.55 1185.59 191.357 1185.93 192.189C1190.69 203.827 1195.49 215.45 1200.31 227.062C1204.95 238.227 1209.58 249.393 1214.19 260.566C1214.62 261.616 1215.06 262.666 1215.51 263.748C1217.62 268.87 1219.73 273.991 1221.84 279.114C1222.61 280.974 1223.38 282.835 1224.15 284.695C1224.49 285.535 1224.84 286.375 1225.2 287.24C1225.52 288.03 1225.85 288.82 1226.19 289.633C1226.49 290.378 1226.8 291.123 1227.11 291.89C1227.69 293.255 1228.28 294.611 1228.91 295.956C1230.66 299.764 1231 301.611 1231 306C1221.1 306 1211.2 306 1201 306C1196.17 294.401 1191.58 282.701 1187 271C1158.62 271 1130.24 271 1101 271C1096.71 282.22 1092.42 293.44 1088 305C1087 306 1087 306 1084.13 306.114C1082.88 306.108 1081.63 306.103 1080.34 306.098C1079.34 306.096 1079.34 306.096 1078.33 306.093C1076.2 306.088 1074.07 306.075 1071.94 306.062C1070.5 306.057 1069.06 306.053 1067.62 306.049C1064.08 306.038 1060.54 306.021 1057 306C1057.55 300.913 1058.71 296.759 1060.71 292.059C1060.99 291.396 1061.27 290.733 1061.56 290.05C1062.17 288.606 1062.78 287.163 1063.4 285.722C1064.76 282.548 1066.09 279.367 1067.44 276.186C1068.16 274.472 1068.88 272.758 1069.61 271.044C1073.48 261.888 1077.27 252.7 1081.06 243.508C1082.67 239.615 1084.27 235.723 1085.88 231.83C1087.1 228.865 1088.33 225.899 1089.55 222.933C1093.57 213.184 1097.6 203.436 1101.62 193.688C1102.01 192.747 1102.4 191.806 1102.8 190.837C1111.18 170.549 1119.59 150.273 1128 130ZM1143 165C1137.41 178.355 1131.81 191.712 1126.23 205.07C1125.04 207.898 1123.86 210.726 1122.68 213.554C1120.9 217.788 1119.13 222.024 1117.36 226.26C1116.7 227.837 1116.04 229.414 1115.38 230.99C1114.47 233.173 1113.56 235.356 1112.65 237.539C1112.38 238.185 1112.11 238.831 1111.83 239.496C1110.54 242.16 1110.54 242.16 1110 245C1132.44 245 1154.88 245 1178 245C1174.98 237.158 1171.96 229.38 1168.67 221.66C1168.28 220.732 1167.89 219.804 1167.48 218.847C1166.24 215.918 1164.99 212.99 1163.75 210.062C1157.39 195.086 1151.12 180.076 1145 165C1144.34 165 1143.68 165 1143 165Z" fill="#F2F2F2"/>
<path d="M1500 123C1508.91 123 1517.82 123 1527 123C1527 183.39 1527 243.78 1527 306C1518.09 306 1509.18 306 1500 306C1499.67 301.71 1499.34 297.42 1499 293C1497.93 294.031 1496.85 295.062 1495.75 296.125C1483.86 306.413 1468.93 309.725 1453.46 309.273C1435.53 307.856 1419.89 300.489 1408 287C1395.4 270.489 1391.64 250.059 1394.3 229.701C1397.34 213.367 1406 198.83 1419.25 188.816C1435.13 178.339 1453.75 175.702 1472.25 179.125C1483.34 181.828 1490.38 186.454 1499 194C1499.33 170.57 1499.66 147.14 1500 123ZM1432.75 213.562C1423.47 223.443 1421.51 234.457 1421.72 247.438C1422.14 257.496 1426.78 266.495 1433.66 273.75C1441.13 280.558 1449.85 283.915 1459.95 284.035C1472.55 283.373 1481.96 278.369 1490.69 269.438C1498.75 259.617 1500.21 248.296 1499.24 236.039C1498.02 225.636 1492.22 217.178 1484.19 210.688C1468.31 199.738 1447.15 200.395 1432.75 213.562Z" fill="#F6F6F6"/>
<path d="M1759 193C1759.84 193.638 1760.68 194.276 1761.54 194.934C1773.86 205.279 1780.58 221.274 1782.21 237.05C1783.35 254.066 1779.02 270.31 1768.76 283.988C1766.6 286.449 1764.37 288.739 1762 291C1761.39 291.632 1760.78 292.263 1760.14 292.914C1747.39 305.261 1729.22 309.406 1712.03 309.203C1695.7 308.558 1680 302.201 1668 291C1667.33 290.381 1666.66 289.762 1665.96 289.125C1659.45 282.497 1655.64 274.439 1652 266C1651.42 264.662 1651.42 264.662 1650.83 263.297C1645.32 247.248 1648.45 227.922 1655.5 213C1662.9 198.356 1674.68 187.897 1690.12 182.125C1692.41 181.385 1694.7 180.674 1697 180C1697.84 179.754 1698.68 179.507 1699.55 179.254C1720.33 174.196 1742.36 180.109 1759 193ZM1685.05 217.531C1677.77 226.309 1675.66 236.69 1676.12 247.984C1677.67 259.001 1683.16 269.207 1692 276C1702.05 282.536 1713.29 284.282 1725 282C1735.14 279.046 1743.45 273.788 1748.87 264.562C1749.61 263.056 1750.32 261.535 1751 260C1751.32 259.326 1751.64 258.652 1751.96 257.957C1755.98 248.088 1755.07 236.51 1751.32 226.719C1746.4 216.608 1738.28 209.591 1727.76 205.758C1711.83 201.387 1696.28 205.602 1685.05 217.531Z" fill="#F2F2F2"/>
<path d="M1352.41 189.742C1362.14 198.481 1366.82 212.309 1368 225C1368.09 227.755 1368.14 230.483 1368.13 233.236C1368.13 234.406 1368.13 234.406 1368.13 235.599C1368.14 238.148 1368.14 240.697 1368.13 243.246C1368.13 245.026 1368.13 246.806 1368.14 248.586C1368.14 252.3 1368.14 256.014 1368.13 259.728C1368.12 264.499 1368.13 269.27 1368.13 274.04C1368.14 277.708 1368.14 281.375 1368.13 285.042C1368.13 286.803 1368.13 288.563 1368.14 290.323C1368.14 292.772 1368.14 295.221 1368.13 297.67C1368.13 298.402 1368.13 299.134 1368.14 299.888C1368.11 304.886 1368.11 304.886 1367 306C1365 306.088 1363 306.107 1361 306.098C1359.78 306.095 1358.57 306.091 1357.31 306.088C1356.04 306.08 1354.76 306.071 1353.44 306.063C1352.15 306.058 1350.87 306.054 1349.55 306.049C1346.37 306.037 1343.18 306.021 1340 306C1339.99 305.072 1339.99 304.145 1339.98 303.189C1339.92 294.407 1339.85 285.625 1339.76 276.843C1339.72 272.329 1339.68 267.815 1339.65 263.301C1339.63 258.937 1339.59 254.573 1339.54 250.21C1339.52 248.552 1339.51 246.895 1339.5 245.238C1339.46 227.85 1339.46 227.85 1331.75 212.656C1324.85 206.124 1316.18 205.556 1307.16 205.727C1298.66 206.117 1291.8 209.216 1285.66 215.067C1280.15 221.5 1278.86 228.267 1278.79 236.523C1278.78 237.65 1278.78 237.65 1278.76 238.8C1278.73 241.278 1278.71 243.756 1278.68 246.234C1278.66 247.955 1278.64 249.676 1278.62 251.396C1278.57 255.921 1278.52 260.445 1278.47 264.969C1278.42 269.588 1278.36 274.206 1278.31 278.824C1278.2 287.883 1278.1 296.941 1278 306C1268.76 306 1259.52 306 1250 306C1249.95 289.997 1249.92 273.995 1249.9 257.992C1249.89 250.562 1249.87 243.132 1249.85 235.702C1249.83 229.228 1249.82 222.754 1249.81 216.279C1249.81 212.85 1249.8 209.42 1249.79 205.991C1249.77 202.166 1249.77 198.342 1249.77 194.518C1249.77 193.375 1249.76 192.232 1249.75 191.055C1249.75 190.017 1249.76 188.979 1249.76 187.91C1249.76 187.005 1249.76 186.1 1249.75 185.167C1250 183 1250 183 1252 181C1254.51 180.757 1254.51 180.757 1257.63 180.77C1258.75 180.772 1259.86 180.774 1261.01 180.776C1262.77 180.794 1262.77 180.794 1264.56 180.813C1265.74 180.813 1266.91 180.814 1268.12 180.815C1276.86 180.86 1276.86 180.86 1278 182C1278.23 183.682 1278.41 185.371 1278.56 187.063C1278.69 188.441 1278.69 188.441 1278.82 189.848C1278.88 190.558 1278.94 191.268 1279 192C1279.91 191.134 1280.82 190.268 1281.75 189.375C1301.77 172.311 1331.89 174.909 1352.41 189.742Z" fill="#EFEFEF"/>
<path d="M1186 392C1283.39 392 1283.39 392 1300.15 408.062C1310.16 418.502 1313.37 430.792 1313.3 444.909C1312.95 458.793 1308.04 469.6 1298.56 479.641C1285.62 491.56 1268.87 493.655 1252 493.391C1250.72 493.387 1249.44 493.383 1248.12 493.378C1243.41 493.358 1238.71 493.302 1234 493.25C1223.44 493.167 1212.88 493.085 1202 493C1202 517.42 1202 541.84 1202 567C1196.72 567 1191.44 567 1186 567C1186 509.25 1186 451.5 1186 392ZM1202 407C1202 430.43 1202 453.86 1202 478C1217.99 478.124 1217.99 478.124 1234.31 478.25C1239.33 478.305 1239.33 478.305 1244.45 478.36C1247.13 478.372 1249.81 478.382 1252.49 478.391C1253.51 478.406 1253.51 478.406 1254.55 478.422C1266.69 478.599 1277.62 476.987 1286.77 468.32C1294.62 460.081 1296.63 451.876 1296.54 440.761C1296.18 431.684 1293.2 423.202 1286.86 416.527C1275.83 407.45 1264.05 406.698 1250.34 406.805C1249.11 406.807 1247.88 406.809 1246.61 406.811C1242.06 406.821 1237.5 406.849 1232.94 406.875C1222.73 406.916 1212.52 406.957 1202 407Z" fill="#F1F1F1"/>
<path d="M1846 451C1858.48 460.575 1866.79 473.178 1869 489C1869.14 492.23 1869.14 495.455 1869.12 498.688C1869.13 499.554 1869.13 500.421 1869.14 501.314C1869.14 502.143 1869.13 502.971 1869.13 503.824C1869.13 504.578 1869.13 505.332 1869.13 506.108C1869 508 1869 508 1868 510C1833.02 510 1798.04 510 1762 510C1766.23 525.863 1770.03 538.362 1784.37 547.043C1797.74 554.263 1811.2 556.251 1826.03 552.031C1837.09 548.194 1844.8 542.197 1853 534C1856.44 534.34 1858.58 535.971 1861.25 538.063C1861.96 538.61 1862.66 539.158 1863.39 539.723C1864.19 540.355 1864.19 540.355 1865 541C1864.34 548.161 1858.22 552.627 1853 557C1837.79 568.229 1817.86 572.012 1799.34 569.504C1782.01 566.103 1765.93 557.778 1755.87 542.84C1746.05 526.922 1742.55 509.11 1746.25 490.688C1750.34 473.97 1759 459.765 1773.69 450.258C1795.74 437.65 1824.47 436.244 1846 451ZM1772.53 471.16C1766.42 478.517 1763 486.36 1763 496C1792.37 496 1821.74 496 1852 496C1853.7 487.516 1850.35 480.541 1845.79 473.387C1838.83 464.103 1829.17 458.661 1818 456C1800.93 454.16 1784.53 458.251 1772.53 471.16Z" fill="#EBEBEB"/>
<path d="M1439.37 454.477C1451.8 464.819 1460.76 479.579 1462.26 495.826C1463.49 516.992 1459.49 534.007 1445.47 550.43C1433.17 563.218 1416.32 569.69 1398.78 570.403C1382.02 570.675 1365.33 565.727 1352.56 554.562C1351.02 553.062 1349.5 551.542 1348 550C1347.37 549.386 1346.73 548.773 1346.08 548.141C1334.22 535.861 1330.49 519.476 1330.58 502.934C1331.07 484.947 1338.26 469.328 1351.24 456.844C1375.86 435.855 1413.65 434.684 1439.37 454.477ZM1358.82 471.801C1348.97 483.725 1346.13 496.823 1347 512C1348.8 524.473 1354.68 535.505 1364 544C1375.88 552.725 1388.4 555.911 1403 555C1417.47 552.729 1429.41 546.002 1438.14 534.07C1445.93 521.451 1448.07 507.885 1445.31 493.371C1441.82 480.997 1435 469.433 1423.55 462.953C1401.8 451.484 1376.32 453.241 1358.82 471.801Z" fill="#EDEDED"/>
<path d="M1640 181C1640.88 184.606 1641 187.419 1640.44 191.082C1640.3 192.013 1640.16 192.945 1640.02 193.904C1639.87 194.864 1639.72 195.824 1639.56 196.813C1639.41 197.792 1639.27 198.771 1639.12 199.779C1638.75 202.187 1638.38 204.594 1638 207C1636.89 206.769 1636.89 206.769 1635.75 206.534C1624.06 204.158 1614.63 204.33 1603.75 209.563C1597 215.542 1593.38 223.834 1592.72 232.765C1592.7 234.131 1592.69 235.497 1592.68 236.863C1592.67 237.615 1592.66 238.367 1592.65 239.142C1592.62 241.604 1592.6 244.065 1592.59 246.527C1592.57 248.244 1592.55 249.96 1592.53 251.676C1592.48 256.176 1592.44 260.675 1592.4 265.175C1592.36 269.774 1592.31 274.372 1592.26 278.971C1592.16 287.98 1592.08 296.99 1592 306C1582.76 306 1573.52 306 1564 306C1564 264.75 1564 223.5 1564 181C1573.24 181 1582.48 181 1592 181C1592.33 184.63 1592.66 188.26 1593 192C1593.66 191.113 1594.32 190.226 1595 189.313C1606.25 175.985 1624.64 175.921 1640 181Z" fill="#EEEEEE"/>
<path d="M1708 452C1714.3 456.768 1720.86 462.563 1724 470C1723.96 472.059 1723.96 472.059 1723 474C1720.71 475.703 1720.71 475.703 1717.94 477.25C1716.56 478.031 1716.56 478.031 1715.15 478.828C1714.44 479.215 1713.73 479.601 1713 480C1712.36 479.361 1711.72 478.721 1711.06 478.062C1710.6 477.607 1710.14 477.152 1709.66 476.684C1708.45 475.456 1707.27 474.192 1706.12 472.91C1697.57 463.697 1686.96 457.517 1674.34 456.789C1659.72 456.303 1647.01 459.589 1635.75 469.25C1626.02 478.503 1621 488.835 1620.53 502.319C1620.38 516.161 1623.02 527.159 1632 538C1632.5 538.635 1633 539.271 1633.52 539.926C1640.93 548.372 1653.33 553.438 1664.36 554.246C1679.85 554.768 1692.91 549.909 1704.46 539.59C1707.01 536.954 1708.98 534.059 1711 531C1715.78 532.642 1719.79 535.265 1724 538C1722.36 547.212 1712.99 554.4 1705.8 559.59C1690.52 569.528 1671.84 572.172 1654.06 569C1636.12 564.688 1621.01 553.957 1611.31 538.312C1602.6 522.867 1600.55 504.987 1605.1 487.921C1610.12 470.8 1619.98 457.887 1635.29 448.91C1658.24 436.465 1686.3 437.879 1708 452Z" fill="#E9E9E9"/>
<path d="M1810 181C1818.91 181 1827.82 181 1837 181C1837 222.25 1837 263.5 1837 306C1828.09 306 1819.18 306 1810 306C1808.36 304.358 1808.87 302.48 1808.87 300.217C1808.87 299.182 1808.87 298.147 1808.86 297.081C1808.87 295.936 1808.87 294.791 1808.87 293.611C1808.87 292.413 1808.87 291.215 1808.87 289.98C1808.86 286.685 1808.86 283.39 1808.87 280.094C1808.87 276.653 1808.87 273.211 1808.86 269.77C1808.86 263.989 1808.86 258.209 1808.87 252.428C1808.88 245.736 1808.87 239.044 1808.87 232.352C1808.86 226.616 1808.86 220.88 1808.87 215.144C1808.87 211.714 1808.87 208.284 1808.86 204.854C1808.86 201.032 1808.86 197.211 1808.87 193.389C1808.87 192.244 1808.87 191.099 1808.86 189.919C1808.87 188.884 1808.87 187.849 1808.87 186.783C1808.87 185.878 1808.87 184.973 1808.87 184.041C1809 182 1809 182 1810 181Z" fill="#F5F5F5"/>
<path d="M1496 386C1501.28 386 1506.56 386 1512 386C1512 445.73 1512 505.46 1512 567C1506.39 567 1500.78 567 1495 567C1494.98 543.548 1494.96 520.096 1494.95 496.645C1494.94 485.756 1494.94 474.868 1494.92 463.98C1494.91 454.493 1494.91 445.007 1494.91 435.52C1494.9 430.494 1494.9 425.467 1494.89 420.441C1494.89 415.716 1494.89 410.991 1494.89 406.265C1494.89 404.526 1494.88 402.786 1494.88 401.047C1494.88 398.682 1494.88 396.318 1494.88 393.954C1494.88 393.256 1494.87 392.559 1494.87 391.84C1494.89 387.114 1494.89 387.114 1496 386Z" fill="#E1E1E1"/>
<path d="M1554 443C1559.28 443 1564.56 443 1570 443C1570 483.92 1570 524.84 1570 567C1564.72 567 1559.44 567 1554 567C1554 526.08 1554 485.16 1554 443Z" fill="#FCFCFC"/>
<path d="M1831.38 124.918C1835.83 127.453 1838.51 129.971 1840 135C1840.85 142.139 1840.45 147.26 1836 153C1832.12 156.879 1828.8 157.313 1823.5 157.5C1816.54 157.263 1813.44 155.504 1808.62 150.563C1806.13 145.099 1806.27 139.904 1807 134C1808.94 129.579 1811.53 126.914 1815.88 124.699C1821.01 123.006 1826.33 122.97 1831.38 124.918Z" fill="#EEEEEE"/>
<path d="M1567 393C1569.86 395.01 1571.64 396.438 1572.45 399.934C1572.66 403.775 1572.23 405.635 1570.13 408.938C1566.6 412.357 1563.93 412.331 1559.2 412.293C1557 412 1557 412 1554.5 410.125C1551.77 406.264 1551.52 403.754 1552 399C1555.73 392.514 1559.88 391.282 1567 393Z" fill="#E4E4E4"/>
</g>
<defs>
<clipPath id="clip0_2425_10234">
<rect width="2000" height="590" fill="white"/>
</clipPath>
</defs>
</svg>
