<svg width="1280" height="130" viewBox="0 0 1280 130" fill="none" xmlns="http://www.w3.org/2000/svg">
<g clip-path="url(#clip0_2425_10172)">
<path d="M844.75 28.6875C853.059 36.3993 856.855 46.1033 859 57C859 65.58 859 74.16 859 83C832.93 83 806.86 83 780 83C784.22 94.2272 784.22 94.2272 792.725 101.56C798.585 103.995 805.007 103.483 811.246 103.512C812.626 103.529 814.006 103.547 815.386 103.566C818.998 103.613 822.609 103.643 826.221 103.67C829.915 103.699 833.609 103.746 837.303 103.791C844.535 103.877 851.767 103.943 859 104C859 111.26 859 118.52 859 126C850.619 126.091 842.239 126.164 833.857 126.207C829.964 126.228 826.072 126.256 822.179 126.302C818.412 126.346 814.645 126.369 810.877 126.38C809.451 126.387 808.024 126.401 806.597 126.423C793.837 126.61 781.591 125.122 772 116C771.312 115.352 770.623 114.703 769.914 114.035C757.366 101.138 755.499 82.797 755.649 65.5906C756 52.2721 759.258 38.7422 769 29C790.608 12.3787 823.009 12.045 844.75 28.6875ZM785 46.9375C781.195 51.7722 780 54.7418 780 61C798.48 61 816.96 61 836 61C834.869 53.0837 833.023 47.9957 826.562 43.125C814.894 35.0839 794.571 36.626 785 46.9375Z" fill="#FEFEFE"/>
<path d="M304 0C311.26 0 318.52 0 326 0C326.091 11.232 326.164 22.4637 326.207 33.696C326.228 38.9128 326.256 44.1295 326.302 49.3462C326.345 54.3907 326.369 59.435 326.379 64.4797C326.387 66.394 326.401 68.3083 326.423 70.2225C326.606 87.0544 325.031 102.009 313.121 115.059C300.079 127.31 283.77 128.753 266.683 128.348C254.887 127.811 245.838 123.319 237.187 115.438C236.466 114.633 235.744 113.829 235 113C234.01 111.948 234.01 111.948 233 110.875C221.604 94.4934 220.83 73.0392 224.125 53.9375C226.631 43.2824 231.082 33.6812 240 27C259.413 15.2788 282.147 17.8553 304 18C304 12.06 304 6.12 304 0ZM251 49C246.021 56.8537 245.767 64.0074 245.687 73.125C245.658 74.2155 245.629 75.3061 245.6 76.4297C245.535 84.7079 246.692 91.7264 251.859 98.4023C261.603 106.314 270.83 107.004 283 106C290.106 104.921 294.733 101.729 299 96C305.056 85.8079 303.438 73.1926 303.25 61.8125C303.23 59.6947 303.212 57.5768 303.195 55.459C303.151 50.3055 303.083 45.153 303 40C298.038 39.9253 293.076 39.8711 288.113 39.8352C286.429 39.8202 284.744 39.7998 283.06 39.7737C265.297 39.3292 265.297 39.3292 251 49Z" fill="#FEFEFE"/>
<path d="M623 0C630.26 0 637.52 0 645 0C645.068 10.7104 645.123 21.4207 645.155 32.1313C645.171 37.106 645.192 42.0806 645.226 47.0552C645.259 51.8663 645.277 56.6772 645.285 61.4884C645.29 63.3134 645.301 65.1384 645.317 66.9633C645.466 84.3423 644.29 101.402 631.875 114.875C620.405 125.481 606.474 128.224 591.375 128.375C590.409 128.389 589.443 128.403 588.448 128.417C575.582 128.332 564.508 124.029 555.105 115.258C544.187 103.55 541.817 88.3567 541.75 73C541.729 71.8437 541.709 70.6874 541.687 69.4961C541.622 54.9501 545.105 43.7579 553.187 31.75C571.497 13.8476 599.431 17.8439 623 18C623 12.06 623 6.12 623 0ZM571 47C569.172 49.7884 569.172 49.7884 567.75 52.875C567.25 53.883 566.75 54.8911 566.234 55.9297C561.963 66.555 562.396 82.5325 566.894 93.1016C570.283 99.4946 576.055 103.241 582.801 105.641C592.288 107.191 603.744 107.44 612 102C617.795 96.9974 620.881 90.5321 622 83C622.133 79.7012 622.116 76.4065 622.098 73.1055C622.096 72.1581 622.095 71.2108 622.093 70.2347C622.088 67.2189 622.075 64.2032 622.062 61.1875C622.057 59.1387 622.053 57.0898 622.049 55.041C622.038 50.0273 622.02 45.0137 622 40C617.056 39.9252 612.113 39.8711 607.168 39.8352C605.491 39.8202 603.813 39.7998 602.135 39.7737C585.222 39.0565 585.222 39.0565 571 47Z" fill="#FEFEFE"/>
<path d="M1182.97 17.8697C1186.02 17.8752 1189.07 17.8697 1192.12 17.8634C1194.08 17.8641 1196.04 17.8653 1198 17.8673C1199.35 17.8643 1199.35 17.8643 1200.73 17.8612C1205.59 17.8792 1210.2 18.18 1215 19.0001C1215.05 27.007 1215.08 35.0139 1215.1 43.0209C1215.11 46.7401 1215.13 50.4592 1215.15 54.1783C1215.17 57.7769 1215.18 61.3755 1215.19 64.9741C1215.2 66.9945 1215.21 69.0149 1215.23 71.0352C1215.23 88.1795 1212.2 103.043 1200.26 115.867C1188.92 126.812 1173.67 128.42 1158.68 128.364C1144.39 128.106 1133.33 123.804 1123.25 113.375C1111.92 99.5782 1109.97 81.2454 1111.44 64.0643C1112.96 49.592 1116.73 36.8276 1128.25 27.1251C1143.78 15.8292 1164.79 17.8313 1182.97 17.8697ZM1140.62 47.4298C1132.52 57.5065 1132.82 71.7259 1134 84.0001C1135.29 90.0166 1137.39 95.7668 1142 100C1152.17 106.582 1163.27 107.808 1175.13 105.352C1181.68 103.013 1185.93 99.2185 1188.99 92.9806C1191.83 85.911 1192.14 78.9735 1192.1 71.4454C1192.1 70.0931 1192.1 70.0931 1192.09 68.7135C1192.09 65.8506 1192.08 62.9879 1192.06 60.1251C1192.06 58.1772 1192.05 56.2293 1192.05 54.2814C1192.04 49.5209 1192.02 44.7605 1192 40.0001C1187.02 39.9504 1182.04 39.9142 1177.06 39.8903C1175.37 39.8802 1173.68 39.8666 1171.98 39.8492C1169.54 39.8248 1167.1 39.8136 1164.66 39.8048C1163.91 39.7945 1163.16 39.7842 1162.4 39.7735C1154.13 39.7718 1146.59 41.2237 1140.62 47.4298Z" fill="#FEFEFE"/>
<path d="M70.8977 17.8696C73.9559 17.875 77.014 17.8696 80.0723 17.8633C82.0365 17.8639 84.0007 17.8652 85.9648 17.8672C87.3213 17.8642 87.3213 17.8642 88.7051 17.8611C93.5769 17.879 98.1963 18.1778 103 19C103.047 27.0069 103.082 35.0138 103.104 43.0208C103.114 46.74 103.128 50.4591 103.151 54.1782C103.173 57.7768 103.185 61.3753 103.19 64.974C103.195 66.9944 103.211 69.0148 103.227 71.0351C103.229 88.1794 100.201 103.043 88.2617 115.867C76.9181 126.812 61.6715 128.42 46.679 128.364C33.1831 128.12 23.0417 124.428 13.0039 115.156C1.90302 103.506 -0.526924 87.4625 -0.375 72C-0.386602 70.8192 -0.398203 69.6384 -0.410156 68.4219C-0.364699 54.6634 2.70375 40.9754 12.2773 30.5938C28.2109 15.8525 50.6733 17.827 70.8977 17.8696ZM28 48C20.7631 58.3629 20.9648 71.9061 22 84C23.5687 91.7504 26.412 96.7948 32.957 101.367C41.379 106.898 50.1538 106.839 60 106C66.3319 104.688 70.8984 102.1 74.8203 96.9258C79.6828 88.988 80.1518 80.5317 80.0977 71.4453C80.0955 70.093 80.0955 70.093 80.0934 68.7134C80.0878 65.8505 80.0753 62.9878 80.0625 60.125C80.0575 58.1771 80.0529 56.2292 80.0488 54.2813C80.0378 49.5208 80.0206 44.7604 80 40C75.0195 39.9503 70.0392 39.9141 65.0586 39.8901C63.3672 39.8801 61.6757 39.8665 59.9844 39.8491C57.5416 39.8246 55.0991 39.8135 52.6562 39.8047C51.9101 39.7944 51.1639 39.784 50.3951 39.7734C41.6224 39.7716 34.3307 41.6412 28 48Z" fill="#FEFEFE"/>
<path d="M446.012 18.836C460.172 18.2426 474.515 22.3721 485.695 31.1055C494.928 39.7139 499.261 51.0203 500.288 63.4954C500.401 67.1683 500.41 70.8256 500.375 74.5C500.387 75.7285 500.398 76.957 500.41 78.2227C500.364 92.7551 497.088 106.356 486.934 117.188C475.222 128.165 460.336 130.53 444.82 130.277C430.695 129.708 417.726 124.863 407.887 114.465C398.528 102.238 396.649 89.6598 396.688 74.6875C396.671 73.4455 396.655 72.2035 396.639 70.9239C396.631 56.6211 399.599 44.3211 409.293 33.4219C419.675 23.4525 432.01 19.9778 446.012 18.836ZM426.063 49.75C418.361 59.517 417.977 72.0521 419.344 84.0078C420.7 92.3024 422.994 97.9953 429.563 103.453C438.381 109.049 449.189 108.927 459.063 106.938C466.381 104.958 471.019 101.259 474.938 94.8125C477.38 88.3471 477.255 82.2372 477.313 75.375C477.342 74.2368 477.371 73.0985 477.4 71.9258C477.463 63.5019 476.403 56.3971 471.141 49.5977C458.699 39.4954 437.934 37.2645 426.063 49.75Z" fill="#FEFEFE"/>
<path d="M196.668 26.0938C205.721 33.4936 210.182 42.7553 213 54C213.166 56.4636 213.236 58.9349 213.227 61.4041C213.227 62.1073 213.228 62.8106 213.228 63.5352C213.227 65.8348 213.211 68.1341 213.195 70.4336C213.192 72.0378 213.189 73.6421 213.187 75.2464C213.179 79.45 213.16 83.6535 213.137 87.8571C213.117 92.1541 213.108 96.4511 213.098 100.748C213.076 109.165 213.041 117.583 213 126C205.74 126 198.48 126 191 126C190.991 124.023 190.981 122.045 190.972 120.008C190.936 113.442 190.882 106.877 190.816 100.311C190.777 96.3339 190.745 92.3571 190.729 88.3799C190.714 84.5346 190.679 80.69 190.632 76.845C190.617 75.3852 190.609 73.9253 190.608 72.4654C190.603 59.0831 190.603 59.0831 184.659 47.3972C177.637 41.0294 168.826 39.6423 159.715 39.793C151.824 40.3947 145.744 42.4943 139.754 47.6953C133.473 55.9483 133.396 64.5517 133.391 74.5352C133.376 76.0245 133.359 77.5138 133.341 79.003C133.297 82.8942 133.277 86.7852 133.262 90.6766C133.242 94.6589 133.2 98.6409 133.16 102.623C133.085 110.415 133.037 118.207 133 126C125.41 126 117.82 126 110 126C109.932 117.767 109.877 109.534 109.845 101.301C109.829 97.476 109.808 93.6516 109.774 89.8271C109.741 86.1248 109.723 82.4226 109.715 78.7201C109.71 77.3194 109.699 75.9186 109.683 74.518C109.504 58.5975 111.762 41.6763 123.203 29.5859C142.175 12.8415 175.918 11.4098 196.668 26.0938Z" fill="#FEFEFE"/>
<path d="M957.75 27.7499C966.154 36.1539 971.678 47.285 972.12 59.2587C972.118 60.4911 972.116 61.7236 972.113 62.9934C972.114 63.6768 972.114 64.3603 972.114 65.0645C972.113 67.3099 972.105 69.5553 972.098 71.8007C972.096 73.363 972.094 74.9253 972.093 76.4875C972.09 80.5892 972.08 84.6909 972.069 88.7926C972.058 92.9822 972.054 97.1717 972.049 101.361C972.038 109.574 972.02 117.787 972 126C964.74 126 957.48 126 950 126C949.985 124.048 949.971 122.096 949.956 120.084C949.904 113.606 949.839 107.128 949.764 100.65C949.72 96.7259 949.68 92.8017 949.654 88.8771C949.627 85.0838 949.587 81.2909 949.537 77.4979C949.52 76.0568 949.509 74.6156 949.502 73.1744C949.459 64.1085 949.147 56.0584 944.25 48.1874C937.691 41.811 929.922 39.9713 921 39.7499C912.144 39.9963 904.619 41.7529 898 47.9999C891.36 57.5961 891.828 67.7821 891.684 79.0273C891.663 80.3849 891.642 81.7426 891.621 83.1002C891.566 86.6527 891.516 90.2053 891.468 93.7579C891.417 97.3914 891.362 101.025 891.307 104.658C891.199 111.772 891.098 118.886 891 126C883.74 126 876.48 126 869 126C868.932 117.489 868.877 108.978 868.845 100.466C868.829 96.5129 868.808 92.5595 868.774 88.6061C868.741 84.7806 868.723 80.9552 868.715 77.1295C868.71 75.6805 868.699 74.2315 868.683 72.7826C868.504 56.2744 871.098 41.3566 882.789 29.0351C903.187 10.2591 936.093 13.9681 957.75 27.7499Z" fill="#FEFEFE"/>
<path d="M704.546 17.8864C705.607 17.8865 706.668 17.8865 707.761 17.8866C709.453 17.8944 709.453 17.8944 711.18 17.9023C712.932 17.9044 712.932 17.9044 714.719 17.9065C718.438 17.9121 722.156 17.9247 725.875 17.9374C728.401 17.9424 730.927 17.947 733.453 17.9511C739.636 17.9612 745.818 17.9808 752 17.9999C752 25.9199 752 33.8399 752 41.9999C748.206 42.0257 744.413 42.0515 740.504 42.078C736.81 42.1165 733.117 42.1617 729.423 42.2074C726.866 42.2356 724.308 42.2568 721.75 42.2709C718.064 42.2924 714.378 42.3391 710.691 42.3905C708.989 42.3924 708.989 42.3924 707.253 42.3943C697.565 42.5711 689.858 44.9829 683 51.9999C676.81 61.9393 676.491 73.673 679.063 84.9374C680.85 90.4722 683.481 94.3469 688 97.9999C695.689 101.929 703.164 102.6 711.668 102.609C712.829 102.626 713.99 102.642 715.186 102.659C718.853 102.708 722.52 102.729 726.188 102.75C728.691 102.778 731.194 102.808 733.697 102.84C739.798 102.917 745.898 102.957 752 103C752 110.59 752 118.18 752 126C744.532 126.091 737.064 126.164 729.596 126.207C726.126 126.228 722.657 126.256 719.188 126.302C715.184 126.354 711.18 126.373 707.176 126.391C705.341 126.422 705.341 126.422 703.468 126.453C690.187 126.457 678.667 123.124 668.848 114C657.295 101.952 654.482 85.883 654.649 69.7084C655.104 54.936 658.742 41.7916 669.035 30.7773C678.546 22.1738 691.839 17.856 704.546 17.8864Z" fill="#FEFEFE"/>
<path d="M982 0C989.59 0 997.18 0 1005 0C1005 5.61 1005 11.22 1005 17C1015.89 17 1026.78 17 1038 17C1038 24.26 1038 31.52 1038 39C1027.11 39 1016.22 39 1005 39C1005.1 46.4751 1005.2 53.9496 1005.32 61.4243C1005.36 63.9676 1005.39 66.5109 1005.42 69.0542C1005.47 72.7082 1005.53 76.3618 1005.59 80.0156C1005.6 81.1543 1005.61 82.293 1005.62 83.4661C1005.64 84.5269 1005.66 85.5877 1005.68 86.6807C1005.69 87.6133 1005.71 88.546 1005.72 89.5069C1006.02 92.1382 1006.61 93.7642 1008 96C1016.87 102.787 1027.27 103.26 1038 104C1038 111.26 1038 118.52 1038 126C1022.3 126.486 1005.51 124.985 992.816 114.754C985.795 107.975 982.008 98.9691 981.639 89.2289C981.631 87.5645 981.638 85.9001 981.659 84.2358C981.659 83.3175 981.659 82.3992 981.658 81.4531C981.66 78.4555 981.683 75.4585 981.707 72.4609C981.713 70.3677 981.717 68.2745 981.72 66.1813C981.731 60.7003 981.761 55.2195 981.794 49.7385C981.825 44.1343 981.838 38.5301 981.853 32.9258C981.886 21.9504 981.938 10.9753 982 0Z" fill="#FEFEFE"/>
<path d="M1225 0C1232.26 0 1239.52 0 1247 0C1247.01 2.72524 1247.02 5.45048 1247.03 8.2583C1247.06 17.267 1247.12 26.2754 1247.18 35.2839C1247.22 40.7453 1247.26 46.2065 1247.27 51.668C1247.29 56.9396 1247.32 62.2108 1247.37 67.4822C1247.38 69.4923 1247.39 71.5026 1247.39 73.5128C1247.39 76.3308 1247.42 79.1475 1247.45 81.9653C1247.45 82.7947 1247.44 83.624 1247.44 84.4785C1247.53 89.7726 1248.52 92.7816 1252 97C1259.98 102.972 1270.46 103.349 1280 104C1280 111.26 1280 118.52 1280 126C1263.66 126.505 1247.54 124.687 1234.49 113.93C1223.44 102.536 1224.46 88.7244 1224.61 73.9258C1224.62 71.7892 1224.62 69.6525 1224.63 67.5159C1224.64 61.9247 1224.68 56.3338 1224.73 50.7427C1224.77 45.0245 1224.78 39.3062 1224.8 33.5879C1224.85 22.3917 1224.92 11.196 1225 0Z" fill="#FEFEFE"/>
<path d="M1105 15C1105 22.26 1105 29.52 1105 37C1102.22 37.2475 1099.43 37.495 1096.56 37.75C1088.52 38.5783 1081.81 39.7575 1075.5 45.125C1072.62 48.725 1072.83 51.8604 1072.79 56.2954C1072.78 57.4224 1072.78 57.4224 1072.76 58.5721C1072.73 61.0611 1072.71 63.55 1072.68 66.039C1072.66 67.7625 1072.64 69.486 1072.62 71.2095C1072.57 75.7502 1072.52 80.2909 1072.47 84.8316C1072.42 89.4633 1072.36 94.0949 1072.31 98.7265C1072.2 107.818 1072.1 116.909 1072 126C1064.41 126 1056.82 126 1049 126C1048.91 115.759 1048.84 105.519 1048.79 95.2778C1048.77 90.5215 1048.74 85.7656 1048.7 81.0095C1048.65 76.4124 1048.63 71.8155 1048.62 67.2182C1048.61 65.4716 1048.6 63.7251 1048.58 61.9787C1048.43 49.6453 1049.05 38.741 1057.27 28.7734C1069.81 15.9506 1088.15 14.8508 1105 15Z" fill="#FEFEFE"/>
<path d="M395 14.9999C395 22.2599 395 29.5199 395 36.9999C392.216 37.2474 389.431 37.4949 386.563 37.7499C378.133 38.6239 371.637 39.9689 365 45.4999C361.542 49.822 361.86 53.8067 361.795 59.247C361.78 60.3305 361.78 60.3305 361.765 61.4359C361.733 63.8166 361.708 66.1973 361.684 68.578C361.663 70.2314 361.642 71.8848 361.621 73.5382C361.566 77.8848 361.516 82.2314 361.468 86.5781C361.418 91.0156 361.362 95.4531 361.307 99.8905C361.199 108.594 361.098 117.297 361 126C353.74 126 346.48 126 339 126C338.909 115.759 338.836 105.519 338.793 95.2777C338.772 90.5215 338.744 85.7655 338.698 81.0094C338.655 76.4123 338.631 71.8154 338.621 67.2181C338.613 65.4716 338.599 63.725 338.577 61.9786C338.43 49.6305 339.068 38.7795 347.25 28.7772C359.933 15.8962 378.017 14.6883 395 14.9999Z" fill="#FEFEFE"/>
<path d="M510 36C517.59 36 525.18 36 533 36C533 66.36 533 96.72 533 128C525.41 128 517.82 128 510 128C510 97.64 510 67.28 510 36Z" fill="white"/>
<path d="M510 0C517.59 0 525.18 0 533 0C533 8.25 533 16.5 533 25C525.41 25 517.82 25 510 25C510 16.75 510 8.5 510 0Z" fill="white"/>
</g>
<defs>
<clipPath id="clip0_2425_10172">
<rect width="1280" height="130" fill="white"/>
</clipPath>
</defs>
</svg>
