<svg width="820" height="213" viewBox="0 0 820 213" fill="none" xmlns="http://www.w3.org/2000/svg">
<g clip-path="url(#clip0_2425_10106)">
<path d="M44.463 -0.129028C45.4017 -0.126115 46.3404 -0.123203 47.3075 -0.120202C48.2966 -0.121056 49.2857 -0.12191 50.3047 -0.122791C53.6459 -0.124448 56.9871 -0.118919 60.3284 -0.113472C62.7127 -0.113191 65.0971 -0.113348 67.4814 -0.113915C73.3013 -0.114173 79.1212 -0.109822 84.9411 -0.103477C91.7106 -0.0963433 98.48 -0.0948334 105.25 -0.0936891C117.323 -0.0914982 129.396 -0.0848373 141.469 -0.0753865C153.2 -0.0662132 164.931 -0.0591319 176.661 -0.0548787C177.745 -0.0544846 177.745 -0.0544846 178.851 -0.0540825C182.476 -0.0527775 186.101 -0.0515138 189.726 -0.0502706C219.817 -0.039897 249.909 -0.0222037 280 5.29885e-05C278.771 8.95505 277.379 17.8586 275.76 26.751C275.545 27.9443 275.33 29.1375 275.108 30.367C274.523 33.6125 273.935 36.8577 273.346 40.1027C272.715 43.5854 272.086 47.0687 271.457 50.552C270.391 56.4531 269.323 62.3539 268.254 68.2544C266.794 76.3154 265.336 84.3768 263.88 92.4384C256.617 132.631 249.306 172.815 242 213C162.14 213 82.28 213 0 213C1.125 199.5 1.125 199.5 2.1741 193.707C2.28844 193.067 2.40278 192.427 2.52058 191.767C2.8966 189.67 3.28051 187.574 3.66455 185.477C3.93954 183.953 4.21402 182.428 4.48805 180.903C5.22928 176.787 5.97741 172.672 6.72681 168.557C7.51908 164.2 8.30482 159.842 9.09128 155.483C10.5871 147.199 12.0887 138.917 13.5923 130.634C15.2756 121.361 16.953 112.087 18.6297 102.812C20.6879 91.4269 22.7468 80.0419 24.8111 68.6578C24.9568 67.8537 25.1026 67.0496 25.2528 66.2211C25.9711 62.2585 26.6899 58.2959 27.4097 54.3335C28.9441 45.8783 30.46 37.4201 31.957 28.9582C32.4398 26.2373 32.9229 23.5165 33.4061 20.7957C33.7167 19.0411 34.0259 17.2864 34.3335 15.5313C34.7579 13.1108 35.1869 10.6912 35.6169 8.27174C35.7426 7.54651 35.8684 6.82127 35.9979 6.07407C37.1606 -0.418045 37.8868 -0.113533 44.463 -0.129028ZM84.1169 71.8235C81.1432 77.8016 77.6368 83.446 74.1428 89.1295C72.1926 92.3215 70.2914 95.5424 68.3867 98.7618C67.6121 100.068 66.8373 101.375 66.0625 102.681C65.6745 103.336 65.2865 103.99 64.8867 104.665C59.1082 114.412 53.3266 124.157 47.5 133.875C47.0384 134.645 46.5769 135.416 46.1013 136.209C43.7022 140.202 41.278 144.179 38.8281 148.141C38.3119 148.977 37.7956 149.814 37.2637 150.676C36.2795 152.268 35.2915 153.858 34.2988 155.445C31.8702 158.959 31.8702 158.959 31 163C36.3208 163.415 41.6235 163.651 46.9609 163.535C48.2726 163.51 48.2726 163.51 49.6108 163.485C52.6869 162.861 53.7601 161.911 55.75 159.5C56.908 157.074 57.7984 154.65 58.5948 152.084C60.366 146.676 62.4298 141.604 67 138C75.2308 135.156 84.4997 136.18 93.0625 136.5C95.4784 136.532 97.8945 136.557 100.311 136.574C106.211 136.632 112.104 136.781 118 137C118.146 137.752 118.292 138.504 118.443 139.279C119.104 142.666 119.771 146.052 120.438 149.438C120.668 150.622 120.898 151.806 121.135 153.025C121.468 154.712 121.468 154.712 121.809 156.434C122.115 157.997 122.115 157.997 122.427 159.592C122.763 161.938 122.763 161.938 124 163C126.073 163.088 128.148 163.107 130.223 163.098C131.483 163.094 132.743 163.091 134.041 163.088C135.382 163.08 136.722 163.071 138.062 163.063C139.407 163.058 140.751 163.053 142.096 163.049C145.397 163.037 148.699 163.021 152 163C154.7 149.726 157.329 136.441 159.812 123.125C160.031 121.961 160.25 120.797 160.475 119.598C160.676 118.517 160.876 117.435 161.082 116.32C161.26 115.364 161.437 114.408 161.62 113.422C162.077 110.915 162.077 110.915 162 108C178.5 108 195 108 212 108C211.267 111.887 210.533 115.773 209.777 119.777C209.074 123.523 208.373 127.27 207.673 131.016C207.183 133.629 206.691 136.241 206.197 138.853C205.489 142.598 204.789 146.344 204.09 150.09C203.866 151.266 203.642 152.442 203.411 153.654C203.211 154.735 203.011 155.816 202.804 156.929C202.535 158.365 202.535 158.365 202.259 159.83C202.131 160.904 202.131 160.904 202 162C203.027 163.251 203.027 163.251 205.225 163.114C206.183 163.108 207.142 163.103 208.129 163.098C209.163 163.094 210.198 163.091 211.264 163.088C212.352 163.08 213.441 163.071 214.562 163.063C215.655 163.058 216.747 163.054 217.873 163.049C220.582 163.037 223.291 163.021 226 163C227.4 159.715 228.389 156.624 229.038 153.116C229.217 152.159 229.397 151.203 229.582 150.218C229.865 148.662 229.865 148.662 230.155 147.075C230.36 145.974 230.565 144.873 230.776 143.738C231.452 140.102 232.121 136.465 232.789 132.828C233.257 130.304 233.725 127.78 234.193 125.256C235.173 119.971 236.149 114.685 237.123 109.399C238.498 101.935 239.88 94.4724 241.263 87.01C242.335 81.2205 243.406 75.4306 244.477 69.6407C244.706 68.3997 244.936 67.1587 245.172 65.8801C245.817 62.3894 246.461 58.8984 247.104 55.4073C247.297 54.3621 247.49 53.3169 247.69 52.2401C247.863 51.2951 248.037 50.3502 248.216 49.3766C248.368 48.5507 248.521 47.7248 248.678 46.8739C249.028 45.1527 249.028 45.1527 249 44.0001C241.41 44.0001 233.82 44.0001 226 44.0001C223.498 55.8834 221 67.7658 218.688 79.6876C218.516 80.5528 218.345 81.418 218.169 82.3094C218.014 83.1187 217.859 83.928 217.699 84.7618C217.563 85.4626 217.428 86.1635 217.288 86.8856C216.888 89.4701 216.888 89.4701 217 94.0001C199.84 94.0001 182.68 94.0001 165 94.0001C169.5 71.2501 169.5 71.2501 170.924 64.0831C171.293 62.2065 171.662 60.3299 172.031 58.4532C172.226 57.4804 172.42 56.5077 172.62 55.5054C172.803 54.572 172.986 53.6385 173.174 52.6768C173.414 51.4644 173.414 51.4644 173.658 50.2274C174.101 47.7167 174.101 47.7167 174 44.0001C166.08 44.0001 158.16 44.0001 150 44.0001C148.719 47.8433 147.627 51.3181 146.779 55.2234C146.454 56.7098 146.454 56.7098 146.122 58.2262C145.895 59.2795 145.668 60.3328 145.434 61.418C145.195 62.5122 144.956 63.6064 144.709 64.7338C143.949 68.2177 143.193 71.7026 142.438 75.1876C141.678 78.6831 140.917 82.1785 140.155 85.6735C139.681 87.8455 139.209 90.0179 138.739 92.1908C138.419 93.6629 138.419 93.6629 138.092 95.1648C137.904 96.0283 137.717 96.8918 137.524 97.7815C137 100 137 100 136 103C135.797 101.936 135.797 101.936 135.589 100.85C134.312 94.1685 133.032 87.488 131.749 80.808C131.09 77.3736 130.431 73.939 129.775 70.504C129.021 66.5567 128.263 62.6104 127.504 58.6641C127.268 57.4276 127.033 56.1912 126.79 54.9172C126.57 53.7762 126.35 52.6351 126.123 51.4595C125.93 50.4514 125.737 49.4432 125.538 48.4045C125.102 46.0037 125.102 46.0037 124 44.0001C99.6758 37.175 93.4875 52.7657 84.1169 71.8235Z" fill="white"/>
<path d="M274 112C279.94 112 285.88 112 292 112C290.504 123.47 288.328 134.67 286 146C296.23 146 306.46 146 317 146C317.33 142.7 317.66 139.4 318 136C318.357 133.917 318.749 131.84 319.191 129.773C319.414 128.723 319.636 127.672 319.865 126.59C320.095 125.529 320.325 124.468 320.562 123.375C320.913 121.726 320.913 121.726 321.271 120.043C321.843 117.361 322.421 114.68 323 112C328.94 112 334.88 112 341 112C338.135 129.673 334.975 147.283 331.684 164.882C331.18 167.588 330.679 170.294 330.178 173.001C329.576 176.249 328.969 179.495 328.363 182.742C328.14 183.947 327.917 185.152 327.688 186.394C327.481 187.497 327.273 188.601 327.06 189.738C326.879 190.709 326.698 191.68 326.511 192.681C326 195 326 195 325 197C319.39 197 313.78 197 308 197C308 192.058 308.141 188.399 309.059 183.699C309.28 182.558 309.501 181.416 309.729 180.24C309.962 179.068 310.196 177.895 310.438 176.688C310.668 175.496 310.898 174.304 311.135 173.076C312.857 164.286 312.857 164.286 314 162C303.77 162 293.54 162 283 162C281.439 171.273 281.439 171.273 279.889 180.547C279.691 181.71 279.493 182.873 279.289 184.07C279.09 185.254 278.891 186.437 278.686 187.657C278 191 278 191 276 197C270.39 197 264.78 197 259 197C259.663 187.696 261.206 178.654 262.906 169.5C263.194 167.931 263.482 166.362 263.769 164.793C264.368 161.528 264.97 158.264 265.575 155C266.35 150.817 267.118 146.633 267.885 142.448C268.477 139.219 269.071 135.99 269.666 132.761C269.95 131.218 270.234 129.674 270.517 128.13C270.912 125.981 271.31 123.832 271.709 121.684C271.935 120.462 272.16 119.241 272.393 117.982C273 115 273 115 274 112Z" fill="white"/>
<path d="M331.797 14.6172C332.586 14.6449 333.376 14.6725 334.189 14.701C336.127 14.7728 338.064 14.8827 340 15.0001C342.22 25.5086 344.437 36.0178 346.65 46.5279C347.677 51.4079 348.706 56.2876 349.737 61.1668C350.731 65.8735 351.723 70.5809 352.713 75.2887C353.091 77.0867 353.471 78.8844 353.852 80.682C354.384 83.1954 354.912 85.7096 355.439 88.2239C355.598 88.9706 355.757 89.7172 355.921 90.4864C356.526 93.3858 357 96.0287 357 99.0001C350.73 99.0001 344.46 99.0001 338 99.0001C336 93.0001 336 93.0001 335 83.0001C324.11 83.0001 313.22 83.0001 302 83.0001C301.34 84.6501 300.68 86.3001 300 88.0001C298.069 91.7068 296.026 95.3439 294 99.0001C287.4 99.0001 280.8 99.0001 274 99.0001C277.403 91.8658 281.262 85.1109 285.359 78.3633C288.365 73.413 291.308 68.4259 294.25 63.4376C294.798 62.509 295.346 61.5805 295.911 60.6238C297.608 57.7495 299.304 54.8748 301 52.0001C302.135 50.0755 303.271 48.1511 304.406 46.2266C304.961 45.2852 305.515 44.3438 306.086 43.3738C307.187 41.5136 308.296 39.6582 309.414 37.8079C312.266 33.07 314.888 28.3764 317.076 23.2933C321.126 15.8131 323.369 14.0562 331.797 14.6172ZM326 38.0001C324.081 41.4988 322.165 44.9992 320.25 48.5001C319.711 49.4823 319.172 50.4646 318.617 51.4766C318.089 52.4434 317.56 53.4102 317.016 54.4063C316.534 55.2861 316.052 56.1659 315.556 57.0723C313.638 60.6808 311.827 64.3452 310 68.0001C317.26 68.0001 324.52 68.0001 332 68.0001C331.524 61.2412 330.697 54.6129 329.562 47.9376C329.44 47.1874 329.318 46.4372 329.192 45.6644C328.516 41.3953 328.516 41.3953 326 38.0001Z" fill="white"/>
<path d="M557.379 111.902C558.773 111.909 560.168 111.921 561.562 111.938C562.629 111.944 562.629 111.944 563.717 111.951C565.478 111.963 567.239 111.981 569 112C568.453 121.616 566.88 130.937 565.094 140.379C564.806 141.924 564.518 143.469 564.231 145.014C563.633 148.226 563.031 151.437 562.425 154.648C561.65 158.762 560.881 162.878 560.115 166.995C559.523 170.173 558.929 173.352 558.334 176.53C558.05 178.048 557.766 179.567 557.483 181.086C557.088 183.199 556.69 185.312 556.291 187.424C556.065 188.625 555.84 189.825 555.607 191.063C555 194 555 194 554 197C549.05 197 544.1 197 539 197C539 195.02 539 193.04 539 191C538.501 191.41 538.002 191.82 537.488 192.242C530.243 197.68 522.962 199.38 513.934 198.805C505.643 197.564 500.482 194.181 495.254 187.711C491.128 182.081 490.644 175.021 491.246 168.223C493.304 155.238 499.172 145.286 509.762 137.473C517.563 132.34 525.819 131.279 535 132C540.347 133.226 543.756 135.557 548 139C548.146 138.218 548.292 137.435 548.443 136.629C549.104 133.106 549.771 129.584 550.437 126.062C550.668 124.831 550.898 123.599 551.135 122.33C551.357 121.16 551.579 119.99 551.809 118.785C552.013 117.701 552.217 116.617 552.427 115.5C553.292 111.726 553.323 112.02 557.379 111.902ZM513.074 154.266C508.516 161.011 507.166 165.804 508 174C510.155 178.47 512.436 181.029 517 183C523.391 184.491 528.095 183.91 534 181C539.409 177.571 543.155 173.18 545 167C545.755 161.968 545.596 158.238 543.375 153.625C539.404 149.236 536.244 146.785 530.25 146.438C523.476 146.764 517.526 149.028 513.074 154.266Z" fill="white"/>
<path d="M499 15C504.28 15 509.56 15 515 15C514.296 23.8313 512.731 32.453 511.094 41.1484C510.806 42.6939 510.518 44.2395 510.231 45.7851C509.632 49.0045 509.03 52.2234 508.425 55.4419C507.652 59.5636 506.883 63.6861 506.115 67.809C505.381 71.7558 504.644 75.7021 503.906 79.6484C503.767 80.3977 503.627 81.147 503.483 81.919C503.087 84.0392 502.689 86.159 502.291 88.2788C502.065 89.4833 501.84 90.6878 501.607 91.9288C501.138 94.3001 500.586 96.655 500 99C495.05 99 490.1 99 485 99C485 97.02 485 95.04 485 93C484.402 93.5775 483.804 94.155 483.188 94.75C475.949 99.8597 467.813 102.171 459 101C452.042 99.5147 445.653 96.8004 441.492 90.8398C436.657 82.1232 436.134 73.3352 438.219 63.6914C441.026 54.0218 446.558 44.9944 455.453 39.918C464.168 35.3131 472.565 32.2751 482.441 34.5664C486.369 35.8021 490.03 37.0302 493 40C493 40.66 493 41.32 493 42C493.66 42 494.32 42 495 42C495.037 41.3916 495.075 40.7831 495.113 40.1562C495.754 31.6096 497.348 23.4023 499 15ZM457.5 57.625C454.106 62.74 452.209 68.9908 453.418 75.1172C455.216 79.747 457.956 82.8646 462.25 85.25C469.476 87.2207 474.29 86.003 480.734 82.4844C486.149 78.9366 488.989 74.139 491 68C491.756 62.6684 490.984 58.5271 488 54C483.42 49.7638 479.649 48.5646 473.539 48.6641C467.128 49.5123 461.655 52.7117 457.5 57.625Z" fill="white"/>
<path d="M721.379 14.9023C722.773 14.909 724.168 14.921 725.563 14.9375C726.629 14.9443 726.629 14.9443 727.717 14.9512C729.478 14.963 731.239 14.9809 733 15C732.413 24.2306 730.804 33.2105 729.094 42.2812C728.806 43.8277 728.518 45.3742 728.231 46.9208C727.632 50.1385 727.03 53.3556 726.425 56.5723C725.65 60.6949 724.882 64.8187 724.115 68.9429C723.523 72.1259 722.929 75.3085 722.334 78.491C722.05 80.0123 721.766 81.5338 721.483 83.0553C721.088 85.1734 720.69 87.2909 720.291 89.4082C720.065 90.6119 719.84 91.8156 719.607 93.0558C719 96 719 96 718 99C713.05 99 708.1 99 703 99C703 97.02 703 95.04 703 93C702.515 93.4099 702.031 93.8198 701.531 94.2422C693.899 100.377 686.743 101.968 677 101C670.047 99.5459 663.641 96.7838 659.492 90.8398C654.877 82.5197 653.954 73.8402 656.145 64.6094C660.403 51.6202 666.901 43.1931 679 37C687.196 33.2193 696.248 33.2195 704.781 35.8203C707.74 37.3933 709.73 39.5625 712 42C712.146 41.2176 712.292 40.4352 712.443 39.6292C713.104 36.1062 713.771 32.5843 714.438 29.0625C714.668 27.8308 714.898 26.5991 715.135 25.3301C715.357 24.1603 715.579 22.9904 715.809 21.7852C716.013 20.7011 716.217 19.6171 716.427 18.5002C717.292 14.7256 717.323 15.0196 721.379 14.9023ZM675.438 58.125C672.535 62.3514 671.826 65.7713 671.75 70.875C671.724 71.9037 671.698 72.9323 671.672 73.9922C672.05 77.4575 672.904 79.2353 675 82C679.003 85.0979 683.765 86.7462 688.859 86.4453C696.652 84.8242 702.631 80.5541 707 74C709.714 69.4362 709.679 64.1648 709 59C706.387 53.8669 703.461 50.8202 698 49C688.941 47.7032 681.042 50.8577 675.438 58.125Z" fill="white"/>
<path d="M465 135C466.901 136.558 468.383 138.13 470 140C470.66 138.02 471.32 136.04 472 134C476.95 134 481.9 134 487 134C486.4 141.675 485.387 149.124 483.969 156.687C483.773 157.752 483.577 158.817 483.375 159.915C482.964 162.143 482.55 164.372 482.134 166.6C481.497 170.018 480.867 173.436 480.238 176.855C479.836 179.029 479.434 181.202 479.031 183.375C478.843 184.397 478.654 185.419 478.46 186.471C478.194 187.889 478.194 187.889 477.924 189.336C477.692 190.582 477.692 190.582 477.455 191.853C477 194 477 194 476 197C470.72 197 465.44 197 460 197C460 195.02 460 193.04 460 191C459.319 191.598 458.639 192.196 457.937 192.812C451.026 197.959 443.976 199.422 435.453 198.82C427.636 197.631 421.608 194.143 416.562 188.062C411.715 178.561 411.891 168.757 414.961 158.699C419.56 146.752 426.782 139.677 438.133 134.164C446.512 130.762 457.009 130.372 465 135ZM434.687 154.25C430.747 159.31 428.628 164.145 429.062 170.625C429.76 174.885 431.06 177.75 434 181C438.771 183.7 442.556 184.657 448 184C455.12 181.985 460.025 178.235 464 172C466.248 167.263 467.517 162.899 466.437 157.687C464.783 153.445 463.144 150.318 459.195 147.891C450.237 144.256 440.989 147.5 434.687 154.25Z" fill="white"/>
<path d="M757.25 137.125C763.34 143.492 766.132 150.135 766.188 158.875C766.202 159.883 766.216 160.891 766.231 161.93C766 165 766 165 764 171C747.5 171 731 171 714 171C716.732 178.753 716.732 178.753 722 183C727.521 184.84 732.124 184.696 737.313 182.187C739.377 181.095 740.818 180.209 742.359 178.445C744.4 176.648 745.332 176.647 748.012 176.707C748.769 176.717 749.526 176.726 750.307 176.736C751.092 176.761 751.878 176.787 752.688 176.812C753.884 176.833 753.884 176.833 755.104 176.853C757.069 176.889 759.035 176.943 761 177C756.695 186.359 748.43 192.884 739.063 196.812C730.286 199.732 720.933 199.966 712.547 195.773C706.276 191.891 702.486 187.608 699.688 180.812C697.563 169.032 699.456 159.413 705.75 149.25C717.332 133.076 739.779 125.702 757.25 137.125ZM721.5 151.5C718.996 153.766 718.089 154.734 717 158C728.22 158 739.44 158 751 158C749.256 150.759 749.256 150.759 744 147C735.256 143.57 728.542 145.587 721.5 151.5Z" fill="white"/>
<path d="M397 136C403.134 141.535 406.913 146.856 407.75 155.187C407.848 156.047 407.946 156.907 408.047 157.793C407.982 162.247 406.874 166.632 406 171C389.5 171 373 171 356 171C357.665 180.548 357.665 180.548 361.5 182.562C362.325 182.707 363.15 182.851 364 183C365.485 183.495 365.485 183.495 367 184C373.363 184.539 377.649 183.547 383 180C383.673 179.23 383.673 179.23 384.359 178.445C386.4 176.648 387.332 176.647 390.012 176.707C390.769 176.717 391.526 176.726 392.307 176.736C393.092 176.761 393.878 176.787 394.687 176.812C395.883 176.833 395.883 176.833 397.103 176.853C399.069 176.889 401.035 176.943 403 177C397.839 186.604 390.395 193.302 380 197C370.667 199.402 362.081 199.73 353.312 195.375C347.156 191.465 342.815 186.054 341 179C339.827 167.417 340.966 157.855 348.019 148.25C359.779 134.41 379.891 124.87 397 136ZM364.125 149.812C361.448 152.347 361.448 152.347 359 158C369.89 158 380.78 158 392 158C390.963 151.778 390.654 150.723 386 147C378.124 143.624 371.162 145.376 364.125 149.812Z" fill="white"/>
<path d="M611.375 39.75C616.026 43.5276 618.876 48.0559 620 54C620.929 66.8089 619.316 76.9672 610.836 87.0039C602.522 96.043 592.62 100.416 580.312 101.25C571.42 101.046 564.264 98.5791 557.883 92.289C552.447 85.6801 551.332 78.6551 551.609 70.25C552.518 62.6907 555.37 56.0329 560 50C560.681 49.0306 561.361 48.0612 562.062 47.0625C574.001 33.2318 596.189 29.2125 611.375 39.75ZM572 58C568.504 63.5516 567.255 68.5054 568 75C569.717 79.6999 571.866 82.2096 576 85C582.124 87.0415 587.102 86.1321 592.785 83.4023C597.437 80.457 600.615 76.288 603.437 71.625C604.668 65.8813 604.95 60.8653 602.25 55.5625C598.466 51.2529 595.586 49.1989 589.75 48.75C582.496 49.2336 576.74 52.6027 572 58Z" fill="white"/>
<path d="M685 135C689.011 138.298 690.962 140.903 692 146C692.892 155.625 690.823 165.026 689.064 174.438C688.557 177.152 688.066 179.869 687.576 182.586C687.261 184.31 686.946 186.034 686.629 187.758C686.481 188.571 686.333 189.385 686.181 190.223C685.117 195.883 685.117 195.883 684 197C681.47 197.073 678.967 197.092 676.438 197.063C675.371 197.056 675.371 197.056 674.283 197.049C672.522 197.037 670.761 197.019 669 197C669.318 189.31 670.531 182.026 672.062 174.5C674.596 163.293 674.596 163.293 674 152C672.028 149.394 670.859 148.18 667.633 147.504C662.419 147.626 658.338 147.799 654 151C650.645 156.071 649.15 160.506 648.113 166.453C647.966 167.235 647.819 168.017 647.667 168.823C647.203 171.297 646.757 173.773 646.312 176.25C645.853 178.741 645.39 181.23 644.926 183.72C644.64 185.263 644.357 186.807 644.078 188.351C643.537 191.32 642.956 194.132 642 197C636.72 197 631.44 197 626 197C628.515 182.131 631.089 167.276 633.852 152.452C634.117 151.026 634.382 149.601 634.645 148.175C635.015 146.175 635.39 144.175 635.766 142.176C636.087 140.457 636.087 140.457 636.415 138.704C637 136 637 136 638 134C642.95 134 647.9 134 653 134C653 135.32 653 136.64 653 138C653.531 137.651 654.062 137.301 654.609 136.941C655.316 136.486 656.022 136.031 656.75 135.563C657.446 135.11 658.142 134.658 658.859 134.191C666.447 129.968 677.692 130.585 685 135Z" fill="white"/>
<path d="M423 37C426.867 40.1975 428.95 44.1301 430 49C430.385 55.2691 429.656 61.1904 428.504 67.3398C428.274 68.6121 428.274 68.6121 428.04 69.9101C427.719 71.6846 427.393 73.4585 427.064 75.2317C426.56 77.9531 426.067 80.6765 425.576 83.4004C425.261 85.1303 424.945 86.8602 424.629 88.5898C424.481 89.4044 424.333 90.2189 424.181 91.0581C423.117 96.7665 423.117 96.7665 422 99C417.05 99 412.1 99 407 99C407.477 90.1732 408.867 81.7508 410.628 73.0952C413.007 62.123 413.007 62.123 410 51.875C406.236 49.5227 403.271 49.2365 399 50C394.233 51.7417 391.868 53.867 389 58C387.829 61.1625 387.829 61.1625 387.062 64.75C386.906 65.4145 386.749 66.079 386.587 66.7637C384.123 77.4487 382.091 88.2374 380 99C374.72 99 369.44 99 364 99C366.245 85.0257 368.668 71.0868 371.212 57.1641C371.53 55.4264 371.846 53.6884 372.16 51.9501C372.607 49.4881 373.058 47.0272 373.512 44.5664C373.647 43.8164 373.782 43.0665 373.922 42.2937C374.885 37.1146 374.885 37.1146 376 36C378.353 35.9273 380.708 35.9163 383.062 35.9375C384.353 35.9465 385.643 35.9555 386.973 35.9648C387.972 35.9764 388.971 35.988 390 36C390.33 37.32 390.66 38.64 391 40C391.603 39.6507 392.207 39.3013 392.828 38.9414C393.627 38.4864 394.427 38.0313 395.25 37.5625C396.039 37.11 396.828 36.6576 397.641 36.1914C405.402 32.272 415.392 32.9855 423 37Z" fill="white"/>
<path d="M814 135C818.51 139.02 818.51 139.02 820 142C820.137 145.337 820.043 148.659 820 152C815.05 151.67 810.1 151.34 805 151C804.67 149.35 804.34 147.7 804 146C798.36 145.473 798.36 145.473 793.438 147.75C791.782 149.841 791.782 149.841 792.164 152.016C792.833 154.118 792.833 154.118 794.715 155.125C795.448 155.414 796.182 155.703 796.938 156C797.746 156.333 798.554 156.665 799.387 157.008C801.131 157.67 802.884 158.311 804.645 158.93C810.421 161.025 813.802 162.635 817 168C818.655 174.31 817.943 179.176 815 185C810.337 192.181 803.98 196.449 795.711 198.594C788.674 199.688 781.964 198.482 775.625 195.313C772.524 192.581 770.22 189.99 769 186C769 183.36 769 180.72 769 178C774.28 178 779.56 178 785 178C785.66 179.65 786.32 181.3 787 183C790.644 184.988 792.302 185.198 796.312 184.063C799.371 182.165 799.371 182.165 799.875 178.313C799.916 177.219 799.957 176.126 800 175C795.661 172.75 791.386 170.728 786.812 169C781.598 166.958 778.146 164.719 775 160C774.001 153.488 774.534 148.144 778.457 142.781C787.403 132.453 801.469 127.732 814 135Z" fill="white"/>
<path d="M583 112C588.28 112 593.56 112 599 112C597.599 122.277 595.894 132.45 593.996 142.645C593.71 144.192 593.424 145.739 593.137 147.286C592.544 150.494 591.947 153.701 591.35 156.908C590.583 161.026 589.822 165.144 589.063 169.263C588.477 172.441 587.887 175.62 587.295 178.798C587.013 180.318 586.732 181.838 586.452 183.358C586.064 185.467 585.67 187.575 585.275 189.683C585.052 190.882 584.83 192.081 584.6 193.316C584 196 584 196 583 197C580.47 197.073 577.967 197.092 575.438 197.062C574.727 197.058 574.016 197.053 573.283 197.049C571.522 197.037 569.761 197.019 568 197C568.586 187.78 570.195 178.813 571.906 169.754C572.194 168.21 572.482 166.666 572.769 165.122C573.368 161.908 573.97 158.695 574.575 155.483C575.349 151.369 576.118 147.254 576.885 143.139C577.619 139.198 578.356 135.257 579.094 131.316C579.234 130.569 579.373 129.821 579.517 129.05C579.913 126.935 580.311 124.82 580.709 122.705C581.048 120.903 581.048 120.903 581.393 119.064C581.862 116.696 582.414 114.343 583 112Z" fill="white"/>
<path d="M557 34C556.858 35.7295 556.711 37.4586 556.562 39.1875C556.481 40.1504 556.4 41.1134 556.316 42.1055C556.023 44.7865 555.573 47.3663 555 50C553.788 50.2204 553.788 50.2204 552.551 50.4453C544.655 51.8989 544.655 51.8989 538.868 57.1038C535.052 65.4364 533.95 75.1159 532.375 84.0625C531.948 86.4705 531.518 88.8781 531.086 91.2852C530.901 92.3358 530.716 93.3865 530.525 94.469C530 97 530 97 529 99C523.72 99 518.44 99 513 99C514.415 91.2284 515.831 83.4571 517.251 75.6864C517.91 72.0781 518.568 68.4698 519.225 64.8611C519.858 61.3789 520.494 57.8971 521.131 54.4156C521.492 52.4399 521.851 50.4639 522.21 48.4878C522.54 46.6863 522.54 46.6863 522.877 44.8484C523.07 43.7892 523.263 42.7299 523.462 41.6386C524 39 524 39 525 36C529.95 36 534.9 36 540 36C540 37.65 540 39.3 540 41C540.846 40.2163 541.691 39.4325 542.562 38.625C546.948 34.9654 551.333 34 557 34Z" fill="white"/>
<path d="M608 134C613.28 134 618.56 134 624 134C623.353 141.637 622.165 149.048 620.715 156.57C620.494 157.733 620.274 158.895 620.047 160.092C619.348 163.771 618.643 167.448 617.938 171.125C617.46 173.633 616.983 176.141 616.506 178.648C615.342 184.766 614.172 190.884 613 197C607.72 197 602.44 197 597 197C597.705 189.682 598.926 182.531 600.285 175.309C600.506 174.123 600.726 172.937 600.953 171.715C601.653 167.955 602.358 164.196 603.062 160.438C603.54 157.877 604.017 155.316 604.494 152.756C605.659 146.503 606.829 140.251 608 134Z" fill="white"/>
<path d="M636 36C641.28 36 646.56 36 652 36C650.777 42.8835 649.55 49.7662 648.32 56.6482C647.902 58.9842 647.486 61.3205 647.072 63.657C642.828 87.5513 642.828 87.5513 640 99C634.72 99 629.44 99 624 99C626.515 84.1315 629.089 69.2764 631.852 54.4517C632.117 53.0262 632.382 51.6006 632.645 50.1748C633.015 48.1745 633.39 46.1751 633.766 44.1758C633.98 43.0302 634.194 41.8846 634.415 40.7043C635 38 635 38 636 36Z" fill="white"/>
<path d="M105 74C105.66 74 106.32 74 107 74C108.144 80.477 109.283 86.955 110.418 93.4336C110.805 95.6376 111.193 97.8414 111.582 100.045C112.141 103.212 112.696 106.379 113.25 109.547C113.425 110.532 113.6 111.518 113.78 112.533C113.94 113.454 114.101 114.375 114.266 115.323C114.479 116.536 114.479 116.536 114.696 117.773C115 120 115 120 115 124C102.79 124 90.58 124 78 124C82.7199 114.56 87.3747 105.305 92.625 96.1875C93.7014 94.3065 94.7769 92.425 95.8516 90.543C96.3675 89.6398 96.8835 88.7367 97.415 87.8062C99.9976 83.2337 102.502 78.6193 105 74Z" fill="white"/>
<path d="M612 112C617.28 112 622.56 112 628 112C627.125 121.5 627.125 121.5 626 126C620.72 126 615.44 126 610 126C610.66 121.38 611.32 116.76 612 112Z" fill="white"/>
<path d="M643.379 14.9023C644.773 14.909 646.168 14.921 647.562 14.9375C648.273 14.942 648.984 14.9465 649.717 14.9512C651.478 14.963 653.239 14.9809 655 15C654.859 16.7712 654.712 18.542 654.562 20.3125C654.481 21.2986 654.4 22.2848 654.316 23.3008C654 26 654 26 653 29C647.72 29 642.44 29 637 29C639.035 15.0279 639.035 15.0279 643.379 14.9023Z" fill="white"/>
</g>
<defs>
<clipPath id="clip0_2425_10106">
<rect width="820" height="213" fill="white"/>
</clipPath>
</defs>
</svg>
