<svg width="3200" height="1200" viewBox="0 0 3200 1200" fill="none" xmlns="http://www.w3.org/2000/svg">
<g clip-path="url(#clip0_2425_10193)">
<path d="M0 455C38.28 455 76.56 455 116 455C116 457.64 116 460.28 116 463C132.5 463 149 463 166 463C166 465.64 166 468.28 166 471C166.722 470.995 167.444 470.99 168.187 470.984C171.437 470.963 174.687 470.95 177.938 470.938C179.074 470.929 180.21 470.921 181.381 470.912C182.46 470.909 183.54 470.906 184.652 470.902C186.153 470.894 186.153 470.894 187.683 470.886C190 471 190 471 191 472C191.141 474.671 191.042 477.324 191 480C193.64 480 196.28 480 199 480C199 482.64 199 485.28 199 488C201.64 488 204.28 488 207 488C207 490.64 207 493.28 207 496C209.64 496 212.28 496 215 496C215 515.47 215 534.94 215 555C212.36 555 209.72 555 207 555C207 560.28 207 565.56 207 571C204.36 571 201.72 571 199 571C199 573.97 199 576.94 199 580C196.36 580 193.72 580 191 580C191 582.64 191 585.28 191 588C185.39 588 179.78 588 174 588C174 590.64 174 593.28 174 596C165.75 596 157.5 596 149 596C149 598.64 149 601.28 149 604C154.61 604 160.22 604 166 604C166 606.64 166 609.28 166 612C174.25 612 182.5 612 191 612C191 614.64 191 617.28 191 620C196.28 620 201.56 620 207 620C207 622.97 207 625.94 207 629C209.64 629 212.28 629 215 629C215 634.28 215 639.56 215 645C217.97 645 220.94 645 224 645C224 650.61 224 656.22 224 662C226.64 662 229.28 662 232 662C232 673.22 232 684.44 232 696C229.36 696 226.72 696 224 696C224 703.92 224 711.84 224 720C221.03 720 218.06 720 215 720C215 722.97 215 725.94 215 729C212.36 729 209.72 729 207 729C207 731.64 207 734.28 207 737C204.36 737 201.72 737 199 737C199 739.64 199 742.28 199 745C196.36 745 193.72 745 191 745C191 747.64 191 750.28 191 753C182.75 753 174.5 753 166 753C166 755.97 166 758.94 166 762C116.83 762 67.66 762 17 762C17 764.64 17 767.28 17 770C11.39 770 5.78 770 0 770C0 767.03 0 764.06 0 761C2.64 761 5.28 761 8 761C8 758.36 8 755.72 8 753C10.64 753 13.28 753 16 753C16 741.78 16 730.56 16 719C18.64 719 21.28 719 24 719C24 648.38 24 577.76 24 505C21.36 505 18.72 505 16 505C16 494.11 16 483.22 16 472C13.36 472 10.72 472 8 472C8 469.36 8 466.72 8 464C5.36 464 2.72 464 0 464C0 461.03 0 458.06 0 455ZM91 472C91 474.97 91 477.94 91 481C88.36 481 85.72 481 83 481C83 518.62 83 556.24 83 595C85.64 595 88.28 595 91 595C91 597.97 91 600.94 91 604C98.92 604 106.84 604 115 604C115 601.03 115 598.06 115 595C120.61 595 126.22 595 132 595C132 592.36 132 589.72 132 587C134.64 587 137.28 587 140 587C140 581.72 140 576.44 140 571C142.64 571 145.28 571 148 571C148 546.58 148 522.16 148 497C145.36 497 142.72 497 140 497C140 494.36 140 491.72 140 489C137.36 489 134.72 489 132 489C132 486.36 132 483.72 132 481C129.36 481 126.72 481 124 481C124 478.03 124 475.06 124 472C113.11 472 102.22 472 91 472ZM91 613C91 615.64 91 618.28 91 621C88.36 621 85.72 621 83 621C83 664.56 83 708.12 83 753C96.53 753 110.06 753 124 753C124 750.03 124 747.06 124 744C129.28 744 134.56 744 140 744C140 741.36 140 738.72 140 736C142.64 736 145.28 736 148 736C148.33 730.72 148.66 725.44 149 720C151.64 719.67 154.28 719.34 157 719C157 694.91 157 670.82 157 646C154.03 646 151.06 646 148 646C148 643.36 148 640.72 148 638C145.36 638 142.72 638 140 638C140 635.03 140 632.06 140 629C137.36 629 134.72 629 132 629C132 626.36 132 623.72 132 621C126.39 621 120.78 621 115 621C115 618.36 115 615.72 115 613C107.08 613 99.16 613 91 613Z" fill="#FEFEFE"/>
<path d="M3175 430C3177.97 430 3180.94 430 3184 430C3184 530.98 3184 631.96 3184 736C3186.64 736 3189.28 736 3192 736C3192 738.64 3192 741.28 3192 744C3194.64 744 3197.28 744 3200 744C3200 749.94 3200 755.88 3200 762C3197.03 762 3194.06 762 3191 762C3191 759.03 3191 756.06 3191 753C3188.69 753 3186.38 753 3184 753C3184 755.97 3184 758.94 3184 762C3170.47 762 3156.94 762 3143 762C3143 764.64 3143 767.28 3143 770C3134.42 770 3125.84 770 3117 770C3117 761.75 3117 753.5 3117 745C3114.36 745 3111.72 745 3109 745C3109 747.64 3109 750.28 3109 753C3103.72 753 3098.44 753 3093 753C3093 755.97 3093 758.94 3093 762C3087.39 762 3081.78 762 3076 762C3076 764.64 3076 767.28 3076 770C3059.5 770 3043 770 3026 770C3026 767.36 3026 764.72 3026 762C3023.36 762 3020.72 762 3018 762C3018 759.03 3018 756.06 3018 753C3012.39 753 3006.78 753 3001 753C3001 747.72 3001 742.44 3001 737C2998.36 737 2995.72 737 2993 737C2993 731.39 2993 725.78 2993 720C2990.36 720 2987.72 720 2985 720C2985 712.08 2985 704.16 2985 696C2982.36 696 2979.72 696 2977 696C2976 695 2976 695 2975.88 692.678C2975.88 691.65 2975.88 690.622 2975.89 689.562C2975.89 688.401 2975.89 687.24 2975.89 686.044C2975.89 684.78 2975.9 683.517 2975.9 682.215C2975.9 680.929 2975.91 679.643 2975.91 678.318C2975.91 674.894 2975.92 671.469 2975.93 668.045C2975.94 664.553 2975.95 661.06 2975.95 657.568C2975.96 650.712 2975.98 643.856 2976 637C2978.97 637 2981.94 637 2985 637C2985 626.11 2985 615.22 2985 604C2987.64 604 2990.28 604 2993 604C2993 598.39 2993 592.78 2993 587C2995.64 587 2998.28 587 3001 587C3001 581.72 3001 576.44 3001 571C3003.64 571 3006.28 571 3009 571C3008.98 569.701 3008.96 568.401 3008.94 567.062C3008.92 565.708 3008.93 564.352 3009 563C3010 562 3010 562 3011.85 561.902C3013.9 561.935 3015.95 561.967 3018 562C3018 559.36 3018 556.72 3018 554C3023.28 554 3028.56 554 3034 554C3034 551.36 3034 548.72 3034 546C3036.64 546 3039.28 546 3042 546C3042 543.36 3042 540.72 3042 538C3053.22 538 3064.44 538 3076 538C3076 535.03 3076 532.06 3076 529C3081.61 529 3087.22 529 3093 529C3093 531.97 3093 534.94 3093 538C3100.92 538 3108.84 538 3117 538C3117 516.22 3117 494.44 3117 472C3114.36 472 3111.72 472 3109 472C3109 469.36 3109 466.72 3109 464C3106.03 464 3103.06 464 3100 464C3100 458.39 3100 452.78 3100 447C3113.86 447 3127.72 447 3142 447C3142 444.03 3142 441.06 3142 438C3152.89 438 3163.78 438 3175 438C3175 435.36 3175 432.72 3175 430ZM3068 547C3068 549.64 3068 552.28 3068 555C3065.36 555 3062.72 555 3060 555C3060 560.28 3060 565.56 3060 571C3057.36 571 3054.72 571 3052 571C3052 579.25 3052 587.5 3052 596C3049.03 596 3046.06 596 3043 596C3043 628.67 3043 661.34 3043 695C3045.97 695 3048.94 695 3052 695C3052 700.28 3052 705.56 3052 711C3054.64 711 3057.28 711 3060 711C3060 716.61 3060 722.22 3060 728C3065.28 728 3070.56 728 3076 728C3076 730.64 3076 733.28 3076 736C3089.53 736 3103.06 736 3117 736C3117 676.27 3117 616.54 3117 555C3111.39 555 3105.78 555 3100 555C3100 552.36 3100 549.72 3100 547C3089.44 547 3078.88 547 3068 547Z" fill="#FEFEFE"/>
<path d="M2571 430C2573.97 430 2576.94 430 2580 430C2580 530.98 2580 631.96 2580 736C2582.97 736 2585.94 736 2589 736C2589 738.64 2589 741.28 2589 744C2591.64 744 2594.28 744 2597 744C2597 749.94 2597 755.88 2597 762C2594.03 762 2591.06 762 2588 762C2588 759.03 2588 756.06 2588 753C2585.36 753 2582.72 753 2580 753C2580 755.97 2580 758.94 2580 762C2566.47 762 2552.94 762 2539 762C2539 764.64 2539 767.28 2539 770C2530.42 770 2521.84 770 2513 770C2513 764.39 2513 758.78 2513 753C2515.97 753 2518.94 753 2522 753C2522 750.36 2522 747.72 2522 745C2516.72 745 2511.44 745 2506 745C2506 747.64 2506 750.28 2506 753C2503.36 753 2500.72 753 2498 753C2498.02 754.299 2498.04 755.599 2498.06 756.938C2498.08 758.292 2498.07 759.648 2498 761C2497 762 2497 762 2493.4 762.098C2491.91 762.091 2490.43 762.079 2488.94 762.062C2488.18 762.058 2487.42 762.053 2486.64 762.049C2484.76 762.037 2482.88 762.019 2481 762C2481 764.64 2481 767.28 2481 770C2461.53 770 2442.06 770 2422 770C2422 767.36 2422 764.72 2422 762C2419.36 762 2416.72 762 2414 762C2414 759.03 2414 756.06 2414 753C2411.36 753 2408.72 753 2406 753C2406 750.36 2406 747.72 2406 745C2403.03 745 2400.06 745 2397 745C2397 742.36 2397 739.72 2397 737C2394.36 737 2391.72 737 2389 737C2389 728.75 2389 720.5 2389 712C2386.36 712 2383.72 712 2381 712C2381 679 2381 646 2381 612C2383.64 612 2386.28 612 2389 612C2389 603.75 2389 595.5 2389 587C2391.64 587 2394.28 587 2397 587C2397 584.36 2397 581.72 2397 579C2399.97 579 2402.94 579 2406 579C2406 576.36 2406 573.72 2406 571C2408.64 571 2411.28 571 2414 571C2414 568.03 2414 565.06 2414 562C2416.64 562 2419.28 562 2422 562C2422 559.36 2422 556.72 2422 554C2424.97 554 2427.94 554 2431 554C2431 551.36 2431 548.72 2431 546C2436.28 546 2441.56 546 2447 546C2447 543.36 2447 540.72 2447 538C2457.89 538 2468.78 538 2480 538C2480 535.03 2480 532.06 2480 529C2485.94 529 2491.88 529 2498 529C2498 531.97 2498 534.94 2498 538C2502.95 538 2507.9 538 2513 538C2513 513.58 2513 489.16 2513 464C2507.72 464 2502.44 464 2497 464C2497 458.39 2497 452.78 2497 447C2513.17 447 2529.34 447 2546 447C2546 444.03 2546 441.06 2546 438C2554.25 438 2562.5 438 2571 438C2571 435.36 2571 432.72 2571 430ZM2473 547C2473 549.64 2473 552.28 2473 555C2470.36 555 2467.72 555 2465 555C2465 557.64 2465 560.28 2465 563C2462.03 563 2459.06 563 2456 563C2456 565.64 2456 568.28 2456 571C2453.36 571 2450.72 571 2448 571C2448 582.22 2448 593.44 2448 605C2445.36 605 2442.72 605 2440 605C2440 629.09 2440 653.18 2440 678C2442.64 678 2445.28 678 2448 678C2448 688.89 2448 699.78 2448 711C2450.64 711 2453.28 711 2456 711C2456 713.64 2456 716.28 2456 719C2458.64 719.33 2461.28 719.66 2464 720C2464.33 722.64 2464.66 725.28 2465 728C2467.64 728 2470.28 728 2473 728C2473 730.64 2473 733.28 2473 736C2486.2 736 2499.4 736 2513 736C2513 676.27 2513 616.54 2513 555C2510.36 555 2507.72 555 2505 555C2505 552.36 2505 549.72 2505 547C2494.44 547 2483.88 547 2473 547Z" fill="#FEFEFE"/>
<path d="M289 538C300.22 538 311.44 538 323 538C323 600.7 323 663.4 323 728C325.64 728 328.28 728 331 728C331 730.64 331 733.28 331 736C336.61 736 342.22 736 348 736C348 738.64 348 741.28 348 744C352.95 744 357.9 744 363 744C363 741.36 363 738.72 363 736C368.61 736 374.22 736 380 736C380 678.91 380 621.82 380 563C374.39 563 368.78 563 363 563C363 557.39 363 551.78 363 546C366.3 546 369.6 546 373 546C373 548.64 373 551.28 373 554C375.31 554 377.62 554 380 554C380 551.36 380 548.72 380 546C390.89 546 401.78 546 413 546C413 543.36 413 540.72 413 538C424.22 538 435.44 538 447 538C447 603.34 447 668.68 447 736C449.64 736 452.28 736 455 736C455 738.64 455 741.28 455 744C457.64 744 460.28 744 463 744C463 746.97 463 749.94 463 753C455.08 753 447.16 753 439 753C439 755.97 439 758.94 439 762C428.11 762 417.22 762 406 762C406 764.64 406 767.28 406 770C397.42 770 388.84 770 380 770C380 764.39 380 758.78 380 753C382.64 753 385.28 753 388 753C388 750.36 388 747.72 388 745C383.05 745 378.1 745 373 745C373 747.64 373 750.28 373 753C370.03 753 367.06 753 364 753C364 755.97 364 758.94 364 762C358.72 762 353.44 762 348 762C348 764.64 348 767.28 348 770C328.53 770 309.06 770 289 770C289 767.36 289 764.72 289 762C286.36 762 283.72 762 281 762C281 759.03 281 756.06 281 753C278.03 753 275.06 753 272 753C272 750.36 272 747.72 272 745C269.36 745 266.72 745 264 745C264 736.75 264 728.5 264 720C261.36 720 258.72 720 256 720C256 668.19 256 616.38 256 563C250.39 563 244.78 563 239 563C239 557.39 239 551.78 239 546C255.5 546 272 546 289 546C289 543.36 289 540.72 289 538Z" fill="#FEFEFE"/>
<path d="M2191 538C2202.22 538 2213.44 538 2225 538C2225 543.28 2225 548.56 2225 554C2229.95 554 2234.9 554 2240 554C2240 551.36 2240 548.72 2240 546C2245.61 546 2251.22 546 2257 546C2257 543.36 2257 540.72 2257 538C2279.11 538 2301.22 538 2324 538C2324 540.64 2324 543.28 2324 546C2326.64 546 2329.28 546 2332 546C2332 548.64 2332 551.28 2332 554C2334.64 554 2337.28 554 2340 554C2340 562.25 2340 570.5 2340 579C2342.97 579 2345.94 579 2349 579C2349 636.42 2349 693.84 2349 753C2351.64 753 2354.28 753 2357 753C2357 758.61 2357 764.22 2357 770C2354.03 770 2351.06 770 2348 770C2348 767.36 2348 764.72 2348 762C2326.55 762 2305.1 762 2283 762C2283 764.64 2283 767.28 2283 770C2279.7 770 2276.4 770 2273 770C2273 764.39 2273 758.78 2273 753C2275.97 753 2278.94 753 2282 753C2282 695.91 2282 638.82 2282 580C2279.03 580 2276.06 580 2273 580C2273 577.03 2273 574.06 2273 571C2270.36 571 2267.72 571 2265 571C2265 568.36 2265 565.72 2265 563C2254.44 563 2243.88 563 2233 563C2233 565.64 2233 568.28 2233 571C2230.36 571 2227.72 571 2225 571C2225 631.06 2225 691.12 2225 753C2227.64 753 2230.28 753 2233 753C2233 758.61 2233 764.22 2233 770C2230.03 770 2227.06 770 2224 770C2224 767.36 2224 764.72 2224 762C2202.55 762 2181.1 762 2159 762C2159 764.64 2159 767.28 2159 770C2155.7 770 2152.4 770 2149 770C2149 764.39 2149 758.78 2149 753C2151.97 753 2154.94 753 2158 753C2158 690.3 2158 627.6 2158 563C2152.39 563 2146.78 563 2141 563C2141 557.39 2141 551.78 2141 546C2143.97 546 2146.94 546 2150 546C2150 548.64 2150 551.28 2150 554C2152.64 554 2155.28 554 2158 554C2158 551.36 2158 548.72 2158 546C2168.89 546 2179.78 546 2191 546C2191 543.36 2191 540.72 2191 538Z" fill="#FEFEFE"/>
<path d="M810 538C821.22 538 832.44 538 844 538C844 545.92 844 553.84 844 562C846.31 562 848.62 562 851 562C851 559.36 851 556.72 851 554C853.97 554 856.94 554 860 554C860 551.36 860 548.72 860 546C865.28 546 870.56 546 876 546C876 543.36 876 540.72 876 538C898.11 538 920.22 538 943 538C943 540.64 943 543.28 943 546C945.64 546 948.28 546 951 546C951 548.64 951 551.28 951 554C953.97 554 956.94 554 960 554C960 559.61 960 565.22 960 571C962.64 571 965.28 571 968 571C968 631.06 968 691.12 968 753C970.64 753 973.28 753 976 753C976 755.64 976 758.28 976 761C978.64 761 981.28 761 984 761C984 763.97 984 766.94 984 770C981.03 770 978.06 770 975 770C975 767.36 975 764.72 975 762C950.91 762 926.82 762 902 762C902 764.64 902 767.28 902 770C899.03 770 896.06 770 893 770C893 764.39 893 758.78 893 753C895.64 753 898.28 753 901 753C901 744.75 901 736.5 901 728C903.64 728 906.28 728 909 728C909 684.44 909 640.88 909 596C906.36 596 903.72 596 901 596C901 590.72 901 585.44 901 580C898.36 580 895.72 580 893 580C893 577.03 893 574.06 893 571C890.03 571 887.06 571 884 571C884 568.36 884 565.72 884 563C873.44 563 862.88 563 852 563C852 565.64 852 568.28 852 571C849.36 571 846.72 571 844 571C844 631.06 844 691.12 844 753C846.64 753 849.28 753 852 753C852 755.64 852 758.28 852 761C854.64 761 857.28 761 860 761C860 763.97 860 766.94 860 770C854.39 770 848.78 770 843 770C843 767.36 843 764.72 843 762C821.55 762 800.1 762 778 762C778 764.64 778 767.28 778 770C775.03 770 772.06 770 769 770C769 764.39 769 758.78 769 753C771.64 753 774.28 753 777 753C777 690.3 777 627.6 777 563C771.39 563 765.78 563 760 563C760 557.39 760 551.78 760 546C776.5 546 793 546 810 546C810 543.36 810 540.72 810 538Z" fill="#FEFEFE"/>
<path d="M1976 538C2006.36 538 2036.72 538 2068 538C2068 540.64 2068 543.28 2068 546C2073.28 546 2078.56 546 2084 546C2084 548.64 2084 551.28 2084 554C2086.64 554 2089.28 554 2092 554C2092 556.64 2092 559.28 2092 562C2094.97 562 2097.94 562 2101 562C2101 572.89 2101 583.78 2101 595C2103.64 595 2106.28 595 2109 595C2109 641.53 2109 688.06 2109 736C2111.64 736 2114.28 736 2117 736C2117 738.64 2117 741.28 2117 744C2122.61 744 2128.22 744 2134 744C2134 746.97 2134 749.94 2134 753C2131.36 753 2128.72 753 2126 753C2126.03 754.949 2126.03 754.949 2126.06 756.938C2126.08 758.292 2126.07 759.648 2126 761C2125 762 2125 762 2122.68 762.114C2121.68 762.108 2120.68 762.103 2119.65 762.098C2118.57 762.094 2117.49 762.091 2116.38 762.088C2115.24 762.08 2114.11 762.071 2112.94 762.062C2111.8 762.058 2110.66 762.053 2109.48 762.049C2106.65 762.037 2103.83 762.021 2101 762C2101 764.64 2101 767.28 2101 770C2086.81 770 2072.62 770 2058 770C2058 767.36 2058 764.72 2058 762C2055.36 762 2052.72 762 2050 762C2050 759.03 2050 756.06 2050 753C2047.36 753 2044.72 753 2042 753C2042 750.36 2042 747.72 2042 745C2039.69 745 2037.38 745 2035 745C2035 747.64 2035 750.28 2035 753C2032.03 753 2029.06 753 2026 753C2026 755.97 2026 758.94 2026 762C2020.72 762 2015.44 762 2010 762C2010 764.64 2010 767.28 2010 770C1993.17 770 1976.34 770 1959 770C1959 767.36 1959 764.72 1959 762C1953.72 762 1948.44 762 1943 762C1943 759.03 1943 756.06 1943 753C1940.03 753 1937.06 753 1934 753C1934 745.08 1934 737.16 1934 729C1931.36 729 1928.72 729 1926 729C1926 717.78 1926 706.56 1926 695C1928.64 695 1931.28 695 1934 695C1934 689.39 1934 683.78 1934 678C1936.97 678 1939.94 678 1943 678C1943 672.72 1943 667.44 1943 662C1945.64 662 1948.28 662 1951 662C1951 659.03 1951 656.06 1951 653C1956.61 653 1962.22 653 1968 653C1968 650.36 1968 647.72 1968 645C1975.92 645 1983.84 645 1992 645C1992 642.36 1992 639.72 1992 637C2008.5 637 2025 637 2042 637C2042 615.22 2042 593.44 2042 571C2039.36 571 2036.72 571 2034 571C2034 568.36 2034 565.72 2034 563C2031.03 563 2028.06 563 2025 563C2025 560.36 2025 557.72 2025 555C2019.72 555 2014.44 555 2009 555C2009 552.36 2009 549.72 2009 547C2003.72 547 1998.44 547 1993 547C1993 549.64 1993 552.28 1993 555C1984.75 555 1976.5 555 1968 555C1968 557.31 1968 559.62 1968 562C1973.61 562 1979.22 562 1985 562C1985 564.97 1985 567.94 1985 571C1987.64 571 1990.28 571 1993 571C1993 576.28 1993 581.56 1993 587C1995.64 587 1998.28 587 2001 587C2001 589.97 2001 592.94 2001 596C1998.36 596 1995.72 596 1993 596C1993 601.61 1993 607.22 1993 613C1987.72 613 1982.44 613 1977 613C1977 615.64 1977 618.28 1977 621C1968.42 621 1959.84 621 1951 621C1951 618.36 1951 615.72 1951 613C1948.36 613 1945.72 613 1943 613C1943 610.36 1943 607.72 1943 605C1941.05 605.031 1941.05 605.031 1939.06 605.062C1937.71 605.084 1936.35 605.071 1935 605C1934 604 1934 604 1933.89 600.857C1933.89 599.466 1933.89 598.075 1933.9 596.684C1933.9 595.953 1933.91 595.221 1933.91 594.468C1933.91 592.125 1933.92 589.781 1933.94 587.438C1933.94 585.852 1933.95 584.267 1933.95 582.682C1933.96 578.788 1933.98 574.894 1934 571C1936.97 571 1939.94 571 1943 571C1943 568.03 1943 565.06 1943 562C1945.64 562 1948.28 562 1951 562C1951 559.36 1951 556.72 1951 554C1953.64 554 1956.28 554 1959 554C1959 551.36 1959 548.72 1959 546C1964.61 546 1970.22 546 1976 546C1976 543.36 1976 540.72 1976 538ZM2010 646C2010 648.64 2010 651.28 2010 654C2007.03 654 2004.06 654 2001 654C2001 656.64 2001 659.28 2001 662C1998.36 662 1995.72 662 1993 662C1993 683.78 1993 705.56 1993 728C1995.64 728 1998.28 728 2001 728C2001 730.64 2001 733.28 2001 736C2006.61 736 2012.22 736 2018 736C2018 738.64 2018 741.28 2018 744C2020.31 744 2022.62 744 2025 744C2025 741.36 2025 738.72 2025 736C2030.61 736 2036.22 736 2042 736C2042 706.3 2042 676.6 2042 646C2031.44 646 2020.88 646 2010 646Z" fill="#FEFEFE"/>
<path d="M1645 455C1675.36 455 1705.72 455 1737 455C1737 457.64 1737 460.28 1737 463C1742.28 463 1747.56 463 1753 463C1753 485.11 1753 507.22 1753 530C1750.03 530 1747.06 530 1744 530C1744 524.72 1744 519.44 1744 514C1741.36 514 1738.72 514 1736 514C1736 511.03 1736 508.06 1736 505C1733.36 505 1730.72 505 1728 505C1728 499.72 1728 494.44 1728 489C1725.03 489 1722.06 489 1719 489C1719 486.36 1719 483.72 1719 481C1713.72 481 1708.44 481 1703 481C1703 478.03 1703 475.06 1703 472C1686.83 472 1670.66 472 1654 472C1654 477.61 1654 483.22 1654 489C1651.36 489 1648.72 489 1646 489C1646 502.2 1646 515.4 1646 529C1648.64 529 1651.28 529 1654 529C1654 534.61 1654 540.22 1654 546C1656.64 546 1659.28 546 1662 546C1662 548.64 1662 551.28 1662 554C1664.97 554 1667.94 554 1671 554C1671 556.64 1671 559.28 1671 562C1676.28 562 1681.56 562 1687 562C1687 564.97 1687 567.94 1687 571C1689.97 571 1692.94 571 1696 571C1696 573.64 1696 576.28 1696 579C1698.64 579 1701.28 579 1704 579C1704 581.64 1704 584.28 1704 587C1709.28 587 1714.56 587 1720 587C1720 589.64 1720 592.28 1720 595C1721.95 594.969 1721.95 594.969 1723.94 594.938C1725.29 594.916 1726.65 594.929 1728 595C1729 596 1729 596 1729.1 597.848C1729.07 599.898 1729.03 601.949 1729 604C1731.64 604 1734.28 604 1737 604C1737 606.64 1737 609.28 1737 612C1739.64 612 1742.28 612 1745 612C1745 614.64 1745 617.28 1745 620C1747.64 620 1750.28 620 1753 620C1753 622.97 1753 625.94 1753 629C1755.97 629 1758.94 629 1762 629C1762 634.28 1762 639.56 1762 645C1764.64 645 1767.28 645 1770 645C1770 667.11 1770 689.22 1770 712C1767.36 712 1764.72 712 1762 712C1762 717.61 1762 723.22 1762 729C1759.03 729 1756.06 729 1753 729C1753 734.28 1753 739.56 1753 745C1750.36 745 1747.72 745 1745 745C1745 747.64 1745 750.28 1745 753C1739.72 753 1734.44 753 1729 753C1729 755.64 1729 758.28 1729 761C1728 762 1728 762 1724.4 762.098C1722.91 762.091 1721.43 762.079 1719.94 762.062C1719.18 762.058 1718.42 762.053 1717.64 762.049C1715.76 762.037 1713.88 762.019 1712 762C1712 764.64 1712 767.28 1712 770C1681.64 770 1651.28 770 1620 770C1620 767.36 1620 764.72 1620 762C1611.75 762 1603.5 762 1595 762C1595 759.03 1595 756.06 1595 753C1592.36 753 1589.72 753 1587 753C1587 750.03 1587 747.06 1587 744C1589.64 744 1592.28 744 1595 744C1595 728.16 1595 712.32 1595 696C1592.36 696 1589.72 696 1587 696C1587 690.06 1587 684.12 1587 678C1589.97 678 1592.94 678 1596 678C1596 680.64 1596 683.28 1596 686C1597.3 685.979 1598.6 685.959 1599.94 685.938C1601.29 685.916 1602.65 685.929 1604 686C1605 687 1605 687 1605.1 690.598C1605.09 692.086 1605.08 693.574 1605.06 695.062C1605.06 695.821 1605.05 696.58 1605.05 697.361C1605.04 699.241 1605.02 701.12 1605 703C1607.64 703 1610.28 703 1613 703C1613 708.28 1613 713.56 1613 719C1615.64 719 1618.28 719 1621 719C1621 721.97 1621 724.94 1621 728C1623.64 728 1626.28 728 1629 728C1629 730.64 1629 733.28 1629 736C1631.97 736 1634.94 736 1638 736C1638 738.64 1638 741.28 1638 744C1640.64 744 1643.28 744 1646 744C1646 746.97 1646 749.94 1646 753C1651.28 753 1656.56 753 1662 753C1662 755.64 1662 758.28 1662 761C1669.92 761 1677.84 761 1686 761C1686 758.36 1686 755.72 1686 753C1691.61 753 1697.22 753 1703 753C1703 750.03 1703 747.06 1703 744C1705.64 744 1708.28 744 1711 744C1711 741.36 1711 738.72 1711 736C1713.64 736 1716.28 736 1719 736C1719 722.8 1719 709.6 1719 696C1716.36 696 1713.72 696 1711 696C1711 690.39 1711 684.78 1711 679C1708.36 679 1705.72 679 1703 679C1703 676.36 1703 673.72 1703 671C1700.36 671 1697.72 671 1695 671C1695 668.03 1695 665.06 1695 662C1692.03 662 1689.06 662 1686 662C1686 659.36 1686 656.72 1686 654C1683.36 654 1680.72 654 1678 654C1678 651.36 1678 648.72 1678 646C1672.72 646 1667.44 646 1662 646C1662 643.36 1662 640.72 1662 638C1659.03 638 1656.06 638 1653 638C1653 635.03 1653 632.06 1653 629C1650.36 629 1647.72 629 1645 629C1645 626.36 1645 623.72 1645 621C1642.36 621 1639.72 621 1637 621C1637 618.36 1637 615.72 1637 613C1631.39 613 1625.78 613 1620 613C1620 607.39 1620 601.78 1620 596C1617.36 596 1614.72 596 1612 596C1612 593.36 1612 590.72 1612 588C1609.36 588 1606.72 588 1604 588C1604 585.36 1604 582.72 1604 580C1601.03 580 1598.06 580 1595 580C1594.98 570.238 1594.96 560.477 1594.95 550.715C1594.94 546.183 1594.94 541.651 1594.92 537.119C1594.91 532.749 1594.91 528.379 1594.91 524.009C1594.9 522.337 1594.9 520.666 1594.89 518.995C1594.89 516.663 1594.89 514.331 1594.89 511.998C1594.88 511.301 1594.88 510.603 1594.88 509.884C1594.89 505.114 1594.89 505.114 1596 504C1598.64 504 1601.28 504 1604 504C1604 498.72 1604 493.44 1604 488C1606.64 488 1609.28 488 1612 488C1612 485.36 1612 482.72 1612 480C1614.64 480 1617.28 480 1620 480C1620 477.03 1620 474.06 1620 471C1622.97 471 1625.94 471 1629 471C1629 468.36 1629 465.72 1629 463C1634.28 463 1639.56 463 1645 463C1645 460.36 1645 457.72 1645 455Z" fill="#FEFEFE"/>
<path d="M2662 538C2692.36 538 2722.72 538 2754 538C2754 540.64 2754 543.28 2754 546C2759.28 546 2764.56 546 2770 546C2770 548.64 2770 551.28 2770 554C2772.97 554 2775.94 554 2779 554C2779 559.61 2779 565.22 2779 571C2781.64 571 2784.28 571 2787 571C2787 622.81 2787 674.62 2787 728C2789.64 728 2792.28 728 2795 728C2795 733.28 2795 738.56 2795 744C2800.61 744 2806.22 744 2812 744C2812 746.97 2812 749.94 2812 753C2809.36 753 2806.72 753 2804 753C2804.03 754.949 2804.03 754.949 2804.06 756.938C2804.08 758.292 2804.07 759.648 2804 761C2803 762 2803 762 2799.4 762.098C2797.91 762.091 2796.43 762.079 2794.94 762.062C2794.18 762.058 2793.42 762.053 2792.64 762.049C2790.76 762.037 2788.88 762.019 2787 762C2787 764.64 2787 767.28 2787 770C2773.14 770 2759.28 770 2745 770C2745 767.36 2745 764.72 2745 762C2742.36 762 2739.72 762 2737 762C2737 759.03 2737 756.06 2737 753C2734.03 753 2731.06 753 2728 753C2728 750.36 2728 747.72 2728 745C2725.69 745 2723.38 745 2721 745C2721 747.64 2721 750.28 2721 753C2715.39 753 2709.78 753 2704 753C2704 755.97 2704 758.94 2704 762C2701.36 762 2698.72 762 2696 762C2696 764.64 2696 767.28 2696 770C2679.5 770 2663 770 2646 770C2646 767.36 2646 764.72 2646 762C2640.39 762 2634.78 762 2629 762C2629 759.03 2629 756.06 2629 753C2626.36 753 2623.72 753 2621 753C2621 747.72 2621 742.44 2621 737C2618.03 737 2615.06 737 2612 737C2611.97 729.898 2611.96 722.795 2611.95 715.693C2611.94 713.274 2611.93 710.856 2611.92 708.438C2611.91 704.97 2611.91 701.503 2611.9 698.035C2611.9 696.947 2611.89 695.858 2611.89 694.737C2611.89 693.736 2611.89 692.735 2611.89 691.703C2611.88 690.817 2611.88 689.931 2611.88 689.018C2612 687 2612 687 2613 686C2615.64 686 2618.28 686 2621 686C2621 680.72 2621 675.44 2621 670C2623.64 670 2626.28 670 2629 670C2629 667.36 2629 664.72 2629 662C2631.64 662 2634.28 662 2637 662C2637 659.03 2637 656.06 2637 653C2642.61 653 2648.22 653 2654 653C2654 650.36 2654 647.72 2654 645C2662.25 645 2670.5 645 2679 645C2679 642.36 2679 639.72 2679 637C2695.17 637 2711.34 637 2728 637C2728 618.19 2728 599.38 2728 580C2725.36 580 2722.72 580 2720 580C2720 574.39 2720 568.78 2720 563C2717.36 563 2714.72 563 2712 563C2712 560.36 2712 557.72 2712 555C2706.39 555 2700.78 555 2695 555C2695 552.36 2695 549.72 2695 547C2690.05 547 2685.1 547 2680 547C2680 549.64 2680 552.28 2680 555C2671.75 555 2663.5 555 2655 555C2655 557.31 2655 559.62 2655 562C2660.28 562 2665.56 562 2671 562C2671 564.97 2671 567.94 2671 571C2673.97 571 2676.94 571 2680 571C2680.02 575.681 2680.04 580.363 2680.06 585.044C2680.06 586.638 2680.07 588.232 2680.08 589.825C2680.09 592.112 2680.09 594.398 2680.1 596.684C2680.1 597.4 2680.11 598.117 2680.11 598.855C2680.11 600.571 2680.06 602.286 2680 604C2679 605 2679 605 2677.15 605.098C2675.1 605.065 2673.05 605.033 2671 605C2671 607.64 2671 610.28 2671 613C2668.36 613 2665.72 613 2663 613C2663 615.64 2663 618.28 2663 621C2654.42 621 2645.84 621 2637 621C2637 618.36 2637 615.72 2637 613C2634.36 613 2631.72 613 2629 613C2629 610.36 2629 607.72 2629 605C2626.36 605 2623.72 605 2621 605C2621 593.78 2621 582.56 2621 571C2623.64 571 2626.28 571 2629 571C2629 568.03 2629 565.06 2629 562C2631.64 562 2634.28 562 2637 562C2637 559.36 2637 556.72 2637 554C2639.97 554 2642.94 554 2646 554C2646 551.36 2646 548.72 2646 546C2651.28 546 2656.56 546 2662 546C2662 543.36 2662 540.72 2662 538ZM2696 646C2696 648.64 2696 651.28 2696 654C2693.36 654 2690.72 654 2688 654C2688 656.64 2688 659.28 2688 662C2685.36 662 2682.72 662 2680 662C2680 670.25 2680 678.5 2680 687C2677.03 687 2674.06 687 2671 687C2671 694.92 2671 702.84 2671 711C2673.97 711 2676.94 711 2680 711C2680 716.61 2680 722.22 2680 728C2682.64 728 2685.28 728 2688 728C2688 730.64 2688 733.28 2688 736C2690.64 736 2693.28 736 2696 736C2696 738.64 2696 741.28 2696 744C2701.28 744 2706.56 744 2712 744C2712 741.36 2712 738.72 2712 736C2717.28 736 2722.56 736 2728 736C2728 706.3 2728 676.6 2728 646C2717.44 646 2706.88 646 2696 646Z" fill="#FEFEFE"/>
<path d="M1083 529C1091.25 529 1099.5 529 1108 529C1108 531.97 1108 534.94 1108 538C1116.25 538 1124.5 538 1133 538C1133 540.64 1133 543.28 1133 546C1138.61 546 1144.22 546 1150 546C1150 548.64 1150 551.28 1150 554C1152.64 554 1155.28 554 1158 554C1158 556.64 1158 559.28 1158 562C1160.64 562 1163.28 562 1166 562C1166 567.61 1166 573.22 1166 579C1168.97 579 1171.94 579 1175 579C1175.02 586.545 1175.04 594.09 1175.05 601.635C1175.06 605.138 1175.06 608.641 1175.08 612.144C1175.09 616.168 1175.09 620.191 1175.1 624.215C1175.1 625.478 1175.11 626.742 1175.11 628.044C1175.11 629.205 1175.11 630.366 1175.11 631.562C1175.12 632.59 1175.12 633.619 1175.12 634.678C1175 637 1175 637 1174 638C1171.2 638.095 1168.42 638.126 1165.62 638.114C1164.31 638.114 1164.31 638.114 1162.96 638.114C1160.05 638.113 1157.13 638.105 1154.21 638.098C1152.2 638.096 1150.18 638.094 1148.17 638.093C1142.85 638.09 1137.53 638.08 1132.21 638.069C1126.79 638.058 1121.37 638.054 1115.94 638.049C1105.3 638.038 1094.65 638.021 1084 638C1084 640.64 1084 643.28 1084 646C1075.75 646 1067.5 646 1059 646C1059 651.28 1059 656.56 1059 662C1061.64 662 1064.28 662 1067 662C1067 672.89 1067 683.78 1067 695C1069.64 695 1072.28 695 1075 695C1075 697.64 1075 700.28 1075 703C1077.97 703 1080.94 703 1084 703C1084 705.64 1084 708.28 1084 711C1086.64 711 1089.28 711 1092 711C1092 713.64 1092 716.28 1092 719C1097.28 719 1102.56 719 1108 719C1108 721.97 1108 724.94 1108 728C1118.89 728 1129.78 728 1141 728C1141 725.03 1141 722.06 1141 719C1146.28 719 1151.56 719 1157 719C1157 716.36 1157 713.72 1157 711C1162.94 711 1168.88 711 1175 711C1175 713.97 1175 716.94 1175 720C1172.03 720 1169.06 720 1166 720C1166 725.61 1166 731.22 1166 737C1163.36 737 1160.72 737 1158 737C1158 739.64 1158 742.28 1158 745C1155.36 745 1152.72 745 1150 745C1150 747.64 1150 750.28 1150 753C1147.36 753 1144.72 753 1142 753C1142.03 754.949 1142.03 754.949 1142.06 756.938C1142.08 758.292 1142.07 759.648 1142 761C1141 762 1141 762 1137.4 762.098C1135.91 762.091 1134.43 762.079 1132.94 762.062C1132.18 762.058 1131.42 762.053 1130.64 762.049C1128.76 762.037 1126.88 762.019 1125 762C1125 764.64 1125 767.28 1125 770C1102.89 770 1080.78 770 1058 770C1058 767.36 1058 764.72 1058 762C1052.39 762 1046.78 762 1041 762C1041 759.03 1041 756.06 1041 753C1038.36 753 1035.72 753 1033 753C1033 750.36 1033 747.72 1033 745C1030.36 745 1027.72 745 1025 745C1025 742.36 1025 739.72 1025 737C1022.36 737 1019.72 737 1017 737C1017 734.36 1017 731.72 1017 729C1015.7 729.021 1014.4 729.041 1013.06 729.062C1011.71 729.084 1010.35 729.071 1009 729C1008 728 1008 728 1007.89 725.683C1007.89 724.683 1007.9 723.683 1007.9 722.652C1007.91 721.573 1007.91 720.493 1007.91 719.381C1007.92 718.245 1007.93 717.108 1007.94 715.938C1007.94 714.797 1007.95 713.657 1007.95 712.482C1007.96 709.655 1007.98 706.827 1008 704C1005.36 704 1002.72 704 1000 704C1000 671 1000 638 1000 604C1002.64 604 1005.28 604 1008 604C1008 598.39 1008 592.78 1008 587C1010.97 587 1013.94 587 1017 587C1017 581.72 1017 576.44 1017 571C1019.64 571 1022.28 571 1025 571C1025 568.03 1025 565.06 1025 562C1027.64 562 1030.28 562 1033 562C1033 559.36 1033 556.72 1033 554C1035.64 554 1038.28 554 1041 554C1041 551.36 1041 548.72 1041 546C1046.61 546 1052.22 546 1058 546C1058 543.36 1058 540.72 1058 538C1066.25 538 1074.5 538 1083 538C1083 535.03 1083 532.06 1083 529ZM1084 547C1084 549.64 1084 552.28 1084 555C1081.03 555 1078.06 555 1075 555C1075 557.64 1075 560.28 1075 563C1072.36 563 1069.72 563 1067 563C1067 576.86 1067 590.72 1067 605C1064.36 605 1061.72 605 1059 605C1059 612.92 1059 620.84 1059 629C1077.81 629 1096.62 629 1116 629C1116 626.03 1116 623.06 1116 620C1118.64 620 1121.28 620 1124 620C1124 615.05 1124 610.1 1124 605C1121.36 605 1118.72 605 1116 605C1116 591.14 1116 577.28 1116 563C1113.36 563 1110.72 563 1108 563C1108 557.72 1108 552.44 1108 547C1100.08 547 1092.16 547 1084 547Z" fill="#FEFEFE"/>
<path d="M1438 529C1440.97 529 1443.94 529 1447 529C1447 531.97 1447 534.94 1447 538C1460.86 538 1474.72 538 1489 538C1489 540.64 1489 543.28 1489 546C1491.64 546 1494.28 546 1497 546C1497 559.53 1497 573.06 1497 587C1499.64 587 1502.28 587 1505 587C1505 589.97 1505 592.94 1505 596C1499.39 596 1493.78 596 1488 596C1488 590.72 1488 585.44 1488 580C1485.36 580 1482.72 580 1480 580C1480 577.03 1480 574.06 1480 571C1477.03 571 1474.06 571 1471 571C1471 568.36 1471 565.72 1471 563C1468.36 563 1465.72 563 1463 563C1463 560.36 1463 557.72 1463 555C1457.72 555 1452.44 555 1447 555C1447 552.36 1447 549.72 1447 547C1439.08 547 1431.16 547 1423 547C1423 549.64 1423 552.28 1423 555C1420.03 555 1417.06 555 1414 555C1414 560.28 1414 565.56 1414 571C1411.36 571 1408.72 571 1406 571C1406 576.28 1406 581.56 1406 587C1408.64 587 1411.28 587 1414 587C1414 589.64 1414 592.28 1414 595C1415.3 594.979 1416.6 594.959 1417.94 594.938C1419.29 594.916 1420.65 594.929 1422 595C1423 596 1423 596 1423.1 597.848C1423.07 599.898 1423.03 601.949 1423 604C1425.64 604 1428.28 604 1431 604C1431 606.64 1431 609.28 1431 612C1436.28 612 1441.56 612 1447 612C1447 614.64 1447 617.28 1447 620C1452.61 620 1458.22 620 1464 620C1464 622.97 1464 625.94 1464 629C1469.61 629 1475.22 629 1481 629C1481 631.64 1481 634.28 1481 637C1483.64 637 1486.28 637 1489 637C1489 639.64 1489 642.28 1489 645C1491.64 645 1494.28 645 1497 645C1497 647.64 1497 650.28 1497 653C1499.64 653 1502.28 653 1505 653C1505 655.97 1505 658.94 1505 662C1507.97 662 1510.94 662 1514 662C1514.02 670.588 1514.04 679.176 1514.05 687.764C1514.06 691.752 1514.06 695.739 1514.08 699.726C1514.09 703.571 1514.09 707.416 1514.09 711.261C1514.1 712.731 1514.1 714.201 1514.11 715.671C1514.11 717.724 1514.11 719.776 1514.11 721.828C1514.12 722.998 1514.12 724.168 1514.12 725.374C1514 728 1514 728 1513 729C1510.36 729 1507.72 729 1505 729C1505 734.28 1505 739.56 1505 745C1502.36 745 1499.72 745 1497 745C1497 747.64 1497 750.28 1497 753C1491.72 753 1486.44 753 1481 753C1481 755.64 1481 758.28 1481 761C1480 762 1480 762 1476.4 762.098C1474.91 762.091 1473.43 762.079 1471.94 762.062C1471.18 762.058 1470.42 762.053 1469.64 762.049C1467.76 762.037 1465.88 762.019 1464 762C1464 764.64 1464 767.28 1464 770C1439.25 770 1414.5 770 1389 770C1389 767.36 1389 764.72 1389 762C1380.75 762 1372.5 762 1364 762C1364 739.89 1364 717.78 1364 695C1366.97 695 1369.94 695 1373 695C1373 697.64 1373 700.28 1373 703C1375.64 703 1378.28 703 1381 703C1381 708.28 1381 713.56 1381 719C1383.64 719 1386.28 719 1389 719C1390 720 1390 720 1390.1 721.848C1390.07 723.898 1390.03 725.949 1390 728C1392.64 728 1395.28 728 1398 728C1398 730.64 1398 733.28 1398 736C1400.64 736 1403.28 736 1406 736C1406 738.64 1406 741.28 1406 744C1408.64 744 1411.28 744 1414 744C1414 746.97 1414 749.94 1414 753C1419.61 753 1425.22 753 1431 753C1431 755.64 1431 758.28 1431 761C1433.31 761 1435.62 761 1438 761C1438 758.36 1438 755.72 1438 753C1443.61 753 1449.22 753 1455 753C1455 750.03 1455 747.06 1455 744C1457.64 744 1460.28 744 1463 744C1463 741.36 1463 738.72 1463 736C1465.64 736 1468.28 736 1471 736C1471 728.08 1471 720.16 1471 712C1468.36 712 1465.72 712 1463 712C1463 709.36 1463 706.72 1463 704C1460.36 704 1457.72 704 1455 704C1455 701.36 1455 698.72 1455 696C1452.36 696 1449.72 696 1447 696C1447 693.03 1447 690.06 1447 687C1441.39 687 1435.78 687 1430 687C1430 684.36 1430 681.72 1430 679C1424.72 679 1419.44 679 1414 679C1414 676.36 1414 673.72 1414 671C1411.03 671 1408.06 671 1405 671C1405 668.03 1405 665.06 1405 662C1399.72 662 1394.44 662 1389 662C1389 659.36 1389 656.72 1389 654C1386.03 654 1383.06 654 1380 654C1380 651.36 1380 648.72 1380 646C1377.36 646 1374.72 646 1372 646C1372 640.39 1372 634.78 1372 629C1369.36 629 1366.72 629 1364 629C1364 615.14 1364 601.28 1364 587C1366.64 587 1369.28 587 1372 587C1372 581.72 1372 576.44 1372 571C1374.64 571 1377.28 571 1380 571C1380 565.39 1380 559.78 1380 554C1382.97 554 1385.94 554 1389 554C1389 551.36 1389 548.72 1389 546C1394.28 546 1399.56 546 1405 546C1405 543.36 1405 540.72 1405 538C1415.89 538 1426.78 538 1438 538C1438 535.03 1438 532.06 1438 529Z" fill="#FEFEFE"/>
<path d="M554 529C556.97 529 559.94 529 563 529C563 531.97 563 534.94 563 538C579.17 538 595.34 538 612 538C612 540.64 612 543.28 612 546C614.97 546 617.94 546 621 546C621 551.61 621 557.22 621 563C618.03 563 615.06 563 612 563C612 568.28 612 573.56 612 579C614.97 579 617.94 579 621 579C621 584.61 621 590.22 621 596C615.06 596 609.12 596 603 596C603 590.72 603 585.44 603 580C600.36 580 597.72 580 595 580C595 577.03 595 574.06 595 571C592.36 571 589.72 571 587 571C587 568.36 587 565.72 587 563C584.03 563 581.06 563 578 563C578 560.36 578 557.72 578 555C575.36 555 572.72 555 570 555C570 552.36 570 549.72 570 547C562.08 547 554.16 547 546 547C546 549.64 546 552.28 546 555C540.72 555 535.44 555 530 555C530 568.2 530 581.4 530 595C532.64 595 535.28 595 538 595C538 597.97 538 600.94 538 604C540.64 604 543.28 604 546 604C546 606.64 546 609.28 546 612C551.61 612 557.22 612 563 612C563 614.64 563 617.28 563 620C568.28 620 573.56 620 579 620C579 622.97 579 625.94 579 629C584.61 629 590.22 629 596 629C596 631.64 596 634.28 596 637C598.64 637 601.28 637 604 637C604 639.64 604 642.28 604 645C606.64 645 609.28 645 612 645C612 647.64 612 650.28 612 653C614.97 653 617.94 653 621 653C621 655.97 621 658.94 621 662C623.64 662 626.28 662 629 662C629 684.11 629 706.22 629 729C626.36 729 623.72 729 621 729C621 734.28 621 739.56 621 745C618.03 745 615.06 745 612 745C612 747.64 612 750.28 612 753C606.72 753 601.44 753 596 753C596 755.97 596 758.94 596 762C590.39 762 584.78 762 579 762C579 764.64 579 767.28 579 770C554.25 770 529.5 770 504 770C504 767.36 504 764.72 504 762C498.39 762 492.78 762 487 762C487 759.03 487 756.06 487 753C484.36 753 481.72 753 479 753C479 733.86 479 714.72 479 695C481.97 695 484.94 695 488 695C488 697.64 488 700.28 488 703C490.97 703 493.94 703 497 703C497 708.28 497 713.56 497 719C499.64 719 502.28 719 505 719C505 721.97 505 724.94 505 728C507.64 728 510.28 728 513 728C513 730.64 513 733.28 513 736C515.64 736 518.28 736 521 736C521 738.64 521 741.28 521 744C523.97 744 526.94 744 530 744C530 746.97 530 749.94 530 753C535.28 753 540.56 753 546 753C546 755.64 546 758.28 546 761C548.64 761 551.28 761 554 761C554 758.36 554 755.72 554 753C561.92 753 569.84 753 578 753C578 747.39 578 741.78 578 736C580.97 736 583.94 736 587 736C587 728.08 587 720.16 587 712C584.03 712 581.06 712 578 712C578 709.36 578 706.72 578 704C575.36 704 572.72 704 570 704C570 701.36 570 698.72 570 696C567.36 696 564.72 696 562 696C562 693.03 562 690.06 562 687C559.36 687 556.72 687 554 687C554 684.36 554 681.72 554 679C548.39 679 542.78 679 537 679C537 676.36 537 673.72 537 671C531.39 671 525.78 671 520 671C520 668.03 520 665.06 520 662C514.72 662 509.44 662 504 662C504 659.36 504 656.72 504 654C501.36 654 498.72 654 496 654C496 648.72 496 643.44 496 638C493.03 638 490.06 638 487 638C487 632.39 487 626.78 487 621C484.36 621 481.72 621 479 621C479 612.42 479 603.84 479 595C481.64 595 484.28 595 487 595C487 587.08 487 579.16 487 571C489.97 571 492.94 571 496 571C496 568.03 496 565.06 496 562C498.64 562 501.28 562 504 562C504 559.36 504 556.72 504 554C506.64 554 509.28 554 512 554C512 551.36 512 548.72 512 546C514.64 546 517.28 546 520 546C520 543.36 520 540.72 520 538C531.22 538 542.44 538 554 538C554 535.03 554 532.06 554 529Z" fill="#FEFEFE"/>
<path d="M1265 529C1270.61 529 1276.22 529 1282 529C1282 531.97 1282 534.94 1282 538C1295.53 538 1309.06 538 1323 538C1323 540.64 1323 543.28 1323 546C1325.97 546 1328.94 546 1332 546C1332 562.5 1332 579 1332 596C1329.03 596 1326.06 596 1323 596C1323 593.36 1323 590.72 1323 588C1320.03 588 1317.06 588 1314 588C1314 585.36 1314 582.72 1314 580C1311.36 580 1308.72 580 1306 580C1306 574.39 1306 568.78 1306 563C1303.36 563 1300.72 563 1298 563C1298 560.36 1298 557.72 1298 555C1292.39 555 1286.78 555 1281 555C1281 552.36 1281 549.72 1281 547C1273.08 547 1265.16 547 1257 547C1257 549.64 1257 552.28 1257 555C1254.36 555 1251.72 555 1249 555C1249 557.64 1249 560.28 1249 563C1246.36 563 1243.72 563 1241 563C1241 570.92 1241 578.84 1241 587C1243.64 587 1246.28 587 1249 587C1249 592.61 1249 598.22 1249 604C1254.61 604 1260.22 604 1266 604C1266 606.64 1266 609.28 1266 612C1268.64 612 1271.28 612 1274 612C1274 614.64 1274 617.28 1274 620C1279.28 620 1284.56 620 1290 620C1290 622.97 1290 625.94 1290 629C1295.61 629 1301.22 629 1307 629C1307 631.64 1307 634.28 1307 637C1312.28 637 1317.56 637 1323 637C1323 639.64 1323 642.28 1323 645C1325.97 645 1328.94 645 1332 645C1332 650.61 1332 656.22 1332 662C1334.64 662 1337.28 662 1340 662C1340 667.28 1340 672.56 1340 678C1342.64 678 1345.28 678 1348 678C1348 691.86 1348 705.72 1348 720C1345.36 720 1342.72 720 1340 720C1340 725.61 1340 731.22 1340 737C1337.36 737 1334.72 737 1332 737C1332 739.64 1332 742.28 1332 745C1329.03 745 1326.06 745 1323 745C1323 747.64 1323 750.28 1323 753C1320.36 753 1317.72 753 1315 753C1315 755.97 1315 758.94 1315 762C1309.72 762 1304.44 762 1299 762C1299 764.64 1299 767.28 1299 770C1271.28 770 1243.56 770 1215 770C1215 767.36 1215 764.72 1215 762C1209.72 762 1204.44 762 1199 762C1199 742.86 1199 723.72 1199 704C1196.03 704 1193.06 704 1190 704C1190 701.03 1190 698.06 1190 695C1195.94 695 1201.88 695 1208 695C1208 700.28 1208 705.56 1208 711C1210.64 711 1213.28 711 1216 711C1216 716.61 1216 722.22 1216 728C1218.64 728 1221.28 728 1224 728C1224 730.64 1224 733.28 1224 736C1226.64 736 1229.28 736 1232 736C1232 738.64 1232 741.28 1232 744C1234.97 744 1237.94 744 1241 744C1241 746.97 1241 749.94 1241 753C1249.25 753 1257.5 753 1266 753C1266 755.64 1266 758.28 1266 761C1268.31 761 1270.62 761 1273 761C1273 758.36 1273 755.72 1273 753C1278.28 753 1283.56 753 1289 753C1289 750.36 1289 747.72 1289 745C1289.33 744.67 1289.66 744.34 1290 744C1292.64 744 1295.28 744 1298 744C1298 730.8 1298 717.6 1298 704C1295.03 704 1292.06 704 1289 704C1289 701.36 1289 698.72 1289 696C1286.36 696 1283.72 696 1281 696C1281 693.03 1281 690.06 1281 687C1275.72 687 1270.44 687 1265 687C1265 684.36 1265 681.72 1265 679C1259.39 679 1253.78 679 1248 679C1248 676.36 1248 673.72 1248 671C1242.72 671 1237.44 671 1232 671C1232 668.03 1232 665.06 1232 662C1229.03 662 1226.06 662 1223 662C1223 659.36 1223 656.72 1223 654C1220.36 654 1217.72 654 1215 654C1215 651.36 1215 648.72 1215 646C1212.36 646 1209.72 646 1207 646C1207 643.36 1207 640.72 1207 638C1204.36 638 1201.72 638 1199 638C1199 618.53 1199 599.06 1199 579C1201.64 579 1204.28 579 1207 579C1207 573.39 1207 567.78 1207 562C1209.64 562 1212.28 562 1215 562C1215 559.36 1215 556.72 1215 554C1217.64 554 1220.28 554 1223 554C1223 551.36 1223 548.72 1223 546C1228.61 546 1234.22 546 1240 546C1240 543.36 1240 540.72 1240 538C1248.25 538 1256.5 538 1265 538C1265 535.03 1265 532.06 1265 529Z" fill="#FEFEFE"/>
<path d="M1852 488C1857.61 488 1863.22 488 1869 488C1869 493.61 1869 499.22 1869 505C1866.36 505 1863.72 505 1861 505C1861 515.89 1861 526.78 1861 538C1877.5 538 1894 538 1911 538C1911 546.25 1911 554.5 1911 563C1894.5 563 1878 563 1861 563C1861 611.84 1861 660.68 1861 711C1863.64 711 1866.28 711 1869 711C1869 716.61 1869 722.22 1869 728C1871.64 728 1874.28 728 1877 728C1877 730.64 1877 733.28 1877 736C1890.86 736 1904.72 736 1919 736C1919 738.97 1919 741.94 1919 745C1916.36 745 1913.72 745 1911 745C1911 747.64 1911 750.28 1911 753C1908.03 753 1905.06 753 1902 753C1902 755.97 1902 758.94 1902 762C1896.72 762 1891.44 762 1886 762C1886 764.64 1886 767.28 1886 770C1869.17 770 1852.34 770 1835 770C1835 767.36 1835 764.72 1835 762C1829.72 762 1824.44 762 1819 762C1819 759.03 1819 756.06 1819 753C1816.03 753 1813.06 753 1810 753C1810 747.72 1810 742.44 1810 737C1807.36 737 1804.72 737 1802 737C1802 679.58 1802 622.16 1802 563C1796.72 563 1791.44 563 1786 563C1786 560.03 1786 557.06 1786 554C1788.64 554 1791.28 554 1794 554C1794 551.36 1794 548.72 1794 546C1796.64 546 1799.28 546 1802 546C1802 543.36 1802 540.72 1802 538C1807.61 538 1813.22 538 1819 538C1819 535.03 1819 532.06 1819 529C1821.64 529 1824.28 529 1827 529C1827 526.36 1827 523.72 1827 521C1829.64 521 1832.28 521 1835 521C1835 518.36 1835 515.72 1835 513C1837.64 513 1840.28 513 1843 513C1842.98 511.701 1842.96 510.401 1842.94 509.062C1842.92 507.708 1842.93 506.352 1843 505C1843.5 504.505 1843.5 504.505 1844 504C1846.64 504 1849.28 504 1852 504C1852 498.72 1852 493.44 1852 488Z" fill="#FEFEFE"/>
<path d="M694 538C705.22 538 716.44 538 728 538C728 608.95 728 679.9 728 753C730.64 753 733.28 753 736 753C736 758.61 736 764.22 736 770C733.03 770 730.06 770 727 770C727 767.36 727 764.72 727 762C705.55 762 684.1 762 662 762C662 764.64 662 767.28 662 770C659.03 770 656.06 770 653 770C653 764.39 653 758.78 653 753C655.64 753 658.28 753 661 753C661 692.94 661 632.88 661 571C658.36 571 655.72 571 653 571C653 568.36 653 565.72 653 563C650.36 563 647.72 563 645 563C645 557.39 645 551.78 645 546C647.97 546 650.94 546 654 546C654 548.64 654 551.28 654 554C656.31 554 658.62 554 661 554C661 551.36 661 548.72 661 546C671.89 546 682.78 546 694 546C694 543.36 694 540.72 694 538Z" fill="#FEFEFE"/>
<path d="M2877 538C2888.22 538 2899.44 538 2911 538C2911 540.97 2911 543.94 2911 547C2908.36 547 2905.72 547 2903 547C2903 609.37 2903 671.74 2903 736C2905.64 736 2908.28 736 2911 736C2911 741.61 2911 747.22 2911 753C2913.64 753 2916.28 753 2919 753C2919 755.64 2919 758.28 2919 761C2921.97 761 2924.94 761 2928 761C2928 763.97 2928 766.94 2928 770C2922.06 770 2916.12 770 2910 770C2910 767.36 2910 764.72 2910 762C2885.91 762 2861.82 762 2837 762C2837 764.64 2837 767.28 2837 770C2833.7 770 2830.4 770 2827 770C2827 764.39 2827 758.78 2827 753C2829.97 753 2832.94 753 2836 753C2836 750.03 2836 747.06 2836 744C2838.64 744 2841.28 744 2844 744C2844 686.91 2844 629.82 2844 571C2841.36 571 2838.72 571 2836 571C2836 568.36 2836 565.72 2836 563C2833.03 563 2830.06 563 2827 563C2827 560.03 2827 557.06 2827 554C2832.61 554 2838.22 554 2844 554C2844 551.36 2844 548.72 2844 546C2854.89 546 2865.78 546 2877 546C2877 543.36 2877 540.72 2877 538Z" fill="#FEFEFE"/>
<path d="M678 447C686.25 447 694.5 447 703 447C703 449.64 703 452.28 703 455C708.61 455 714.22 455 720 455C720 460.28 720 465.56 720 471C722.64 471 725.28 471 728 471C728 479.58 728 488.16 728 497C725.36 497 722.72 497 720 497C720 499.64 720 502.28 720 505C717.36 505 714.72 505 712 505C712.021 506.299 712.041 507.599 712.062 508.938C712.084 510.292 712.071 511.648 712 513C710.077 514.923 707.219 514.129 704.661 514.139C703.773 514.137 702.884 514.135 701.969 514.133C701.062 514.134 700.156 514.135 699.223 514.136C697.302 514.136 695.382 514.135 693.462 514.13C690.513 514.125 687.563 514.13 684.613 514.137C682.753 514.136 680.892 514.135 679.031 514.133C677.698 514.136 677.698 514.136 676.339 514.139C670.115 514.115 670.115 514.115 669 513C668.927 510.303 668.908 507.633 668.938 504.938C668.942 504.179 668.947 503.42 668.951 502.639C668.963 500.759 668.981 498.88 669 497C666.36 497 663.72 497 661 497C661 485.78 661 474.56 661 463C663.64 463 666.28 463 669 463C669 460.36 669 457.72 669 455C671.97 455 674.94 455 678 455C678 452.36 678 449.72 678 447Z" fill="#FEFEFE"/>
<path d="M2927 538C2943.5 538 2960 538 2977 538C2977 543.28 2977 548.56 2977 554C2979.64 554 2982.28 554 2985 554C2985 565.22 2985 576.44 2985 588C2982.36 588 2979.72 588 2977 588C2977 590.64 2977 593.28 2977 596C2971.72 596 2966.44 596 2961 596C2961 598.97 2961 601.94 2961 605C2958.03 605 2955.06 605 2952 605C2952 602.03 2952 599.06 2952 596C2943.75 596 2935.5 596 2927 596C2927 590.72 2927 585.44 2927 580C2924.03 580 2921.06 580 2918 580C2918 571.42 2918 562.84 2918 554C2920.97 554 2923.94 554 2927 554C2927 548.72 2927 543.44 2927 538Z" fill="#FEFEFE"/>
</g>
<defs>
<clipPath id="clip0_2425_10193">
<rect width="3200" height="1200" fill="white"/>
</clipPath>
</defs>
</svg>
