<svg width="3656" height="828" viewBox="0 0 3656 828" fill="none" xmlns="http://www.w3.org/2000/svg">
<g clip-path="url(#clip0_2425_10188)">
<path d="M952 0C1035.49 0 1118.98 0 1205 0C1211.44 7.61063 1217.82 15.1872 1224 23C1224.63 23.7837 1225.26 24.5675 1225.91 25.375C1227.42 27.267 1228.9 29.1754 1230.38 31.0938C1235.11 37.2564 1239.96 43.1684 1245.31 48.8125C1249.13 52.8416 1252.4 56.8663 1255.33 61.5742C1258.91 66.7817 1263.26 71.427 1267.42 76.1816C1269.96 79.1049 1272.49 82.0488 1275 85C1275.67 85.773 1275.67 85.773 1276.35 86.5615C1279.18 89.886 1281.58 93.3708 1284 97C1285.26 98.4666 1286.55 99.9041 1287.88 101.312C1292.19 106.028 1296.3 110.887 1300.38 115.812C1301.29 116.907 1301.29 116.907 1302.21 118.023C1305.13 121.566 1307.65 125.053 1310 129C1311.46 130.679 1312.97 132.322 1314.5 133.938C1318.36 138.111 1321.96 142.38 1325.44 146.875C1329.52 152.16 1333.74 157.303 1338.08 162.38C1340.83 165.599 1343.51 168.862 1346.12 172.188C1348.83 175.614 1351.66 178.854 1354.62 182.062C1357.96 185.712 1360.69 189.412 1363.34 193.57C1368.16 200.615 1373.94 207.009 1380 213C1383.49 216.794 1386.36 220.569 1389 225C1392.69 230.051 1396.57 234.58 1401 239C1402.88 241.067 1404.7 243.182 1406.5 245.312C1406.98 245.884 1407.47 246.455 1407.97 247.043C1410.94 250.589 1413.6 254.138 1415.8 258.219C1417.54 260.81 1419.78 262.808 1422 265C1424.04 267.255 1426.02 269.562 1428 271.875C1428.51 272.462 1429.02 273.048 1429.54 273.652C1439 284.69 1439 284.69 1439 288C1439.99 288.33 1440.98 288.66 1442 289C1443.66 290.793 1443.66 290.793 1445.5 293.188C1446.2 294.082 1446.89 294.977 1447.61 295.898C1448.4 296.922 1449.19 297.945 1450 299C1451.41 300.824 1452.83 302.645 1454.25 304.464C1455.19 305.669 1456.12 306.877 1457.05 308.089C1459.13 310.757 1461.19 313.195 1463.59 315.59C1466 318.002 1467.87 320.454 1469.81 323.25C1473.1 327.882 1476.64 332.086 1480.53 336.223C1482 338 1482 338 1482 340C1482.6 340.255 1483.2 340.51 1483.82 340.773C1486.25 342.138 1487.28 343.365 1488.88 345.625C1489.39 346.339 1489.9 347.053 1490.43 347.789C1490.95 348.519 1491.47 349.248 1492 350C1493 351.336 1494 352.67 1495 354C1496.52 356.026 1498.04 358.056 1499.54 360.105C1500.29 361.136 1500.29 361.136 1501.06 362.188C1501.51 362.8 1501.95 363.412 1502.41 364.043C1504.06 366.143 1504.06 366.143 1506.41 368.406C1522 384 1522 384 1525 393C1525.57 393.259 1526.15 393.518 1526.74 393.785C1530.08 395.578 1531.96 398.463 1534.19 401.438C1535.17 402.717 1536.15 403.995 1537.14 405.273C1537.62 405.907 1538.11 406.541 1538.61 407.194C1543.72 413.818 1549.15 420.188 1554.56 426.562C1557.95 430.556 1561.32 434.563 1564.62 438.625C1565.26 439.401 1565.89 440.177 1566.54 440.977C1568 443 1568 443 1569 446C1569.66 446 1570.32 446 1571 446C1572.29 447.617 1573.51 449.297 1574.69 451C1577.73 455.299 1580.88 459.29 1584.46 463.148C1586 465 1586 465 1587.42 467.418C1589.16 470.267 1591.16 472.503 1593.44 474.938C1596.72 478.438 1599.35 482.007 1602 486C1603.69 488.156 1605.46 490.236 1607.25 492.312C1607.73 492.88 1608.22 493.448 1608.71 494.032C1611.51 497.301 1614.35 500.509 1617.25 503.688C1619.9 506.636 1622.21 509.656 1624.44 512.938C1627.48 517.404 1630.88 521.323 1634.54 525.297C1646.53 538.45 1646.53 538.45 1651 545.562C1653.37 549.297 1656.17 552.476 1659.19 555.688C1663.63 560.407 1667.7 565.3 1671.66 570.427C1675.99 576.027 1680.48 581.485 1685 586.937C1688.23 590.842 1691.42 594.77 1694.56 598.75C1696.55 601.255 1698.48 603.482 1700.75 605.75C1703.28 608.285 1705.09 610.973 1707 614C1707.66 614.99 1708.32 615.98 1709 617C1709.05 582.469 1709.08 547.938 1709.1 513.407C1709.1 509.309 1709.11 505.211 1709.11 501.113C1709.11 500.297 1709.11 499.481 1709.11 498.641C1709.12 485.519 1709.14 472.398 1709.15 459.276C1709.17 445.762 1709.18 432.248 1709.19 418.734C1709.19 411.165 1709.2 403.596 1709.21 396.026C1709.27 365.306 1709.32 334.653 1707 304C1706.92 302.915 1706.84 301.831 1706.76 300.713C1706.33 294.966 1705.84 289.232 1705.25 283.5C1705.13 282.275 1705.13 282.275 1705 281.026C1700.3 235.388 1686.81 185.645 1658.68 148.594C1655.49 144.379 1652.66 139.965 1649.85 135.488C1647.84 132.782 1645.67 131.046 1643 129C1641.95 127.842 1640.92 126.654 1639.94 125.438C1636.28 121.116 1632.17 117.403 1627.91 113.681C1626.57 112.493 1625.28 111.25 1624 110C1624 109.34 1624 108.68 1624 108C1623.44 107.734 1622.89 107.469 1622.32 107.195C1615.76 103.814 1609.69 99.5609 1603.81 95.125C1575.8 74.5922 1540.18 63.6029 1507 55C1506.02 54.742 1505.04 54.4841 1504.03 54.2183C1494.73 51.9113 1485.31 50.6661 1475.82 49.3847C1471.13 48.7453 1466.45 48.0681 1461.76 47.3945C1460.09 47.1558 1458.42 46.9173 1456.75 46.679C1448.17 45.4526 1439.58 44.2263 1431 43C1431 28.81 1431 14.62 1431 0C1545.18 0 1659.36 0 1777 0C1777 273.24 1777 546.48 1777 828C1704.07 828 1631.14 828 1556 828C1549.19 820.057 1542.46 812.199 1536 804C1533.94 801.392 1531.88 798.789 1529.81 796.188C1529.31 795.553 1528.81 794.918 1528.3 794.264C1525.39 790.605 1522.33 787.287 1519 784C1518.09 782.631 1517.18 781.26 1516.29 779.871C1512.52 774.413 1508.19 769.193 1503.5 764.504C1500.95 761.95 1498.66 759.295 1496.38 756.5C1495.62 755.582 1494.86 754.664 1494.09 753.719C1492.17 751.223 1490.6 748.705 1489 746C1487.9 744.48 1486.78 742.98 1485.62 741.5C1485.06 740.768 1484.5 740.036 1483.91 739.281C1481.99 736.922 1481.99 736.922 1479.62 734.625C1476.71 731.707 1474.04 728.651 1471.38 725.5C1470.9 724.944 1470.42 724.389 1469.93 723.816C1467.89 721.409 1466.08 719.134 1464.48 716.406C1462.68 713.478 1460.46 711.391 1458 709C1456.58 707.333 1455.18 705.644 1453.81 703.938C1451.31 700.832 1448.8 697.745 1446.2 694.723C1445.74 694.185 1445.28 693.646 1444.8 693.092C1443.5 691.568 1442.18 690.049 1440.87 688.531C1439 686 1439 686 1439 683C1438.01 682.67 1437.02 682.34 1436 682C1434.05 679.883 1434.05 679.883 1431.88 677.125C1431.09 676.138 1430.3 675.15 1429.49 674.133C1429.08 673.618 1428.68 673.102 1428.26 672.571C1425.48 669.102 1422.6 665.718 1419.75 662.312C1418 660 1418 660 1417 657C1416.38 656.711 1415.76 656.423 1415.12 656.125C1412.29 654.623 1411.63 652.755 1410 650C1408.59 648.184 1407.15 646.393 1405.69 644.625C1404.9 643.67 1404.11 642.715 1403.3 641.73C1401.37 639.44 1399.41 637.183 1397.44 634.938C1395 632 1395 632 1395 630C1394.44 629.794 1393.89 629.588 1393.31 629.375C1388.39 626.45 1385.89 621.843 1383.25 616.938C1381.1 613.597 1378.33 610.8 1375.61 607.918C1374 606 1374 606 1374 604C1373.16 603.693 1373.16 603.693 1372.3 603.379C1369.16 601.495 1367.32 598.846 1365.19 595.938C1364.31 594.761 1363.43 593.586 1362.55 592.41C1362.12 591.832 1361.69 591.253 1361.24 590.657C1358.99 587.654 1356.63 584.734 1354.28 581.805C1353 580 1353 580 1352 577C1351.41 576.714 1350.82 576.428 1350.21 576.133C1347.21 574.595 1345.71 572.508 1343.62 569.875C1342.84 568.89 1342.06 567.905 1341.25 566.891C1340.51 565.937 1339.77 564.983 1339 564C1338.39 563.232 1337.78 562.463 1337.15 561.672C1334.96 558.849 1333.18 556.47 1331.88 553.125C1331.21 550.85 1331.21 550.85 1329.14 550.09C1326.7 548.846 1325.54 547.565 1323.83 545.438C1323.25 544.728 1322.67 544.019 1322.08 543.288C1321.47 542.533 1320.87 541.778 1320.25 541C1319.62 540.228 1319 539.457 1318.35 538.662C1316.56 536.447 1314.78 534.225 1313 532C1312.21 531.023 1311.43 530.046 1310.62 529.039C1309.36 527.467 1308.11 525.893 1306.85 524.316C1304.77 521.717 1302.67 519.138 1300.56 516.562C1299.45 515.205 1299.45 515.205 1298.32 513.82C1296.7 511.849 1295.07 509.886 1293.43 507.93C1292.61 506.942 1291.78 505.955 1290.94 504.938C1290.18 504.039 1289.43 503.141 1288.65 502.215C1287 500 1287 500 1287 498C1286.41 497.769 1285.83 497.539 1285.22 497.301C1282.43 495.664 1281.25 493.867 1279.44 491.188C1276.23 486.626 1272.86 482.307 1269.25 478.062C1268.79 477.519 1268.33 476.976 1267.86 476.417C1265.93 474.165 1263.99 471.992 1261.86 469.934C1259.79 467.782 1258.49 465.582 1257 463C1255.71 461.153 1254.39 459.32 1253.06 457.5C1252.06 456.123 1252.06 456.123 1251.04 454.719C1248.39 451.188 1245.8 447.791 1242.66 444.684C1239.34 441.33 1236.4 437.735 1233.44 434.062C1232.87 433.372 1232.31 432.682 1231.73 431.971C1229.31 428.981 1227.02 426.031 1224.91 422.809C1222.87 419.816 1220.59 417.516 1218 415C1216.64 413.417 1215.31 411.811 1214 410.188C1213.22 409.225 1212.44 408.262 1211.64 407.27C1211.21 406.746 1210.79 406.222 1210.36 405.682C1207.85 402.574 1205.33 399.475 1202.81 396.375C1202.27 395.705 1201.72 395.035 1201.16 394.344C1197 389.218 1192.82 384.104 1188.62 379C1188.07 378.319 1187.51 377.637 1186.93 376.935C1184.12 373.516 1181.26 370.148 1178.33 366.832C1175.74 363.894 1173.37 360.897 1171.12 357.688C1166.29 350.942 1161.27 344.274 1155.4 338.398C1153.48 336.484 1151.89 334.684 1150.31 332.5C1147.55 328.746 1144.76 325.018 1141.94 321.312C1141.53 320.766 1141.11 320.219 1140.69 319.656C1138.02 316.157 1135.13 313.09 1132 310C1130.08 307.871 1128.22 305.69 1126.38 303.5C1125.9 302.944 1125.42 302.389 1124.93 301.816C1121.76 298.073 1119.01 294.356 1117.06 289.812C1116.15 287.855 1116.15 287.855 1114.16 287.164C1111.45 285.706 1110.18 284.006 1108.31 281.562C1104.58 276.73 1100.71 272.028 1096.79 267.348C1095 265 1095 265 1094 262C1092.36 260.309 1090.69 258.647 1089 257C1086.96 254.725 1084.98 252.395 1083 250.062C1082.49 249.468 1081.98 248.873 1081.46 248.26C1080.46 247.082 1079.46 245.902 1078.46 244.719C1077.48 243.57 1076.5 242.428 1075.51 241.292C1072 237.218 1072 237.218 1072 235C1071.42 234.814 1070.85 234.629 1070.25 234.438C1067.59 232.736 1066.77 230.878 1065.33 228.133C1063.08 224.519 1060.12 221.536 1057.22 218.43C1051 211.62 1051 211.62 1051 209C1050.44 208.794 1049.89 208.588 1049.31 208.375C1045.4 206.05 1042.89 202.529 1040.64 198.652C1038.14 194.613 1035.02 191.14 1031.96 187.523C1030 185 1030 185 1029 182C1028.39 181.693 1027.77 181.386 1027.14 181.07C1024.51 179.756 1023.44 178.258 1021.75 175.875C1021.23 175.151 1020.71 174.426 1020.17 173.68C1019.59 172.848 1019.59 172.848 1019 172C1018.95 212.909 1018.92 253.819 1018.9 294.728C1018.9 299.573 1018.89 304.417 1018.89 309.262C1018.89 310.708 1018.89 310.708 1018.89 312.184C1018.88 327.739 1018.86 343.294 1018.85 358.849C1018.83 374.845 1018.82 390.84 1018.81 406.836C1018.81 416.683 1018.8 426.53 1018.78 436.376C1018.77 443.156 1018.77 449.935 1018.77 456.714C1018.77 460.608 1018.77 464.502 1018.76 468.396C1018.69 496.115 1020.15 523.524 1024 551C1024.14 551.977 1024.27 552.954 1024.41 553.961C1027.74 577.123 1033.41 599.727 1041.22 621.777C1042 624.005 1042.73 626.246 1043.45 628.492C1048.28 643.008 1055.57 656.253 1063.78 669.091C1065.45 671.707 1067.08 674.348 1068.69 677C1069.15 677.743 1069.6 678.485 1070.07 679.25C1071 681 1071 681 1071 683C1071.99 683.33 1072.98 683.66 1074 684C1075.66 685.863 1075.66 685.863 1077.5 688.312C1089.78 704.039 1104.02 717.023 1120.16 728.67C1121.37 729.546 1122.58 730.431 1123.77 731.326C1127.79 734.292 1131.88 736.603 1136.38 738.75C1141.34 741.165 1146.24 743.653 1151.07 746.315C1164.25 753.528 1178.4 760.186 1193.15 763.344C1196.51 764.117 1199.72 765.174 1203 766.25C1235.24 776.576 1268.58 781.377 1302 786C1302 799.86 1302 813.72 1302 828C1186.5 828 1071 828 952 828C952 554.76 952 281.52 952 0Z" fill="white"/>
<path d="M1906 0C2178.25 0 2450.5 0 2731 0C2731 113.52 2731 227.04 2731 344C2723.12 345.125 2723.12 345.125 2719.72 345.114C2718.96 345.113 2718.2 345.113 2717.41 345.113C2716.62 345.108 2715.82 345.103 2715 345.098C2714.17 345.096 2713.34 345.095 2712.48 345.093C2709.84 345.088 2707.2 345.075 2704.56 345.062C2702.76 345.057 2700.96 345.053 2699.17 345.049C2694.78 345.038 2690.39 345.021 2686 345C2684.62 341.194 2683.73 337.829 2683.51 333.789C2683.41 332.312 2683.41 332.312 2683.32 330.805C2683.25 329.756 2683.19 328.706 2683.12 327.625C2682.22 314.906 2680.41 302.515 2678 290C2677.68 288.347 2677.68 288.347 2677.36 286.66C2672.9 263.838 2666.82 241.592 2658.45 219.891C2657.51 217.449 2656.76 215.116 2656.06 212.582C2654.71 208.011 2652.84 203.774 2650.88 199.438C2650.48 198.558 2650.08 197.678 2649.67 196.772C2644.81 186.199 2639 176.342 2632.64 166.598C2631.4 164.635 2630.24 162.621 2629.13 160.586C2627.03 156.883 2624.48 153.758 2621.69 150.562C2621.21 150.001 2620.72 149.44 2620.23 148.862C2616.98 145.091 2613.69 141.361 2610.34 137.684C2608.91 135.886 2607.95 134.084 2607 132C2606.34 132 2605.68 132 2605 132C2602.88 130.125 2602.88 130.125 2601 128C2601 127.34 2601 126.68 2601 126C2600.47 125.781 2599.94 125.562 2599.4 125.336C2596.12 123.511 2593.43 121.084 2590.62 118.625C2586.57 115.084 2582.5 111.977 2578 109C2577.33 108.29 2577.33 108.29 2576.64 107.566C2574.59 105.611 2572.44 104.451 2569.95 103.109C2568.95 102.568 2567.95 102.027 2566.92 101.469C2565.85 100.902 2564.78 100.335 2563.69 99.75C2562.59 99.1652 2561.5 98.5803 2560.38 97.9778C2557.25 96.3122 2554.13 94.6559 2551 93C2550.29 92.617 2549.57 92.234 2548.84 91.8394C2535.39 84.609 2520.74 78.462 2505.67 75.7031C2502.03 75.0052 2498.47 74.1321 2494.87 73.2207C2460.65 64.6253 2425.66 62.877 2390.54 62.7947C2387.87 62.7849 2385.21 62.7748 2382.54 62.7643C2376.17 62.7398 2369.8 62.7201 2363.42 62.7022C2356.04 62.6812 2348.65 62.6541 2341.26 62.6271C2321.8 62.5588 2302.34 62.4986 2282.88 62.4375C2217.6 62.2209 2217.6 62.2209 2151 62C2151 163.97 2151 265.94 2151 371C2235.41 373.636 2235.41 373.636 2321 360C2322.07 359.67 2322.07 359.67 2323.15 359.333C2345.77 352.19 2369.52 341.056 2386.17 323.742C2388 322 2388 322 2390 322C2390 321.34 2390 320.68 2390 320C2390.66 320 2391.32 320 2392 320C2392.04 319.443 2392.08 318.886 2392.12 318.312C2393 316 2393 316 2395.68 313.863C2399.55 310.736 2402.15 306.961 2404.94 302.875C2405.46 302.12 2405.98 301.365 2406.52 300.588C2408.02 298.399 2409.51 296.201 2411 294C2411.72 292.942 2412.45 291.883 2413.19 290.793C2416.4 285.954 2418.92 281.25 2420.92 275.805C2421.96 273.102 2423.14 270.495 2424.36 267.87C2436.79 240.776 2443.1 211.299 2445.71 181.747C2446.02 178.816 2446.52 175.907 2447 173C2462.51 173 2478.02 173 2494 173C2494.02 230.947 2494.04 288.895 2494.05 346.842C2494.05 353.675 2494.05 360.509 2494.05 367.342C2494.06 368.362 2494.06 368.362 2494.06 369.403C2494.06 391.464 2494.07 413.525 2494.08 435.587C2494.09 458.89 2494.09 482.193 2494.09 505.496C2494.1 519.464 2494.1 533.432 2494.11 547.401C2494.11 556.965 2494.11 566.529 2494.11 576.094C2494.11 581.621 2494.11 587.148 2494.12 592.675C2494.12 597.726 2494.12 602.777 2494.12 607.828C2494.12 609.664 2494.12 611.5 2494.12 613.336C2494.13 615.814 2494.13 618.293 2494.12 620.771C2494.13 621.498 2494.13 622.226 2494.13 622.975C2494.11 627.886 2494.11 627.886 2493 629C2491.56 629.093 2490.11 629.117 2488.66 629.114C2487.74 629.113 2486.82 629.113 2485.87 629.113C2484.87 629.108 2483.87 629.103 2482.84 629.098C2481.82 629.096 2480.8 629.095 2479.75 629.093C2476.48 629.088 2473.21 629.075 2469.94 629.062C2467.73 629.057 2465.51 629.053 2463.3 629.049C2457.87 629.038 2452.43 629.021 2447 629C2445.98 622.139 2444.96 615.304 2444.42 608.387C2441.18 568.644 2426.25 522.554 2399.75 492.199C2397.25 489.328 2394.94 486.334 2392.62 483.312C2388.36 478.045 2383.47 474.206 2378.04 470.234C2375.52 468.386 2373.15 466.491 2370.81 464.438C2368.27 462.033 2368.27 462.033 2366 461C2366 460.34 2366 459.68 2366 459C2365.37 458.767 2364.74 458.533 2364.09 458.293C2361.56 457.233 2359.14 456.095 2356.69 454.863C2292.89 422.959 2220.68 429.683 2151 429C2151 540.21 2151 651.42 2151 766C2194.31 765.876 2237.62 765.752 2282.25 765.625C2295.88 765.591 2309.51 765.557 2323.56 765.522C2335.87 765.482 2335.87 765.482 2348.18 765.44C2353.63 765.421 2359.08 765.407 2364.53 765.397C2370.83 765.386 2377.14 765.367 2383.45 765.341C2386.67 765.328 2389.88 765.318 2393.1 765.316C2409.45 765.3 2425.64 764.569 2441.94 763.242C2445.78 762.938 2449.63 762.678 2453.48 762.428C2485.95 760.077 2516.65 749.561 2546 736C2547.14 735.491 2548.28 734.982 2549.46 734.457C2561.64 728.769 2573.51 720.823 2583.27 711.59C2585 710 2585 710 2587.94 708.062C2596.41 702.357 2602.98 694.943 2609.41 687.117C2611.54 684.528 2613.77 682.07 2616.06 679.625C2621.73 673.317 2628.31 665.084 2631 657C2631.66 657 2632.32 657 2633 657C2633.4 655.935 2633.4 655.935 2633.81 654.849C2635.04 651.909 2636.46 649.204 2638.01 646.422C2646.34 631.307 2654.04 616.483 2658.86 599.828C2659.76 596.792 2660.73 593.799 2661.74 590.797C2671.1 562.847 2676.98 534.546 2681.46 505.462C2681.81 503.243 2682.17 501.026 2682.55 498.813C2682.93 496.413 2683.17 494.112 2683.28 491.688C2683.34 490.539 2683.34 490.539 2683.39 489.367C2683.43 488.586 2683.46 487.805 2683.5 487C2683.57 485.437 2683.64 483.875 2683.72 482.312C2683.75 481.628 2683.78 480.944 2683.81 480.238C2684.04 477.474 2684.54 474.737 2685 472C2700.18 472 2715.36 472 2731 472C2731 589.48 2731 706.96 2731 828C2458.75 828 2186.5 828 1906 828C1906 554.76 1906 281.52 1906 0Z" fill="white"/>
<path d="M280.608 -0.240389C282.976 -0.241264 285.345 -0.24302 287.713 -0.245568C294.145 -0.249991 300.575 -0.242108 307.007 -0.232012C313.253 -0.223201 319.5 -0.225938 325.746 -0.227375C338.504 -0.229988 351.262 -0.223379 364.02 -0.21134C376.634 -0.199468 389.249 -0.191801 401.863 -0.189635C402.651 -0.189497 403.438 -0.18936 404.249 -0.189218C408.247 -0.188541 412.245 -0.187939 416.243 -0.187364C444.492 -0.183174 472.74 -0.169729 500.989 -0.150759C528.416 -0.132363 555.843 -0.118209 583.27 -0.109744C584.117 -0.109481 584.964 -0.109217 585.836 -0.108946C594.341 -0.106309 602.846 -0.103758 611.351 -0.101269C628.674 -0.0961976 645.996 -0.0905551 663.318 -0.0845666C664.513 -0.0841547 664.513 -0.0841547 665.731 -0.0837345C718.821 -0.0653626 771.91 -0.0336338 825 0.000119686C825.023 43.8067 825.04 87.6132 825.051 131.42C825.052 136.586 825.054 141.752 825.055 146.918C825.055 147.946 825.055 148.975 825.056 150.035C825.06 166.711 825.068 183.388 825.077 200.064C825.086 217.162 825.092 234.26 825.094 251.359C825.095 261.918 825.1 272.478 825.108 283.037C825.113 290.268 825.115 297.498 825.113 304.729C825.113 308.907 825.114 313.086 825.119 317.264C825.124 321.082 825.124 324.901 825.121 328.72C825.12 330.108 825.122 331.495 825.125 332.883C825.129 334.757 825.126 336.631 825.123 338.505C825.124 340.072 825.124 340.072 825.124 341.67C825 344 825 344 824 345C822.588 345.093 821.171 345.118 819.756 345.114C818.855 345.114 817.954 345.113 817.026 345.113C816.046 345.108 815.067 345.103 814.059 345.098C813.061 345.096 812.064 345.095 811.036 345.093C807.836 345.088 804.637 345.075 801.437 345.063C799.274 345.058 797.111 345.053 794.947 345.049C789.631 345.038 784.316 345.021 779 345C778.669 342.815 778.343 340.628 778.019 338.442C777.837 337.224 777.655 336.007 777.468 334.752C777.016 331.133 776.804 327.581 776.687 323.938C774.957 287.396 763.865 249.203 750.849 215.24C750.118 213.311 749.424 211.368 748.738 209.422C743.602 195.078 735.733 181.829 727.667 168.962C725.742 165.889 723.94 162.88 722.32 159.629C720.694 156.391 718.595 154.538 716 152C714.819 150.533 713.654 149.052 712.5 147.563C704.008 136.848 694.812 127.385 684 119C681.976 117.338 679.955 115.671 677.937 114C674.65 111.219 674.65 111.219 671 109C671 108.34 671 107.68 671 107C669.909 106.576 669.909 106.576 668.797 106.144C662.023 103.374 655.647 99.8411 649.336 96.1576C613.664 75.6169 570.661 67.9927 530 65.0001C528.909 64.9172 527.819 64.8342 526.695 64.7487C511.716 63.7614 496.726 63.8355 481.723 63.8329C479.388 63.8321 477.053 63.83 474.718 63.8274C466.533 63.8182 458.347 63.814 450.162 63.8148C442.594 63.8154 435.025 63.8049 427.457 63.7891C420.903 63.7759 414.35 63.7706 407.796 63.7713C403.906 63.7715 400.017 63.7688 396.127 63.7581C367.617 63.6704 367.617 63.6704 339.437 67.6876C338.67 67.8513 337.902 68.015 337.111 68.1837C329.047 70.0268 321.495 73.0142 313.89 76.2233C311.459 77.2225 308.98 78.0672 306.5 78.9376C300.857 81.2064 296.542 85.0388 292 89.0001C291.275 89.6034 290.551 90.2067 289.805 90.8282C285.936 94.0938 282.524 97.4975 279.324 101.422C278 103 278 103 276.575 104.322C274.783 106.232 273.701 108.116 272.476 110.43C272.015 111.3 271.554 112.171 271.079 113.068C257.468 139.355 252.848 164.831 252.853 194.206C252.849 196.171 252.846 198.136 252.842 200.101C252.832 205.488 252.828 210.874 252.825 216.261C252.821 222.077 252.812 227.892 252.803 233.708C252.783 247.748 252.773 261.788 252.764 275.828C252.76 282.449 252.755 289.071 252.749 295.693C252.732 317.723 252.718 339.754 252.711 361.784C252.71 363.208 252.71 364.631 252.709 366.055C252.709 366.761 252.709 367.467 252.708 368.194C252.707 371.77 252.706 375.346 252.705 378.922C252.705 379.632 252.704 380.342 252.704 381.073C252.696 404.05 252.673 427.026 252.64 450.003C252.606 474.335 252.586 498.667 252.583 523C252.581 536.247 252.572 549.495 252.546 562.742C252.525 574.03 252.517 585.318 252.526 596.606C252.531 602.355 252.529 608.104 252.51 613.853C252.378 654.996 252.932 700.784 283.375 732.602C311.289 758.106 345.217 764.128 381.996 764.161C383.345 764.166 384.695 764.171 386.044 764.176C389.678 764.189 393.313 764.196 396.947 764.2C399.243 764.203 401.538 764.207 403.834 764.212C411.088 764.225 418.342 764.235 425.597 764.239C433.021 764.243 440.446 764.255 447.871 764.281C492.709 764.571 492.709 764.571 537.492 762.68C538.768 762.593 538.768 762.593 540.07 762.504C573.576 760.125 605.381 750.756 635.923 736.926C637.773 736.101 639.647 735.332 641.523 734.57C645.858 732.612 649.832 730.247 653.875 727.75C654.671 727.261 655.468 726.771 656.288 726.267C661.817 722.83 666.98 719.147 672 715C673.307 714.014 674.62 713.035 675.937 712.063C686.564 704.103 695.525 696.06 703.789 685.648C706 683 706 683 708.422 680.629C711.504 677.486 714.044 674.118 716.625 670.563C717.34 669.599 717.34 669.599 718.07 668.615C720.801 664.88 722.988 661.182 725 657C726.148 655.134 727.316 653.281 728.5 651.438C737.571 636.975 745.91 621.443 750.828 605.059C752.262 600.349 753.762 595.67 755.332 591.004C767.398 554.979 775.875 517.341 777.798 479.307C778.013 476.848 778.516 474.421 779 472C794.18 472 809.36 472 825 472C825 589.48 825 706.96 825 828C683.746 828.121 683.746 828.121 629.461 828.145C615.268 828.151 601.075 828.157 586.882 828.164C585.165 828.165 583.449 828.165 581.733 828.166C554.439 828.179 527.145 828.201 499.851 828.229C471.765 828.257 443.68 828.276 415.595 828.282C411.615 828.283 407.635 828.284 403.655 828.285C402.872 828.285 402.088 828.285 401.282 828.285C388.747 828.289 376.213 828.303 363.678 828.321C351.033 828.338 338.387 828.345 325.742 828.341C318.908 828.339 312.074 828.341 305.241 828.358C266.598 828.445 229.037 827.356 191 820C189.788 819.769 188.576 819.538 187.328 819.3C158.275 813.684 131.727 804.173 105.777 789.958C103.321 788.634 100.821 787.408 98.3124 786.188C94.6453 784.37 91.2583 782.487 87.9999 780C87.9999 779.34 87.9999 778.68 87.9999 778C87.1395 777.604 87.1395 777.604 86.2616 777.199C83.8777 775.935 81.9225 774.492 79.8124 772.813C75.9541 769.755 72.0613 766.75 68.1405 763.773C63.5645 759.982 59.5802 755.554 55.5624 751.188C55.0809 750.664 54.5993 750.141 54.1032 749.602C50.9016 746.084 47.9691 742.461 45.1952 738.594C43.951 736.848 43.951 736.848 41.9374 735C37.082 729.988 33.9856 723.312 30.7226 717.203C29.4853 714.903 28.225 712.629 26.9335 710.359C16.4959 691.739 9.92333 671.931 5.99993 651C5.81592 650.036 5.6319 649.072 5.44231 648.079C4.87877 645.077 4.33974 642.071 3.81243 639.063C3.65734 638.196 3.50222 637.329 3.34243 636.436C-0.315237 614.286 -0.294705 591.999 -0.261546 569.626C-0.256963 565.038 -0.264008 560.451 -0.26948 555.863C-0.278314 546.907 -0.276495 537.952 -0.27067 528.996C-0.26613 521.71 -0.265543 514.423 -0.26771 507.137C-0.26817 505.573 -0.268187 505.573 -0.268656 503.979C-0.269296 501.861 -0.269922 499.743 -0.270579 497.625C-0.276265 477.825 -0.269756 458.025 -0.258982 438.225C-0.250048 421.283 -0.251594 404.34 -0.260813 387.398C-0.271547 367.663 -0.275727 347.928 -0.269602 328.192C-0.268965 326.083 -0.268331 323.973 -0.26771 321.864C-0.267402 320.826 -0.267113 319.789 -0.266795 318.72C-0.265077 311.452 -0.267958 304.185 -0.272685 296.918C-0.278328 288.047 -0.276705 279.175 -0.266123 270.303C-0.260913 265.788 -0.258729 261.273 -0.265421 256.758C-0.295928 234.314 -0.154028 211.976 3.87493 189.813C4.05072 188.821 4.22652 187.83 4.40764 186.808C4.7651 184.809 5.12705 182.811 5.49404 180.814C5.96205 178.211 6.38558 175.605 6.7968 172.992C10.6211 149.993 20.1708 128.926 31.9999 109C32.5087 108.133 33.0175 107.265 33.5417 106.372C39.3416 96.5645 46.084 87.7476 53.8124 79.3751C55.9448 77.06 58.0036 74.6931 60.0624 72.3126C65.7068 65.982 72.1656 60.793 78.8124 55.5626C79.376 55.1128 79.9395 54.663 80.5202 54.1996C84.651 51.0001 84.651 51.0001 87.9999 51.0001C87.9999 50.3401 87.9999 49.6801 87.9999 49.0001C89.5343 47.8302 89.5343 47.8302 91.7069 46.5314C92.5119 46.0473 93.3168 45.5633 94.1462 45.0646C95.026 44.5483 95.9059 44.032 96.8124 43.5001C97.7123 42.9684 98.6121 42.4366 99.5392 41.8888C125.096 26.9138 125.096 26.9138 136.848 23.9142C139.581 23.1214 142.093 22.185 144.723 21.1095C167.438 11.8675 191.979 7.03685 216.187 3.75012C217.3 3.59906 218.412 3.448 219.559 3.29236C239.875 0.722143 260.142 -0.297742 280.608 -0.240389Z" fill="white"/>
<path d="M2831 0C3103.25 0 3375.5 0 3656 0C3656 113.52 3656 227.04 3656 344C3653.24 344.919 3651.64 345.122 3648.8 345.114C3647.54 345.113 3647.54 345.113 3646.26 345.113C3645.35 345.108 3644.45 345.103 3643.52 345.098C3642.59 345.096 3641.66 345.095 3640.71 345.093C3637.74 345.088 3634.78 345.075 3631.81 345.062C3629.8 345.057 3627.79 345.053 3625.78 345.049C3620.86 345.038 3615.93 345.021 3611 345C3610.85 343.89 3610.7 342.78 3610.54 341.636C3605.15 302.018 3598.6 263.19 3585.45 225.293C3584.29 221.935 3583.33 218.581 3582.5 215.125C3580.65 208.024 3577.23 201.55 3574 195C3573.35 193.659 3572.7 192.318 3572.05 190.977C3568.51 183.747 3564.78 176.677 3560.71 169.729C3559.03 166.848 3557.48 163.981 3556.12 160.938C3551.74 151.886 3543.94 143.834 3537.59 136.121C3536 134 3536 134 3534.97 131.785C3534.07 129.644 3534.07 129.644 3531 129C3529.39 127.441 3529.39 127.441 3527.81 125.562C3527.28 124.945 3526.75 124.328 3526.21 123.691C3525 122 3525 122 3525 120C3524.4 119.734 3523.81 119.469 3523.2 119.195C3520.94 117.966 3519.61 116.752 3517.88 114.875C3507.66 104.473 3495.17 96.8815 3483 89C3482.29 88.5332 3481.57 88.0664 3480.83 87.5854C3472.28 82.0331 3463.85 78.1408 3454.2 74.8145C3451.51 73.82 3448.89 72.7007 3446.25 71.5781C3424.45 62.4142 3401.58 57.3632 3378.28 53.8594C3377.09 53.6787 3375.9 53.4981 3374.68 53.312C3371.79 52.8725 3368.89 52.4352 3366 52C3366.04 109.012 3366.09 166.023 3366.16 223.035C3366.16 223.88 3366.16 224.725 3366.16 225.596C3366.18 243.962 3366.21 262.329 3366.23 280.695C3366.24 289.703 3366.25 298.711 3366.26 307.719C3366.26 308.615 3366.26 309.512 3366.27 310.435C3366.3 339.445 3366.33 368.454 3366.35 397.463C3366.37 427.295 3366.4 457.127 3366.45 486.959C3366.45 491.181 3366.46 495.403 3366.46 499.625C3366.46 500.456 3366.47 501.286 3366.47 502.142C3366.49 515.471 3366.49 528.799 3366.5 542.128C3366.5 555.555 3366.52 568.982 3366.55 582.41C3366.56 590.369 3366.57 598.329 3366.56 606.288C3366.56 612.261 3366.57 618.234 3366.59 624.207C3366.6 626.602 3366.6 628.997 3366.59 631.391C3366.54 660.043 3367.62 691.07 3381 717C3381.56 718.091 3382.12 719.181 3382.69 720.305C3386.06 726.451 3389.96 731.574 3394.79 736.648C3397 739 3397 739 3399.36 741.977C3402.07 745.264 3405.19 747.598 3408.69 750C3409.3 750.429 3409.92 750.859 3410.55 751.301C3417.63 756.189 3424.28 760.545 3432.5 763.185C3435.06 764.018 3437.58 764.917 3440.11 765.832C3469.84 776.389 3499.78 779.63 3531 783C3531 797.85 3531 812.7 3531 828C3340.92 828 3150.84 828 2955 828C2955 813.15 2955 798.3 2955 783C2960.36 782.484 2965.72 781.969 2971.25 781.438C3014.98 777.748 3014.98 777.748 3055 762C3056.22 761.67 3057.43 761.34 3058.69 761C3063.65 759.414 3067.85 756.862 3072.25 754.125C3072.94 753.702 3073.62 753.279 3074.33 752.844C3078.39 750.26 3081.68 747.522 3085 744C3085.85 743.207 3086.7 742.414 3087.58 741.598C3103.88 726.126 3111 707.054 3115.88 685.438C3116.07 684.602 3116.26 683.767 3116.45 682.906C3120.22 664.736 3120.3 646.129 3120.28 627.658C3120.28 625.161 3120.29 622.664 3120.3 620.167C3120.31 614.776 3120.31 609.385 3120.32 603.994C3120.32 595.978 3120.33 587.962 3120.35 579.946C3120.37 566.456 3120.39 552.967 3120.4 539.477C3120.41 526.133 3120.42 512.79 3120.44 499.446C3120.44 498.614 3120.44 497.783 3120.45 496.926C3120.45 492.701 3120.46 488.477 3120.46 484.252C3120.51 454.382 3120.55 424.511 3120.58 394.641C3120.61 365.634 3120.64 336.628 3120.68 307.621C3120.68 306.726 3120.69 305.831 3120.69 304.909C3120.7 295.919 3120.71 286.928 3120.72 277.938C3120.75 259.627 3120.77 241.315 3120.8 223.003C3120.8 222.161 3120.8 221.32 3120.8 220.452C3120.88 164.302 3120.94 108.151 3121 52C3116.71 52.6459 3112.41 53.2989 3108.12 53.9577C3106.67 54.1798 3105.21 54.4002 3103.76 54.6186C3079.25 58.3053 3053.77 63.8842 3031.55 75.1953C3028.89 76.5476 3026.81 77.4177 3024 78.1875C3013.33 81.5837 3003.42 88.3972 2994.59 95.0977C2991.12 97.6449 2987.49 99.8593 2983.8 102.066C2976.16 107.338 2969.75 114.117 2963.25 120.688C2962.41 121.529 2961.58 122.37 2960.71 123.236C2959.17 124.794 2957.62 126.353 2956.07 127.913C2954.7 129.29 2953.33 130.655 2951.93 132.007C2950.02 133.974 2948.41 135.985 2946.79 138.195C2946.21 138.989 2945.63 139.782 2945.03 140.6C2944.42 141.433 2943.81 142.266 2943.19 143.125C2942.56 143.981 2941.94 144.837 2941.29 145.719C2939.52 148.142 2937.76 150.57 2936 153C2934.88 154.545 2934.88 154.545 2933.74 156.121C2928.57 163.386 2923.85 170.545 2920.79 178.947C2919.56 182.145 2917.96 185.153 2916.38 188.188C2907.22 206.155 2898.69 225.192 2894.83 245.07C2894.05 248.977 2893.01 252.801 2891.96 256.645C2884.18 285.371 2879.97 314.558 2876 344C2870.79 344.863 2865.79 345.147 2860.51 345.133C2859.34 345.134 2859.34 345.134 2858.13 345.136C2856.49 345.136 2854.85 345.135 2853.2 345.13C2850.68 345.125 2848.15 345.13 2845.63 345.137C2844.03 345.136 2842.43 345.135 2840.82 345.133C2840.07 345.135 2839.31 345.137 2838.54 345.139C2833.23 345.115 2833.23 345.115 2831 344C2831 230.48 2831 116.96 2831 0Z" fill="white"/>
</g>
<defs>
<clipPath id="clip0_2425_10188">
<rect width="3656" height="828" fill="white"/>
</clipPath>
</defs>
</svg>
