<svg width="1568" height="279" viewBox="0 0 1568 279" fill="none" xmlns="http://www.w3.org/2000/svg">
<path d="M562.763 10.8769C563.536 10.8778 564.31 10.8787 565.106 10.8797C565.991 10.8783 566.876 10.8769 567.788 10.8755C569.255 10.8809 569.255 10.8809 570.752 10.8864C571.776 10.8862 572.801 10.8861 573.856 10.8859C577.26 10.8866 580.663 10.8944 584.066 10.9023C586.419 10.9041 588.772 10.9055 591.125 10.9065C597.331 10.9104 603.537 10.9202 609.743 10.9312C616.07 10.9415 622.397 10.946 628.725 10.9511C641.15 10.9618 653.575 10.9789 666 10.9999C666.737 17.0564 667.192 23.024 667.348 29.1209C667.373 29.9937 667.399 30.8665 667.425 31.7658C667.508 34.6667 667.586 37.5678 667.664 40.4689C667.723 42.5594 667.783 44.6498 667.842 46.7402C668.003 52.4063 668.158 58.0725 668.313 63.7388C668.476 69.6934 668.643 75.6478 668.809 81.6023C669.089 91.6167 669.365 101.631 669.639 111.646C669.954 123.167 670.275 134.688 670.598 146.209C670.911 157.34 671.219 168.471 671.526 179.602C671.656 184.313 671.787 189.024 671.919 193.735C672.076 199.312 672.229 204.89 672.38 210.467C672.435 212.494 672.492 214.52 672.549 216.547C672.576 217.491 672.603 218.434 672.63 219.406C672.654 220.217 672.677 221.029 672.701 221.865C673.02 234.598 673 247.243 673 260C651.88 260 630.76 260 609 260C608.265 216.959 607.79 173.92 607.438 130.875C607.432 130.198 607.426 129.521 607.421 128.824C607.276 111.216 607.136 93.6079 607 75.9999C606.34 75.6699 605.68 75.3399 605 74.9999C604.802 76.2189 604.802 76.2189 604.601 77.4625C600.082 105.225 595.104 132.899 590.072 160.572C589.223 165.241 588.377 169.91 587.531 174.579C580.584 212.916 580.584 212.916 578.341 224.915C578.107 226.171 577.872 227.428 577.63 228.722C577.225 230.882 576.818 233.041 576.407 235.2C575.086 242.223 574.104 249.245 573.359 256.351C573 259 573 259 572 260C569.914 260.094 567.824 260.117 565.736 260.113C564.756 260.114 564.756 260.114 563.755 260.114C561.586 260.113 559.416 260.105 557.246 260.098C555.745 260.096 554.245 260.094 552.744 260.093C548.787 260.089 544.83 260.08 540.873 260.069C536.838 260.058 532.803 260.054 528.768 260.049C520.845 260.038 512.923 260.021 505 260C503.625 255.276 502.487 250.64 501.633 245.793C501.452 244.768 501.452 244.768 501.267 243.723C501.011 242.273 500.757 240.824 500.505 239.374C500.137 237.258 499.763 235.144 499.387 233.029C498.055 225.468 496.823 217.898 495.688 210.305C493.433 195.281 490.778 180.347 488.016 165.41C487.55 162.876 487.085 160.342 486.62 157.808C485.291 150.563 483.956 143.319 482.621 136.076C480.79 126.142 478.963 116.208 477.14 106.273C476.462 102.584 475.781 98.8951 475.099 95.2065C474.687 92.9658 474.276 90.7252 473.864 88.4845C473.579 86.949 473.579 86.949 473.288 85.3824C473.117 84.4482 472.946 83.514 472.77 82.5516C472.621 81.74 472.471 80.9285 472.317 80.0924C472 77.9999 472 77.9999 472 74.9999C471.01 74.9999 470.02 74.9999 469 74.9999C469.002 75.5625 469.004 76.1251 469.007 76.7048C469.036 84.6573 469.053 92.6098 469.063 100.562C469.063 101.244 469.064 101.926 469.065 102.629C469.102 136.629 468.798 170.627 468.5 204.625C468.494 205.308 468.488 205.991 468.482 206.694C468.326 224.463 468.164 242.231 468 260C446.88 260 425.76 260 404 260C404.469 229.876 404.469 229.876 404.652 219.284C404.671 218.185 404.671 218.185 404.691 217.064C405.249 185.082 405.962 153.104 406.662 121.125C406.891 110.663 407.116 100.201 407.338 89.7391C407.512 81.522 407.69 73.3051 407.87 65.0882C407.977 60.2275 408.082 55.3668 408.184 50.506C408.279 45.9859 408.378 41.466 408.48 36.946C408.516 35.294 408.551 33.642 408.585 31.99C408.631 29.7356 408.682 27.4814 408.735 25.2271C408.762 23.9684 408.789 22.7098 408.817 21.413C408.989 18.2022 409.401 15.1562 410 11.9999C423.803 11.9766 437.607 11.959 451.41 11.9481C457.819 11.9429 464.228 11.9358 470.636 11.9245C476.816 11.9136 482.995 11.9076 489.174 11.905C491.537 11.9032 493.9 11.8996 496.264 11.8942C499.561 11.887 502.858 11.8859 506.156 11.8864C507.144 11.8828 508.131 11.8792 509.149 11.8755C510.042 11.8769 510.935 11.8782 511.856 11.8797C512.636 11.8787 513.417 11.8778 514.222 11.8769C516 11.9999 516 11.9999 517 12.9999C517.311 14.5035 517.566 16.0189 517.797 17.5369C517.948 18.5179 518.1 19.4989 518.256 20.5096C518.419 21.5952 518.582 22.6808 518.75 23.7992C518.924 24.936 519.098 26.0727 519.278 27.2439C519.856 31.0291 520.428 34.8152 521 38.6015C521.299 40.5673 521.597 42.5331 521.896 44.4989C522.838 50.6965 523.776 56.8949 524.711 63.0937C525.671 69.4569 526.638 75.819 527.61 82.1806C528.446 87.6578 529.277 93.1358 530.104 98.6143C530.597 101.879 531.092 105.143 531.591 108.406C535.579 134.521 535.579 134.521 536 147C536.99 147 537.98 147 539 147C539.168 145.723 539.336 144.446 539.509 143.131C541.508 128.105 543.81 113.136 546.195 98.1679C546.592 95.6682 546.989 93.1686 547.386 90.6689C548.21 85.4845 549.035 80.3003 549.862 75.1164C550.817 69.1249 551.768 63.1327 552.716 57.1401C553.635 51.3377 554.558 45.5361 555.483 39.7347C555.874 37.2768 556.264 34.8187 556.652 32.3603C557.192 28.9521 557.736 25.5446 558.282 22.1374C558.522 20.6096 558.522 20.6096 558.767 19.0511C558.915 18.1307 559.064 17.2103 559.217 16.262C559.408 15.0563 559.408 15.0563 559.604 13.8263C560.12 11.4484 560.313 11.0479 562.763 10.8769Z" fill="white"/>
<path d="M152.07 18.2929C152.707 18.8563 153.344 19.4196 154 20C155.11 20.9532 155.11 20.9532 156.242 21.9258C165.537 30.4847 171.498 41.3118 172.096 54.0338C172.242 59.7317 172.181 65.426 172.125 71.125C172.084 77.0237 172.043 82.9225 172 89C150.55 89 129.1 89 107 89C106.505 76.13 106.505 76.13 106 63C101.626 56.4396 99.3661 54.7414 92 53C87.2826 52.6905 83.8722 53.58 79.625 55.625C75.073 59.7435 73.8546 63.8688 73.5 69.8125C73.7204 76.1086 75.9476 81.8862 80.3962 86.4243C85.1213 90.6931 90.3953 93.786 95.9375 96.875C96.8699 97.4011 97.8023 97.9272 98.7629 98.4692C104.008 101.405 109.292 104.227 114.688 106.875C163.138 130.71 163.138 130.71 173 158C176.29 168.321 176.496 178.361 176.446 189.101C176.438 191.864 176.466 194.624 176.498 197.387C176.57 215.451 173.674 230.253 160.75 243.687C139.002 264.86 109.661 268.529 80.5703 268.215C71.8089 268.041 63.4877 267.179 55 265C54.3508 264.834 53.7016 264.667 53.0327 264.496C35.4123 259.752 20.2427 250.409 10.4375 234.75C0.701637 216.791 3.00001 198.672 3.00001 178C26.1 178 49.2 178 73 178C73.33 186.58 73.66 195.16 74 204C77.5651 211.995 77.5651 211.995 83.8516 215.379C88.5955 216.75 92.4762 216.538 97.1875 214.875C101.44 212.04 104.095 208.811 106.375 204.25C107.914 196.249 106.256 190.037 101.762 183.301C93.104 171.994 78.57 166.202 66.0625 160.062C43.2899 148.813 20.4306 135.772 11.1455 110.692C8.26145 100.915 8.51216 90.9946 8.55396 80.893C8.56245 77.7705 8.53367 74.6497 8.50196 71.5273C8.43661 53.4043 9.99192 38.8658 22.8047 25.0547C51.6056 -2.5102 120.519 -7.56355 152.07 18.2929Z" fill="white"/>
<path d="M231 12C266.64 12 302.28 12 339 12C343.47 35.4672 343.47 35.4672 344.774 45.5298C347.385 64.5697 350.779 83.4802 354.069 102.412C354.987 107.699 355.899 112.987 356.812 118.274C359.514 133.923 362.224 149.57 364.936 165.216C367.056 177.45 369.174 189.684 371.285 201.92C372.367 208.195 373.455 214.468 374.546 220.741C375.221 224.629 375.892 228.516 376.562 232.404C376.873 234.205 377.186 236.005 377.5 237.806C377.93 240.262 378.353 242.72 378.774 245.178C378.9 245.888 379.025 246.599 379.155 247.331C379.838 251.359 380 254.85 380 259C357.23 259 334.46 259 311 259C309.57 251.85 308.378 244.952 307.5 237.75C307.383 236.835 307.265 235.92 307.145 234.977C306.549 230.175 306.02 225.374 305.624 220.552C304.366 205.339 302.417 190.243 300.364 175.12C299.889 171.611 299.421 168.101 298.951 164.591C297.865 156.478 296.773 148.366 295.679 140.255C294.279 129.873 292.882 119.49 291.492 109.106C290.936 104.947 290.375 100.789 289.811 96.6319C289.381 93.449 288.955 90.2655 288.529 87.082C288.373 85.9413 288.217 84.8005 288.057 83.6252C287.916 82.5717 287.776 81.5183 287.632 80.4329C287.509 79.5231 287.386 78.6132 287.26 77.6759C286.978 74.7691 286.957 71.9187 287 69C285.68 69 284.36 69 283 69C282.887 70.1309 282.774 71.2618 282.658 72.427C281.52 83.6386 280.163 94.8075 278.658 105.975C278.272 108.841 277.89 111.707 277.508 114.573C276.425 122.708 275.335 130.843 274.243 138.977C270.26 168.596 270.26 168.596 266.978 198.298C265.95 208.75 264.65 219.157 263.265 229.566C262.864 232.585 262.469 235.605 262.074 238.625C261.818 240.573 261.562 242.521 261.305 244.469C261.188 245.358 261.071 246.248 260.951 247.164C260.841 247.991 260.73 248.818 260.617 249.67C260.521 250.389 260.426 251.107 260.328 251.848C259.963 254.245 259.476 256.622 259 259C236.23 259 213.46 259 190 259C192.298 237.173 192.298 237.173 193.809 228.563C193.979 227.565 194.149 226.567 194.324 225.539C194.88 222.286 195.444 219.036 196.008 215.785C196.411 213.439 196.813 211.092 197.214 208.746C198.289 202.479 199.37 196.214 200.454 189.95C201.468 184.078 202.476 178.205 203.484 172.332C207.889 146.676 212.337 121.027 216.812 95.3828C217.187 93.2387 217.561 91.0946 217.935 88.9505C219.503 79.9639 221.073 70.9777 222.655 61.9936C223.293 58.3656 223.929 54.7372 224.563 51.1087C224.852 49.4616 225.142 47.8149 225.434 46.1684C227.084 36.8581 228.5 27.5712 229.57 18.1751C230 15 230 15 231 12Z" fill="white"/>
<path d="M707 11C719.54 11 732.08 11 745 11C760.213 56.294 760.213 56.294 766.018 76.554C769.59 88.9957 773.641 101.273 777.7 113.563C779.815 119.97 781.92 126.381 784.023 132.793C784.34 133.757 784.34 133.757 784.663 134.741C788.854 147.517 792.981 160.313 797.062 173.125C797.356 174.042 797.649 174.959 797.951 175.904C798.773 178.479 799.592 181.056 800.41 183.633C800.646 184.37 800.881 185.107 801.124 185.866C802.191 189.246 803.176 192.619 804.013 196.064C804.945 199.894 806.126 203.606 807.383 207.344C807.602 207.998 807.821 208.653 808.047 209.327C808.737 211.386 809.431 213.443 810.125 215.5C810.598 216.909 811.071 218.318 811.543 219.727C812.692 223.152 813.845 226.576 815 230C817.374 222.636 819.748 215.271 822.121 207.906C823.224 204.485 824.326 201.063 825.43 197.641C827.933 189.877 830.431 182.112 832.924 174.346C833.849 171.47 834.779 168.595 835.71 165.721C838.458 157.192 840.957 148.621 843.332 139.98C846.693 127.784 850.546 115.78 854.536 103.777C856.525 97.7907 858.494 91.7973 860.465 85.8047C860.855 84.6203 861.245 83.436 861.647 82.2157C865.072 71.8077 868.445 61.3843 871.75 50.9375C871.992 50.1716 872.235 49.4057 872.485 48.6165C875.938 37.6738 879.136 26.685 882.012 15.5742C883 12 883 12 884 11C895.88 11 907.76 11 920 11C920 93.17 920 175.34 920 260C912.41 260 904.82 260 897 260C896.67 188.06 896.34 116.12 896 42C885.152 75.8949 885.152 75.8949 875 110C873.837 113.79 872.665 117.567 871.441 121.336C870.982 122.765 870.982 122.765 870.514 124.223C869.866 126.239 869.217 128.254 868.566 130.268C867.53 133.475 866.499 136.684 865.469 139.892C862.622 148.759 859.766 157.623 856.909 166.486C854.914 172.677 852.923 178.869 850.938 185.062C850.62 186.053 850.302 187.044 849.975 188.065C846.214 199.815 842.58 211.567 839.373 223.482C836.036 235.796 831.96 247.875 828 260C819.09 260 810.18 260 801 260C800.054 257.101 799.108 254.202 798.133 251.215C797.497 249.266 796.86 247.317 796.224 245.368C794.807 241.028 793.391 236.687 791.975 232.347C788.448 221.536 784.914 210.727 781.355 199.926C779.749 195.05 778.146 190.174 776.543 185.298C775.775 182.964 775.005 180.631 774.234 178.299C773.139 174.987 772.05 171.673 770.961 168.359C770.493 166.95 770.493 166.95 770.015 165.513C767.91 159.082 766.028 152.604 764.197 146.091C761.07 135.016 757.52 124.102 753.887 113.184C753.225 111.183 752.563 109.182 751.902 107.182C750.185 101.989 748.463 96.7978 746.739 91.6071C743.964 83.2431 741.195 74.8768 738.427 66.5104C737.464 63.6027 736.499 60.6958 735.533 57.7889C734.946 56.0174 734.359 54.2459 733.772 52.4744C733.505 51.6708 733.237 50.8673 732.962 50.0394C731.859 46.7061 730.852 43.4086 730 40C729.67 112.6 729.34 185.2 729 260C721.74 260 714.48 260 707 260C707 177.83 707 95.66 707 11Z" fill="white"/>
<path d="M1122 11C1219.33 11 1219.33 11 1234.81 25.6797C1246.83 38.4085 1248.39 55.5176 1248.31 72.25C1248.31 73.5254 1248.3 74.8009 1248.3 76.115C1248.11 90.8802 1247.05 106.02 1236.7 117.562C1231.48 122.495 1224.55 129 1217 129C1217 129.66 1217 130.32 1217 131C1217.88 131.108 1218.75 131.217 1219.66 131.328C1228.95 133.196 1237.62 139.418 1243.06 147.062C1251.53 160.483 1253.39 174.137 1253.31 189.75C1253.31 191.593 1253.31 191.593 1253.3 193.473C1253.05 213.077 1248.8 229.918 1235.33 244.758C1207.23 271.773 1151.5 260 1122 260C1122 177.83 1122 95.66 1122 11ZM1146 32C1146 61.04 1146 90.08 1146 120C1158.34 120.093 1158.34 120.093 1170.94 120.188C1173.52 120.215 1176.1 120.242 1178.76 120.27C1180.83 120.279 1182.9 120.287 1184.96 120.293C1186.02 120.308 1187.08 120.324 1188.16 120.339C1199.05 120.343 1205.89 117.975 1213.77 110.387C1223.43 100.052 1224.52 87.8137 1224.45 74.1931C1224.44 71.9371 1224.47 69.6835 1224.5 67.4277C1224.55 56.8189 1223.28 47.589 1215.77 39.5352C1209.4 34.0139 1202.82 31.8669 1194.48 31.8865C1193.38 31.8866 1192.28 31.8867 1191.15 31.8868C1189.44 31.8945 1189.44 31.8945 1187.7 31.9023C1186.11 31.9039 1186.11 31.9039 1184.5 31.9054C1180.56 31.9106 1176.62 31.9246 1172.69 31.9375C1163.88 31.9581 1155.07 31.9787 1146 32ZM1146 141C1146 173.34 1146 205.68 1146 239C1186.03 242.122 1186.03 242.122 1221.31 226.188C1231.43 212.815 1230.75 192.102 1228.65 176.386C1226.59 164.763 1222.24 155.572 1213 148C1193.28 135.423 1168.01 141 1146 141Z" fill="white"/>
<path d="M1066.55 17.9649C1087.33 35.254 1092.07 61.2508 1094.58 86.8015C1095.32 95.1939 1095.31 103.589 1095.3 112.008C1095.3 113.871 1095.31 115.735 1095.31 117.598C1095.32 121.476 1095.32 125.353 1095.32 129.231C1095.31 133.15 1095.32 137.068 1095.34 140.987C1095.7 220.078 1095.7 220.078 1074 245C1072.86 246.578 1072.86 246.578 1071.69 248.188C1059.35 261.104 1041.67 264.256 1024.62 265.184C1004.73 265.598 985.422 261.293 970.687 247.25C960.337 236.284 956.413 224.957 953.437 210.5C953.229 209.538 953.021 208.577 952.807 207.586C949.524 191.82 948.686 176.333 948.699 160.277C948.695 158.319 948.691 156.361 948.686 154.402C948.679 150.32 948.679 146.238 948.684 142.157C948.689 138.023 948.682 133.89 948.664 129.756C948.302 46.9929 948.302 46.9929 971 23.0001C994.55 0.70396 1040.51 -1.26497 1066.55 17.9649ZM1001 30.0001C999.935 30.4003 999.935 30.4003 998.848 30.8087C988.539 35.2604 982.973 44.0955 978.739 54.1148C972.628 69.7087 971.738 86.6287 971.375 103.188C971.337 104.677 971.3 106.167 971.262 107.656C970.922 121.771 970.814 135.882 971 150C971.009 150.685 971.017 151.369 971.026 152.075C970.727 196.463 970.727 196.463 990.312 234.938C999.09 243.091 1012.72 244.452 1024.21 244.188C1035.88 243.402 1047.95 241.136 1056 232C1069.55 214.213 1071.42 193.4 1071.69 171.875C1071.72 170.003 1071.75 168.132 1071.79 166.26C1071.88 160.84 1071.94 155.42 1072 150C1072.02 148.599 1072.03 147.198 1072.05 145.797C1072.13 137.909 1072.11 130.025 1072.02 122.137C1072 119.778 1071.98 117.42 1071.96 115.062C1071.93 110.561 1071.86 106.061 1071.79 101.561C1071.76 99.8115 1071.74 98.0617 1071.73 96.3118C1071.55 76.3811 1069.7 52.9606 1055 38.0001C1043.15 27.4659 1029.47 25.9723 1014.24 26.8111C1009.56 27.206 1005.35 28.2545 1001 30.0001Z" fill="white"/>
<path d="M1454 11C1490.63 11 1527.26 11 1565 11C1565 17.93 1565 24.86 1565 32C1535.96 32 1506.92 32 1477 32C1477 61.37 1477 90.74 1477 121C1504.27 120.96 1504.27 120.96 1531.54 120.91C1536.8 120.905 1536.8 120.905 1539.27 120.905C1540.99 120.903 1542.72 120.899 1544.44 120.894C1547.05 120.887 1549.66 120.886 1552.27 120.886C1553.04 120.883 1553.82 120.879 1554.61 120.876C1559.89 120.886 1559.89 120.886 1561 122C1561 128.6 1561 135.2 1561 142C1533.28 142 1505.56 142 1477 142C1477 174.01 1477 206.02 1477 239C1506.25 238.96 1506.25 238.96 1535.49 238.91C1541.13 238.905 1541.13 238.905 1543.77 238.905C1545.62 238.903 1547.48 238.899 1549.33 238.894C1552.12 238.887 1554.92 238.886 1557.72 238.886C1558.96 238.881 1558.96 238.881 1560.23 238.876C1565.89 238.886 1565.89 238.886 1567 240C1567 246.6 1567 253.2 1567 260C1529.71 260 1492.42 260 1454 260C1454 177.83 1454 95.66 1454 11Z" fill="white"/>
<path d="M1336 11C1343.59 11 1351.18 11 1359 11C1359 86.24 1359 161.48 1359 239C1385.07 239 1411.14 239 1438 239C1438 245.93 1438 252.86 1438 260C1404.34 260 1370.68 260 1336 260C1336 177.83 1336 95.66 1336 11Z" fill="white"/>
<path d="M1279 11C1286.59 11 1294.18 11 1302 11C1302 93.17 1302 175.34 1302 260C1294.41 260 1286.82 260 1279 260C1279 177.83 1279 95.66 1279 11Z" fill="white"/>
</svg>
