<svg width="1500" height="500" viewBox="0 0 1500 500" fill="none" xmlns="http://www.w3.org/2000/svg">
<g clip-path="url(#clip0_2425_10157)">
<path d="M243.733 126.292C247.655 129.348 251.357 132.619 255 136C255.854 136.789 255.854 136.789 256.726 137.593C280.774 160.049 296.542 188.708 303 221C303.336 222.651 303.336 222.651 303.68 224.336C310.458 264.914 300.202 306.379 276.74 339.795C252.585 373.4 216.609 395.068 175.977 402.105C168.075 403.265 160.218 403.441 152.25 403.437C151.488 403.438 150.726 403.439 149.94 403.44C108.453 403.335 71.7441 386.569 42 358C27.5105 343.387 16.5756 326.257 8.75 307.25C8.44506 306.526 8.14012 305.802 7.82593 305.056C6.77652 302.397 5.87344 299.723 5 297C4.68341 296.02 4.68341 296.02 4.36042 295.02C0.0829906 281.348 -0.784016 268.271 -0.651851 254.001C-0.625046 250.569 -0.651749 247.141 -0.683589 243.709C-0.712298 225.942 1.74015 209.133 8.75 192.687C9.08726 191.874 9.42451 191.06 9.77198 190.222C23.141 158.815 46.3035 132.785 76 116C76.6363 115.639 77.2726 115.278 77.9282 114.907C129.473 86.2325 196.555 91.1145 243.733 126.292ZM90 166C85.5796 172.576 82.8735 177.486 82.8798 185.511C82.8789 186.175 82.878 186.839 82.8772 187.523C82.8755 189.753 82.881 191.982 82.8865 194.212C82.8868 195.808 82.8866 197.405 82.886 199.001C82.8858 203.34 82.8916 207.678 82.8986 212.017C82.9049 216.549 82.9055 221.081 82.9066 225.614C82.9097 234.199 82.918 242.783 82.928 251.368C82.9392 261.141 82.9447 270.913 82.9497 280.686C82.9601 300.79 82.9777 320.895 83 341C84.8918 341.681 84.8918 341.681 87 342C89.2766 340.15 89.2766 340.15 89.2477 337.299C89.2468 336.141 89.2458 334.983 89.2448 333.791C89.2482 332.825 89.2482 332.825 89.2517 331.839C89.257 329.671 89.2481 327.504 89.2395 325.336C89.2406 323.785 89.2427 322.235 89.2456 320.684C89.2503 317.339 89.2492 313.993 89.2438 310.648C89.2362 305.352 89.2469 300.057 89.261 294.761C89.2988 279.7 89.317 264.638 89.3054 249.577C89.2992 241.263 89.3108 232.949 89.3419 224.636C89.3605 219.378 89.3572 214.121 89.3377 208.863C89.3308 205.58 89.3448 202.296 89.3646 199.012C89.3697 197.497 89.3663 195.983 89.3535 194.468C89.2748 184.407 90.1204 176.005 97.4375 168.5C103.147 165.158 108.284 164.705 114.724 164.725C115.58 164.72 116.436 164.715 117.318 164.71C120.137 164.696 122.955 164.697 125.773 164.699C127.741 164.695 129.709 164.691 131.676 164.686C135.797 164.679 139.918 164.679 144.038 164.684C149.306 164.69 154.574 164.673 159.841 164.65C163.904 164.635 167.967 164.634 172.03 164.637C173.972 164.637 175.914 164.632 177.855 164.622C180.576 164.609 183.296 164.616 186.017 164.628C186.811 164.62 187.605 164.612 188.423 164.605C194.504 164.661 200.168 165.693 205.023 169.648C205.469 170.218 205.915 170.788 206.375 171.375C207.067 172.222 207.067 172.222 207.773 173.086C211.017 178.148 211.303 182.846 211.319 188.738C211.334 190.041 211.334 190.041 211.349 191.37C211.38 194.233 211.397 197.095 211.414 199.957C211.433 201.945 211.452 203.934 211.473 205.922C211.524 211.148 211.564 216.374 211.601 221.6C211.641 226.936 211.692 232.272 211.742 237.607C211.839 248.072 211.923 258.536 212 269C213.883 270.108 213.883 270.108 216 271C216.66 270.67 217.32 270.34 218 270C218.116 258.177 218.205 246.355 218.259 234.532C218.285 229.042 218.32 223.551 218.377 218.061C218.432 212.757 218.461 207.454 218.474 202.149C218.484 200.131 218.502 198.113 218.529 196.095C218.964 179.722 218.964 179.722 211.039 165.885C204.313 159.264 196.941 157.546 187.805 157.596C186.923 157.589 186.04 157.582 185.131 157.575C182.236 157.557 179.341 157.561 176.445 157.566C174.418 157.562 172.391 157.557 170.363 157.551C166.122 157.542 161.881 157.544 157.639 157.554C152.223 157.565 146.808 157.545 141.393 157.516C137.208 157.498 133.023 157.498 128.838 157.504C126.842 157.504 124.847 157.498 122.851 157.485C104.929 157.094 104.929 157.094 90 166ZM102 181C100.401 184.199 100.639 187.521 101 191C102.401 194.503 103.629 195.747 106.75 197.875C110.738 199.255 112.942 199.107 117 198C120.34 195.847 122.918 193.897 124 190C123.92 184.962 123.806 182.972 120.563 179.062C116.991 176.188 114.745 175.607 110.105 175.641C106.384 176.276 104.597 178.34 102 181ZM102 211C100.399 214.201 100.645 217.519 101 221C102.462 224.869 103.683 225.82 107.313 227.875C111.265 229.081 113.103 229.271 117 228C120.847 225.552 122.957 223.485 124 219C123.919 214.468 123.503 212.578 120.5 209.125C119.263 208.073 119.263 208.073 118 207C117.67 206.67 117.34 206.34 117 206C110.219 205.001 106.701 206.064 102 211ZM102 241C100.38 244.239 100.434 247.499 101 251C103.403 254.932 105.195 256.627 109.375 258.562C113.896 259.108 116.083 258.26 120 256C122.542 253.628 122.994 252.024 123.875 248.625C124.047 243.638 122.601 240.847 119.375 237.125C112.419 233.83 107.051 235.697 102 241ZM135.214 287.907C133.822 290.307 133.61 291.731 133.58 294.49C133.564 295.371 133.548 296.252 133.532 297.16C133.532 298.105 133.531 299.05 133.531 300.023C133.524 301.002 133.516 301.981 133.508 302.99C133.497 305.059 133.495 307.129 133.499 309.198C133.5 312.357 133.458 315.513 133.414 318.672C133.409 320.685 133.406 322.698 133.406 324.711C133.39 325.652 133.373 326.593 133.357 327.562C133.403 331.961 133.558 335.054 136.35 338.581C140.409 342.286 143.461 342.132 148.779 342.161C149.806 342.169 149.806 342.169 150.854 342.176C153.119 342.191 155.384 342.198 157.648 342.203C159.224 342.209 160.8 342.215 162.375 342.22C165.679 342.231 168.982 342.237 172.286 342.24C176.515 342.246 180.744 342.27 184.973 342.298C188.228 342.317 191.483 342.322 194.738 342.324C196.296 342.327 197.855 342.335 199.414 342.348C201.597 342.365 203.779 342.363 205.962 342.356C207.204 342.36 208.445 342.364 209.723 342.367C214.235 341.862 216.85 340.338 219.788 336.92C221.541 332.697 221.429 328.812 221.398 324.281C221.401 323.346 221.404 322.41 221.407 321.446C221.409 319.473 221.404 317.499 221.391 315.526C221.375 312.51 221.391 309.496 221.41 306.48C221.408 304.56 221.404 302.639 221.398 300.719C221.405 299.82 221.411 298.921 221.417 297.994C221.363 293.219 221.247 289.778 218 286C213.944 283.004 210.989 282.621 205.994 282.612C205.309 282.607 204.624 282.601 203.918 282.596C201.664 282.583 199.41 282.591 197.156 282.602C195.584 282.6 194.011 282.597 192.438 282.593C189.146 282.588 185.855 282.595 182.563 282.609C178.35 282.626 174.137 282.616 169.923 282.598C166.677 282.587 163.431 282.591 160.185 282.599C158.631 282.601 157.078 282.598 155.525 282.591C153.351 282.583 151.179 282.595 149.006 282.612C147.771 282.614 146.536 282.617 145.263 282.619C140.763 283.144 138.285 284.629 135.214 287.907Z" fill="white"/>
<path d="M470.048 176.839C470.868 176.834 471.688 176.829 472.532 176.824C475.247 176.809 477.961 176.802 480.676 176.797C482.563 176.791 484.45 176.785 486.337 176.78C490.295 176.769 494.254 176.763 498.213 176.76C503.28 176.754 508.347 176.73 513.415 176.702C517.314 176.683 521.213 176.678 525.112 176.676C526.98 176.673 528.848 176.665 530.716 176.652C533.332 176.635 535.947 176.637 538.564 176.644C539.716 176.63 539.716 176.63 540.893 176.616C546.516 176.659 550.62 177.854 554.828 181.648C555.297 182.218 555.766 182.788 556.25 183.375C556.729 183.94 557.209 184.504 557.703 185.086C561.657 190.922 561.165 196.165 561 203C555.72 203 550.44 203 545 203C544.805 200.982 544.609 198.964 544.414 196.945C544.136 194.773 544.136 194.773 542 193C538.822 192.692 538.822 192.692 535.027 192.741C534.31 192.738 533.593 192.734 532.854 192.731C530.477 192.722 528.1 192.728 525.723 192.734C524.074 192.733 522.424 192.731 520.775 192.729C517.316 192.726 513.857 192.73 510.398 192.739C505.961 192.751 501.525 192.744 497.088 192.732C493.681 192.725 490.275 192.727 486.868 192.732C485.232 192.734 483.596 192.732 481.96 192.727C479.674 192.722 477.388 192.73 475.102 192.741C473.8 192.743 472.498 192.744 471.157 192.746C467.84 192.755 467.84 192.755 465 195C464.582 198.008 464.582 198.008 464.707 201.539C464.717 202.841 464.726 204.143 464.736 205.484C464.761 206.865 464.787 208.245 464.812 209.625C464.827 211.013 464.841 212.401 464.853 213.789C464.889 217.193 464.938 220.596 465 224C465.997 224.004 466.994 224.007 468.021 224.011C477.437 224.048 486.853 224.106 496.269 224.184C501.109 224.223 505.949 224.256 510.789 224.271C515.465 224.286 520.139 224.321 524.814 224.368C526.594 224.383 528.373 224.391 530.153 224.392C532.655 224.394 535.155 224.421 537.656 224.454C538.385 224.449 539.113 224.444 539.864 224.439C546.161 224.565 551.535 226.564 556.059 231.035C556.514 231.704 556.969 232.373 557.437 233.062C557.91 233.734 558.384 234.406 558.871 235.098C561.247 239.101 561.191 242.94 561.238 247.449C561.246 248.181 561.254 248.912 561.263 249.666C561.276 251.215 561.287 252.764 561.295 254.313C561.307 255.887 561.327 257.461 561.357 259.035C561.689 276.686 561.689 276.686 555.184 284.059C554.607 284.514 554.031 284.969 553.437 285.437C552.859 285.911 552.28 286.384 551.684 286.871C547.733 289.52 543.544 289.168 538.984 289.193C538.167 289.201 537.35 289.209 536.509 289.218C533.804 289.242 531.099 289.259 528.394 289.273C527.469 289.279 526.544 289.284 525.591 289.29C520.693 289.316 515.795 289.336 510.897 289.35C506.849 289.363 502.802 289.391 498.755 289.432C493.862 289.481 488.97 289.506 484.078 289.513C482.217 289.52 480.356 289.535 478.496 289.559C475.884 289.591 473.275 289.591 470.663 289.583C469.902 289.6 469.141 289.616 468.356 289.633C462.475 289.565 458.606 287.6 454 284C449.199 279.073 447.894 274.38 447.875 267.625C447.916 266.099 447.957 264.572 448 263C453.28 263 458.56 263 464 263C464.163 265.018 464.325 267.036 464.488 269.055C464.874 271.395 464.874 271.395 468 273C471.236 273.306 471.236 273.306 474.994 273.259C476.055 273.264 476.055 273.264 477.138 273.269C479.478 273.278 481.817 273.272 484.156 273.266C485.781 273.267 487.407 273.269 489.032 273.271C492.438 273.274 495.844 273.27 499.25 273.261C503.619 273.249 507.987 273.256 512.355 273.268C515.711 273.275 519.067 273.273 522.423 273.268C524.034 273.266 525.644 273.268 527.255 273.273C529.505 273.278 531.755 273.27 534.006 273.259C535.287 273.257 536.568 273.256 537.888 273.254C541.166 273.24 541.166 273.24 544 271C544.434 268.107 544.434 268.107 544.328 264.715C544.32 262.836 544.32 262.836 544.312 260.92C544.292 259.606 544.271 258.291 544.25 256.937C544.242 254.96 544.242 254.96 544.234 252.943C544.756 247.09 544.756 247.09 543 242C540.573 241.891 538.173 241.846 535.746 241.842C534.986 241.837 534.227 241.832 533.444 241.827C531.789 241.816 530.133 241.808 528.478 241.801C525.854 241.789 523.231 241.77 520.608 241.748C513.147 241.686 505.686 241.632 498.225 241.599C493.666 241.578 489.107 241.542 484.547 241.498C482.812 241.484 481.076 241.475 479.34 241.472C476.903 241.467 474.467 241.444 472.031 241.416C470.963 241.421 470.963 241.421 469.873 241.426C462.799 241.309 457.11 238.969 452 234C447.589 226.439 447.783 219.424 447.76 210.893C447.75 208.771 447.719 206.649 447.687 204.527C447.562 189.041 447.562 189.041 452.937 182.723C453.618 182.175 454.299 181.627 455 181.062C455.681 180.497 456.361 179.931 457.062 179.348C461.135 176.515 465.293 176.846 470.048 176.839Z" fill="white"/>
<path d="M830 198C859.587 197.839 859.587 197.839 874.238 197.799C882.151 197.777 890.063 197.749 897.976 197.698C904.242 197.658 910.509 197.633 916.775 197.624C920.09 197.618 923.404 197.604 926.719 197.577C930.429 197.548 934.139 197.544 937.849 197.546C938.935 197.532 940.021 197.517 941.14 197.502C948.873 197.544 956.329 198.685 962.254 204.035C962.686 204.704 963.118 205.373 963.562 206.062C964.018 206.734 964.473 207.406 964.941 208.098C967.189 212.137 967.137 215.834 967.114 220.317C967.114 221.059 967.114 221.801 967.114 222.565C967.113 225.016 967.105 227.467 967.098 229.918C967.096 231.618 967.094 233.317 967.093 235.017C967.09 239.49 967.08 243.963 967.069 248.437C967.058 253.001 967.054 257.566 967.049 262.131C967.038 271.087 967.021 280.044 967 289C961.72 289 956.44 289 951 289C950.67 264.91 950.34 240.82 950 216C946.739 214.369 943.145 214.858 939.562 214.867C938.727 214.866 937.891 214.865 937.03 214.864C935.261 214.864 933.492 214.865 931.724 214.87C929.011 214.875 926.299 214.87 923.586 214.863C921.87 214.864 920.154 214.865 918.438 214.867C917.623 214.865 916.808 214.863 915.969 214.861C911.852 214.774 911.852 214.774 908 216C907.67 240.09 907.34 264.18 907 289C901.39 289 895.78 289 890 289C889.67 264.91 889.34 240.82 889 216C885.739 214.369 882.145 214.858 878.562 214.867C877.727 214.866 876.891 214.865 876.03 214.864C874.261 214.864 872.492 214.865 870.724 214.87C868.011 214.875 865.299 214.87 862.586 214.863C860.87 214.864 859.154 214.865 857.438 214.867C856.623 214.865 855.808 214.863 854.969 214.861C850.852 214.774 850.852 214.774 847 216C846.67 240.09 846.34 264.18 846 289C840.72 289 835.44 289 830 289C830 258.97 830 228.94 830 198Z" fill="white"/>
<path d="M1110.39 176.612C1111.21 176.607 1112.03 176.601 1112.87 176.596C1115.57 176.583 1118.27 176.591 1120.97 176.602C1122.85 176.6 1124.73 176.597 1126.62 176.593C1130.56 176.588 1134.5 176.595 1138.44 176.609C1143.48 176.626 1148.53 176.616 1153.57 176.598C1157.46 176.587 1161.34 176.591 1165.23 176.599C1167.09 176.601 1168.95 176.598 1170.81 176.591C1173.41 176.583 1176.01 176.595 1178.61 176.612C1179.38 176.606 1180.14 176.6 1180.93 176.593C1186.73 176.662 1190.82 177.967 1195.08 181.938C1195.65 182.618 1196.22 183.299 1196.81 184C1197.4 184.681 1197.98 185.361 1198.58 186.063C1202.22 191.033 1201.06 197.132 1201 203C1195.72 203 1190.44 203 1185 203C1184.67 199.7 1184.34 196.4 1184 193C1174.14 192.954 1164.29 192.918 1154.43 192.896C1149.85 192.886 1145.27 192.872 1140.7 192.849C1136.28 192.827 1131.87 192.815 1127.45 192.81C1125.76 192.807 1124.08 192.799 1122.39 192.789C1120.03 192.774 1117.68 192.772 1115.32 192.773C1114.62 192.766 1113.92 192.759 1113.2 192.751C1109.56 192.767 1108.12 192.921 1105 195C1104.7 197.473 1104.59 199.696 1104.61 202.172C1104.6 203.279 1104.6 203.279 1104.6 204.409C1104.58 206.856 1104.59 209.303 1104.6 211.75C1104.6 213.446 1104.6 215.143 1104.59 216.839C1104.59 220.397 1104.59 223.954 1104.61 227.512C1104.63 232.079 1104.62 236.645 1104.6 241.212C1104.59 244.715 1104.59 248.219 1104.6 251.722C1104.6 253.406 1104.6 255.091 1104.59 256.775C1104.58 259.126 1104.6 261.477 1104.61 263.828C1104.61 264.528 1104.6 265.229 1104.59 265.95C1104.59 268.09 1104.59 268.09 1105 271C1108.71 273.47 1110.57 273.253 1114.99 273.259C1116.06 273.264 1116.06 273.264 1117.14 273.269C1119.48 273.278 1121.82 273.272 1124.16 273.266C1125.78 273.267 1127.41 273.269 1129.03 273.271C1132.44 273.274 1135.84 273.27 1139.25 273.261C1143.62 273.249 1147.99 273.256 1152.35 273.268C1155.71 273.275 1159.07 273.273 1162.42 273.268C1164.03 273.266 1165.64 273.268 1167.26 273.273C1169.51 273.278 1171.76 273.27 1174.01 273.259C1175.29 273.257 1176.57 273.256 1177.89 273.254C1181.17 273.24 1181.17 273.24 1184 271C1184.51 268.192 1184.51 268.192 1184.51 264.898C1184.56 263.261 1184.56 263.261 1184.61 261.591C1184.64 260.2 1184.66 258.809 1184.69 257.375C1184.79 252.961 1184.89 248.548 1185 244C1176.09 244 1167.18 244 1158 244C1158 238.72 1158 233.44 1158 228C1172.19 228 1186.38 228 1201 228C1201.12 234.548 1201.21 241.093 1201.27 247.641C1201.3 249.866 1201.33 252.091 1201.38 254.316C1201.44 257.523 1201.47 260.73 1201.49 263.938C1201.53 265.418 1201.53 265.418 1201.57 266.928C1201.57 274.352 1199.72 279.263 1194.45 284.558C1189.46 288.925 1185.34 289.158 1178.98 289.193C1178.17 289.201 1177.35 289.209 1176.51 289.218C1173.8 289.243 1171.1 289.259 1168.39 289.273C1167.47 289.279 1166.54 289.284 1165.59 289.29C1160.69 289.316 1155.8 289.336 1150.9 289.35C1146.85 289.363 1142.8 289.391 1138.75 289.432C1133.86 289.482 1128.97 289.506 1124.08 289.513C1122.22 289.52 1120.36 289.535 1118.5 289.559C1115.88 289.591 1113.27 289.591 1110.66 289.584C1109.9 289.6 1109.14 289.616 1108.36 289.633C1101.33 289.552 1096.52 286.523 1091.62 281.625C1088.25 276.165 1087.7 270.463 1087.73 264.172C1087.72 263.423 1087.72 262.674 1087.71 261.903C1087.7 259.447 1087.7 256.991 1087.7 254.535C1087.7 252.816 1087.69 251.096 1087.69 249.376C1087.68 245.78 1087.68 242.183 1087.68 238.586C1087.69 233.992 1087.67 229.398 1087.65 224.804C1087.64 221.255 1087.63 217.706 1087.64 214.157C1087.64 212.463 1087.63 210.77 1087.62 209.077C1087.61 206.704 1087.62 204.331 1087.63 201.957C1087.62 201.268 1087.61 200.578 1087.6 199.868C1087.69 191.832 1090.38 185.622 1096 180C1100.78 177.03 1104.89 176.568 1110.39 176.612Z" fill="white"/>
<path d="M681 198C710.668 197.879 710.668 197.879 725.339 197.849C733.268 197.833 741.198 197.812 749.127 197.774C755.406 197.744 761.684 197.724 767.963 197.718C771.286 197.714 774.608 197.703 777.931 197.683C781.646 197.661 785.361 197.658 789.076 197.659C790.716 197.643 790.716 197.643 792.389 197.627C801.532 197.664 808.397 199.397 815 206C817.828 210.609 818.422 214.451 818.341 219.749C818.341 220.501 818.341 221.253 818.342 222.028C818.34 224.495 818.317 226.962 818.293 229.43C818.287 231.147 818.283 232.865 818.28 234.583C818.269 239.091 818.239 243.598 818.206 248.106C818.175 252.711 818.162 257.317 818.146 261.922C818.114 270.948 818.062 279.974 818 289C813.05 289 808.1 289 803 289C802.97 285.744 802.97 285.744 802.94 282.422C802.873 275.262 802.795 268.101 802.712 260.941C802.662 256.598 802.616 252.255 802.578 247.913C802.541 243.724 802.495 239.535 802.442 235.347C802.423 233.746 802.408 232.146 802.397 230.546C802.38 228.309 802.351 226.073 802.319 223.836C802.306 222.562 802.292 221.287 802.278 219.974C802.308 216.883 802.308 216.883 800 215C796.916 214.824 793.92 214.769 790.836 214.805C789.63 214.808 789.63 214.808 788.4 214.811C785.391 214.821 782.383 214.849 779.375 214.875C772.651 214.916 765.927 214.957 759 215C758.67 239.42 758.34 263.84 758 289C752.72 289 747.44 289 742 289C741.97 285.744 741.97 285.744 741.94 282.422C741.873 275.262 741.795 268.101 741.712 260.941C741.662 256.598 741.616 252.255 741.578 247.913C741.541 243.724 741.495 239.535 741.442 235.347C741.423 233.746 741.408 232.146 741.397 230.546C741.38 228.309 741.351 226.073 741.319 223.836C741.306 222.562 741.292 221.287 741.278 219.974C741.308 216.883 741.308 216.883 739 215C736.083 214.8 733.262 214.72 730.344 214.734C729.057 214.731 729.057 214.731 727.744 214.729C725.928 214.727 724.112 214.731 722.296 214.739C719.511 214.75 716.727 214.739 713.941 214.727C712.18 214.728 710.418 214.73 708.656 214.734C707.402 214.728 707.402 214.728 706.121 214.722C701.585 214.56 701.585 214.56 698 217C697.667 220.117 697.667 220.117 697.681 223.836C697.671 224.539 697.661 225.241 697.651 225.965C697.62 228.292 697.603 230.618 697.586 232.945C697.567 234.557 697.548 236.168 697.527 237.779C697.476 242.024 697.436 246.269 697.399 250.514C697.359 254.844 697.308 259.174 697.258 263.504C697.161 272.002 697.078 280.501 697 289C691.72 289 686.44 289 681 289C681 258.97 681 228.94 681 198Z" fill="white"/>
<path d="M576 198C585.771 197.932 595.542 197.877 605.313 197.845C609.851 197.829 614.388 197.808 618.926 197.774C623.309 197.741 627.692 197.723 632.075 197.715C633.743 197.71 635.411 197.699 637.079 197.683C639.425 197.661 641.77 197.658 644.115 197.659C645.138 197.643 645.138 197.643 646.182 197.627C652.122 197.664 657.576 199.019 662.242 202.832C662.781 203.486 663.32 204.139 663.875 204.812C664.429 205.458 664.984 206.104 665.555 206.77C668.808 211.79 669.247 216.594 669.227 222.474C669.227 223.197 669.228 223.919 669.228 224.664C669.227 227.034 669.211 229.404 669.195 231.773C669.192 233.424 669.189 235.074 669.187 236.725C669.179 241.055 669.16 245.385 669.137 249.716C669.117 254.14 669.108 258.564 669.098 262.988C669.076 271.659 669.042 280.329 669 289C658.838 289.116 648.676 289.205 638.514 289.259C633.794 289.285 629.075 289.32 624.356 289.377C619.798 289.432 615.24 289.461 610.682 289.474C608.946 289.484 607.211 289.502 605.476 289.529C589.074 289.774 589.074 289.774 583.402 285.424C569.865 271.669 576 257.253 576 236C601.41 236 626.82 236 653 236C653.814 224.469 653.814 224.469 650 215C646.802 214.667 646.802 214.667 642.98 214.681C642.258 214.671 641.536 214.661 640.792 214.651C638.4 214.62 636.009 214.603 633.617 214.586C631.961 214.567 630.305 214.548 628.649 214.527C624.286 214.476 619.922 214.436 615.559 214.399C611.108 214.359 606.658 214.308 602.207 214.258C593.472 214.161 584.736 214.078 576 214C576 208.72 576 203.44 576 198ZM592 251C592 257.6 592 264.2 592 271C593.825 273.248 593.825 273.248 596.481 273.24C597.524 273.236 598.568 273.232 599.643 273.227C600.824 273.227 602.005 273.227 603.222 273.227C604.502 273.216 605.783 273.206 607.102 273.195C608.408 273.192 609.715 273.19 611.061 273.187C614.537 273.179 618.012 273.159 621.488 273.137C625.033 273.117 628.579 273.108 632.125 273.098C639.084 273.076 646.042 273.041 653 273C653 265.74 653 258.48 653 251C632.87 251 612.74 251 592 251Z" fill="white"/>
<path d="M980 199C985.28 199 990.56 199 996 199C996.025 201.176 996.05 203.352 996.076 205.594C996.159 212.766 996.248 219.939 996.339 227.111C996.395 231.462 996.448 235.812 996.497 240.163C996.545 244.358 996.597 248.553 996.653 252.748C996.673 254.352 996.692 255.956 996.709 257.56C996.733 259.799 996.763 262.038 996.795 264.277C996.818 266.192 996.818 266.192 996.842 268.146C996.676 270.899 996.676 270.899 998 272C999.78 272.094 1001.56 272.117 1003.35 272.114C1004.5 272.113 1005.66 272.113 1006.85 272.113C1008.08 272.108 1009.3 272.103 1010.57 272.098C1012.25 272.096 1012.25 272.096 1013.96 272.095C1018.16 272.089 1022.36 272.075 1026.56 272.062C1035.95 272.042 1045.33 272.021 1055 272C1055.33 247.91 1055.66 223.82 1056 199C1061.28 199 1066.56 199 1072 199C1072.07 213.369 1072.12 227.738 1072.16 242.107C1072.17 248.779 1072.19 255.451 1072.23 262.123C1072.26 268.562 1072.28 275 1072.28 281.439C1072.29 283.895 1072.3 286.352 1072.32 288.809C1072.34 292.249 1072.34 295.689 1072.34 299.129C1072.35 300.146 1072.36 301.162 1072.37 302.209C1072.34 309.093 1071.3 313.396 1066.62 318.688C1061.99 322.773 1058.89 324.378 1052.65 324.341C1050.76 324.34 1050.76 324.34 1048.83 324.34C1047.46 324.325 1046.1 324.309 1044.73 324.293C1043.33 324.287 1041.92 324.283 1040.51 324.28C1036.83 324.269 1033.14 324.239 1029.45 324.206C1025.68 324.175 1021.92 324.162 1018.15 324.146C1010.77 324.114 1003.38 324.062 996 324C996 318.72 996 313.44 996 308C1015.8 307.67 1035.6 307.34 1056 307C1056 301.06 1056 295.12 1056 289C1054.15 289.016 1052.31 289.031 1050.4 289.048C1044.29 289.096 1038.17 289.13 1032.06 289.155C1028.35 289.171 1024.65 289.192 1020.94 289.226C1017.36 289.259 1013.78 289.277 1010.2 289.285C1008.84 289.29 1007.48 289.301 1006.12 289.317C1004.2 289.339 1002.29 289.34 1000.37 289.341C999.284 289.347 998.196 289.354 997.075 289.361C991.502 288.707 987.737 286.231 984.187 282C983.603 281.319 983.02 280.639 982.418 279.938C979.598 276.084 979.863 272.244 979.886 267.683C979.886 266.941 979.886 266.199 979.886 265.435C979.887 262.984 979.894 260.533 979.902 258.082C979.904 256.382 979.906 254.683 979.907 252.983C979.91 248.51 979.92 244.037 979.931 239.563C979.941 234.999 979.946 230.434 979.951 225.869C979.962 216.913 979.979 207.956 980 199Z" fill="white"/>
<path d="M1406 198C1411.28 198 1416.56 198 1422 198C1422.5 234.63 1422.5 234.63 1423 272C1432.38 272.021 1441.77 272.041 1451.44 272.062C1454.4 272.072 1457.37 272.081 1460.43 272.09C1462.76 272.093 1465.1 272.096 1467.43 272.098C1469.27 272.105 1469.27 272.105 1471.15 272.113C1472.88 272.113 1472.88 272.113 1474.65 272.114C1475.66 272.116 1476.67 272.118 1477.72 272.12C1479.97 272.257 1479.97 272.257 1481 271C1481.12 268.731 1481.18 266.458 1481.21 264.185C1481.22 263.473 1481.23 262.761 1481.24 262.027C1481.27 259.663 1481.29 257.298 1481.32 254.934C1481.34 253.298 1481.36 251.663 1481.38 250.028C1481.43 245.716 1481.48 241.404 1481.53 237.091C1481.58 232.694 1481.64 228.297 1481.69 223.9C1481.8 215.267 1481.9 206.634 1482 198C1487.28 198 1492.56 198 1498 198C1498.09 207.771 1498.16 217.542 1498.21 227.313C1498.23 231.851 1498.26 236.388 1498.3 240.926C1498.35 245.309 1498.37 249.692 1498.38 254.075C1498.39 255.743 1498.4 257.411 1498.42 259.079C1498.64 276.738 1498.64 276.738 1492.18 284.059C1491.61 284.514 1491.03 284.969 1490.44 285.438C1489.86 285.911 1489.28 286.384 1488.68 286.871C1485.19 289.213 1481.99 289.141 1477.91 289.177C1476.66 289.19 1475.4 289.203 1474.11 289.216C1472.73 289.224 1471.36 289.232 1469.99 289.238C1468.95 289.244 1468.95 289.244 1467.89 289.251C1464.21 289.271 1460.54 289.286 1456.87 289.295C1453.09 289.306 1449.31 289.341 1445.54 289.38C1442.62 289.407 1439.7 289.415 1436.78 289.418C1435.39 289.423 1434 289.435 1432.61 289.453C1423.66 289.566 1416.97 289.546 1410.21 283.363C1404.13 276.129 1405.24 266.944 1405.41 258.059C1405.43 256.323 1405.43 254.587 1405.44 252.851C1405.46 248.308 1405.52 243.766 1405.59 239.224C1405.65 234.579 1405.68 229.933 1405.71 225.287C1405.77 216.191 1405.88 207.096 1406 198Z" fill="white"/>
<path d="M1217 198C1222.28 198 1227.56 198 1233 198C1233.03 200.206 1233.05 202.412 1233.08 204.685C1233.16 211.958 1233.25 219.23 1233.34 226.502C1233.39 230.913 1233.45 235.324 1233.5 239.736C1233.54 243.989 1233.6 248.242 1233.65 252.496C1233.67 254.122 1233.69 255.749 1233.71 257.375C1233.73 259.645 1233.76 261.915 1233.79 264.185C1233.82 266.127 1233.82 266.127 1233.84 268.108C1233.67 270.894 1233.67 270.894 1235 272C1236.78 272.094 1238.56 272.117 1240.35 272.114C1241.49 272.113 1242.63 272.113 1243.8 272.113C1245.67 272.106 1245.67 272.106 1247.57 272.098C1248.83 272.096 1250.09 272.095 1251.4 272.093C1254.76 272.089 1258.13 272.08 1261.49 272.069C1264.92 272.058 1268.36 272.054 1271.79 272.049C1278.52 272.038 1285.26 272.021 1292 272C1293.47 269.067 1293.17 266.438 1293.21 263.164C1293.22 262.461 1293.23 261.758 1293.24 261.035C1293.27 258.708 1293.29 256.381 1293.32 254.055C1293.34 252.443 1293.36 250.832 1293.38 249.22C1293.43 244.976 1293.48 240.731 1293.53 236.486C1293.58 232.156 1293.64 227.826 1293.69 223.496C1293.8 214.997 1293.9 206.499 1294 198C1298.95 198 1303.9 198 1309 198C1309.14 208.014 1309.25 218.028 1309.31 228.044C1309.34 232.695 1309.38 237.345 1309.45 241.996C1309.52 246.489 1309.55 250.982 1309.57 255.476C1309.58 257.185 1309.6 258.894 1309.63 260.603C1309.94 277.235 1309.94 277.235 1304.79 283.363C1297.58 289.959 1289.89 289.595 1280.46 289.531C1279.06 289.534 1277.65 289.538 1276.24 289.543C1273.31 289.549 1270.37 289.54 1267.44 289.521C1263.69 289.499 1259.94 289.512 1256.19 289.536C1253.29 289.55 1250.39 289.546 1247.49 289.535C1246.11 289.533 1244.73 289.536 1243.35 289.545C1234.71 289.591 1228.84 289.433 1222.29 283.438C1218.03 277.888 1216.7 274.475 1216.77 267.478C1216.77 266.726 1216.77 265.974 1216.77 265.2C1216.77 262.722 1216.79 260.244 1216.8 257.766C1216.81 256.045 1216.81 254.324 1216.81 252.604C1216.82 248.079 1216.84 243.555 1216.86 239.031C1216.88 234.413 1216.89 229.794 1216.9 225.176C1216.92 216.117 1216.96 207.059 1217 198Z" fill="white"/>
<path d="M1354.59 197.707C1356.37 197.713 1356.37 197.713 1358.19 197.72C1361.96 197.737 1365.73 197.774 1369.5 197.813C1372.07 197.828 1374.63 197.841 1377.2 197.854C1383.46 197.887 1389.73 197.938 1396 198C1396 203.28 1396 208.56 1396 214C1393.65 214.038 1393.65 214.038 1391.26 214.076C1385.47 214.17 1379.68 214.27 1373.89 214.372C1371.38 214.416 1368.88 214.457 1366.37 214.497C1362.77 214.555 1359.17 214.619 1355.57 214.684C1353.88 214.709 1353.88 214.709 1352.15 214.734C1350.59 214.764 1350.59 214.764 1349 214.795C1348.08 214.81 1347.16 214.826 1346.21 214.842C1343.96 214.861 1343.96 214.861 1342 216C1341.67 240.09 1341.34 264.18 1341 289C1335.72 289 1330.44 289 1325 289C1324.91 279.229 1324.84 269.458 1324.79 259.687C1324.77 255.149 1324.74 250.612 1324.7 246.074C1324.65 241.691 1324.63 237.308 1324.62 232.925C1324.61 231.257 1324.6 229.589 1324.58 227.921C1324.35 209.778 1324.35 209.778 1331.25 202.688C1339.01 197.923 1345.67 197.586 1354.59 197.707Z" fill="white"/>
<path d="M161.938 299.562C163.298 299.533 163.298 299.533 164.686 299.502C171.295 299.507 171.295 299.507 174.629 301.84C176 304 176 304 176 307C174.35 307 172.7 307 171 307C171 306.34 171 305.68 171 305C165.06 305 159.12 305 153 305C153 306.98 153 308.96 153 311C153.832 310.969 153.832 310.969 154.681 310.936C157.204 310.853 159.726 310.801 162.25 310.75C163.123 310.716 163.995 310.683 164.895 310.648C171.342 310.55 171.342 310.55 174.582 312.766C176.073 315.115 176.518 316.251 176.438 319C176.436 319.66 176.435 320.32 176.434 321C175.855 323.667 174.857 325.005 173 327C170.779 327.486 170.779 327.486 168.219 327.461C167.294 327.457 166.37 327.453 165.418 327.449C164.455 327.425 163.492 327.4 162.5 327.375C161.537 327.374 160.574 327.372 159.582 327.371C152.422 327.281 152.422 327.281 149 325C148.812 322.375 148.812 322.375 149 320C150.32 320 151.64 320 153 320C153.33 320.66 153.66 321.32 154 322C159.61 322.33 165.22 322.66 171 323C171 320.69 171 318.38 171 316C170.44 316.016 169.88 316.031 169.303 316.048C166.765 316.11 164.227 316.149 161.688 316.187C160.806 316.213 159.925 316.238 159.018 316.264C157.746 316.278 157.746 316.278 156.449 316.293C155.669 316.309 154.889 316.324 154.085 316.341C151.459 315.912 150.598 315.09 149 313C148.602 310.625 148.602 310.625 148.625 308C148.617 307.134 148.61 306.267 148.602 305.375C149.782 298.337 156.275 299.518 161.938 299.562Z" fill="white"/>
<path d="M186.562 299.734C187.881 299.731 187.881 299.731 189.227 299.727C190.142 299.734 191.057 299.742 192 299.75C192.915 299.742 193.83 299.735 194.773 299.727C195.653 299.729 196.532 299.732 197.438 299.734C198.241 299.737 199.044 299.739 199.871 299.741C202 300 202 300 205 302C205.188 304.625 205.188 304.625 205 307C203.68 307 202.36 307 201 307C201 306.34 201 305.68 201 305C195.06 305 189.12 305 183 305C183 310.94 183 316.88 183 323C191.415 322.505 191.415 322.505 200 322C200.33 320.35 200.66 318.7 201 317C199.02 317 197.04 317 195 317C195 315.35 195 313.7 195 312C198.3 312 201.6 312 205 312C205.054 314.125 205.093 316.25 205.125 318.375C205.148 319.558 205.171 320.742 205.195 321.961C205 325 205 325 203 327C200.785 327.259 200.785 327.259 198.062 327.266C197.085 327.268 196.108 327.271 195.102 327.273C194.078 327.266 193.055 327.258 192 327.25C190.976 327.258 189.953 327.265 188.898 327.273C187.921 327.271 186.944 327.268 185.938 327.266C185.039 327.263 184.141 327.261 183.215 327.259C181 327 181 327 179 325C178.546 321.185 178.676 317.338 178.688 313.5C178.671 312.429 178.655 311.358 178.639 310.254C178.638 309.232 178.637 308.209 178.637 307.156C178.634 306.216 178.631 305.276 178.628 304.307C178.751 303.545 178.873 302.784 179 302C182.157 299.896 182.952 299.745 186.562 299.734Z" fill="white"/>
</g>
<defs>
<clipPath id="clip0_2425_10157">
<rect width="1500" height="500" fill="white"/>
</clipPath>
</defs>
</svg>
