<svg width="3840" height="626" viewBox="0 0 3840 626" fill="none" xmlns="http://www.w3.org/2000/svg">
<g clip-path="url(#clip0_2425_10127)">
<path d="M2409 3C2441.34 3 2473.68 3 2507 3C2507.62 51.4123 2507.62 51.4123 2507.77 67.026C2507.79 68.6397 2507.79 68.6397 2507.8 70.2859C2508.19 110.684 2508.13 151.085 2508.1 191.484C2508.1 203.921 2508.09 216.358 2508.09 228.794C2508.09 250.95 2508.09 273.106 2508.08 295.262C2508.07 316.709 2508.06 338.155 2508.05 359.602C2508.05 360.27 2508.05 360.937 2508.05 361.626C2508.05 368.336 2508.05 375.046 2508.05 381.756C2508.04 437.504 2508.02 493.252 2508 549C2475.66 549 2443.32 549 2410 549C2409.67 541.74 2409.34 534.48 2409 527C2406.3 528.341 2403.6 529.681 2400.81 531.062C2355.72 552.656 2302.59 555.311 2255.39 539.105C2208.17 522.091 2169.01 487.619 2147.08 442.342C2125.54 395.595 2122.73 342.273 2140.51 293.81C2158.44 247.139 2193.8 207.793 2239.75 187.312C2255.29 180.684 2271.35 175.807 2288 173C2288.68 172.883 2289.37 172.766 2290.07 172.645C2320.49 167.679 2353.39 171.275 2382.44 181.312C2383.16 181.56 2383.87 181.807 2384.61 182.061C2393.03 185.138 2400.84 189.16 2409 193C2409 130.3 2409 67.6 2409 3ZM2257 293C2255.88 293.978 2255.88 293.978 2254.74 294.977C2244.19 304.809 2236.76 317.472 2232 331C2231.59 332.161 2231.18 333.323 2230.75 334.52C2223.66 358.041 2227.72 382.386 2238.49 403.984C2242.91 412.13 2248.5 418.493 2255 425C2255.8 425.816 2256.61 426.632 2257.44 427.473C2271.35 440.818 2291.72 449.876 2311 451C2312.03 451.064 2313.06 451.129 2314.12 451.195C2339.73 452.022 2363.01 442.757 2381.7 425.338C2398.55 409.005 2408.63 385.914 2409.29 362.506C2409.59 336.132 2399.21 312.846 2381 294C2346.19 260.922 2292.23 261.671 2257 293Z" fill="white"/>
<path d="M2746.13 170.687C2747.42 170.691 2747.42 170.691 2748.74 170.694C2761.37 170.745 2773.66 171.069 2786 174C2786.86 174.199 2787.72 174.397 2788.61 174.602C2821.06 182.271 2849.05 197.038 2874 219C2875.16 219.973 2875.16 219.973 2876.34 220.965C2881.05 224.947 2885.04 229.273 2889 234C2890.14 235.311 2890.14 235.311 2891.31 236.648C2918.25 268.004 2936.28 310.189 2936.12 351.903C2936.12 353.176 2936.12 353.176 2936.12 354.475C2936.12 357.294 2936.12 360.113 2936.11 362.932C2936.11 364.963 2936.11 366.994 2936.11 369.024C2936.11 374.52 2936.11 380.015 2936.1 385.51C2936.1 391.259 2936.09 397.009 2936.09 402.758C2936.09 413.638 2936.08 424.517 2936.07 435.397C2936.06 450.104 2936.05 464.811 2936.05 479.518C2936.04 502.679 2936.02 525.839 2936 549C2903.66 549 2871.32 549 2838 549C2837.67 541.74 2837.34 534.48 2837 527C2833.93 528.526 2830.85 530.052 2827.69 531.625C2814.79 537.853 2801.69 542.053 2787.75 545.25C2786.76 545.477 2786.76 545.477 2785.75 545.708C2772.99 548.443 2760.38 549.379 2747.38 549.312C2746.64 549.311 2745.9 549.309 2745.13 549.307C2702.03 549.129 2660.4 534.37 2627 507C2626.43 506.537 2625.86 506.074 2625.27 505.598C2607.4 491.04 2593.52 473.96 2582 454C2581.34 452.876 2580.69 451.752 2580.01 450.594C2556.69 409.496 2550.85 357.507 2563 312C2577.02 262.274 2608.38 219.754 2653.73 194.309C2672.27 184.18 2692.17 176.799 2713 173C2713.97 172.823 2714.94 172.645 2715.95 172.463C2726.02 170.819 2735.94 170.642 2746.13 170.687ZM2681.31 297.375C2664.95 314.286 2655.68 338.003 2656.04 361.5C2657.14 385.995 2666.05 407.969 2684 425C2684.45 425.507 2684.9 426.013 2685.37 426.535C2699.5 441.97 2722.07 449.841 2742.48 451.238C2768.47 451.759 2791.62 443.118 2810.7 425.338C2828.09 408.483 2837.73 384.906 2838.31 360.812C2837.93 338.563 2830.66 315.404 2814.69 299.312C2813.46 298.201 2812.24 297.097 2811 296C2810.21 295.196 2809.41 294.391 2808.6 293.562C2792.55 277.734 2771.1 269.891 2748.8 268.973C2722.5 269.162 2700.25 279.235 2681.31 297.375Z" fill="white"/>
<path d="M2011 209C2011.85 209.642 2012.7 210.284 2013.58 210.945C2024.98 219.743 2035.25 229.567 2044 241C2044.81 242.005 2045.62 243.011 2046.45 244.047C2075.37 280.153 2086.41 324.012 2086.23 369.516C2086.23 371.49 2086.23 373.463 2086.23 375.436C2086.23 380.728 2086.22 386.02 2086.2 391.312C2086.19 396.867 2086.19 402.422 2086.19 407.976C2086.18 418.466 2086.16 428.955 2086.14 439.445C2086.12 453.64 2086.11 467.835 2086.1 482.03C2086.08 504.353 2086.04 526.677 2086 549C2053.33 549 2020.66 549 1987 549C1987 541.74 1987 534.48 1987 527C1984.3 528.341 1981.6 529.681 1978.81 531.063C1942.62 548.406 1898.47 554.936 1859 546C1858.1 545.801 1857.2 545.603 1856.27 545.398C1831.29 539.746 1807.84 530.014 1787 515C1785.98 514.264 1784.96 513.528 1783.9 512.77C1744.38 483.628 1717.6 439.928 1709.37 391.491C1702.16 343.49 1711.78 293.002 1740 253C1740.72 251.978 1741.44 250.956 1742.18 249.902C1746.89 243.416 1752.03 237.514 1757.52 231.691C1760 229.061 1760 229.061 1762.12 226.344C1765.02 222.733 1768.45 219.957 1772 217C1772.76 216.352 1772.76 216.352 1773.54 215.69C1800.03 193.286 1831.81 178.774 1866 173C1866.68 172.883 1867.36 172.766 1868.06 172.645C1917.59 164.48 1971.41 178.261 2011 209ZM1838 291C1837.35 291.507 1836.7 292.013 1836.03 292.535C1819.28 306.065 1809.38 327.764 1806.32 348.715C1803.81 374.71 1811.23 398.748 1827.57 419.066C1843.15 437.905 1864.95 448.152 1889 451C1914.22 452.415 1937.4 445.227 1956.44 428.375C1957.97 426.924 1959.49 425.467 1961 424C1961.61 423.462 1962.22 422.925 1962.85 422.371C1976.55 409.89 1985.92 388.481 1987.19 370.234C1988 341.671 1981.97 318.874 1962.56 297.285C1945.6 279.64 1922.36 269.761 1897.97 268.931C1876 268.708 1854.61 276.726 1838 291Z" fill="white"/>
<path d="M3323.74 -0.203083C3325.65 -0.213536 3325.65 -0.213536 3327.6 -0.224201C3331.69 -0.243475 3335.78 -0.248376 3339.88 -0.249958C3340.92 -0.250842 3340.92 -0.250842 3341.98 -0.251743C3362.48 -0.264008 3382.68 0.0497172 3403 3.00004C3405.21 3.29328 3407.41 3.58625 3409.62 3.87895C3484.74 14.286 3556.79 42.7112 3619 86C3619.62 86.4298 3620.24 86.8595 3620.88 87.3023C3637.89 99.1073 3653.9 112.201 3669.05 126.297C3671.25 128.34 3673.51 130.309 3675.79 132.27C3680.41 136.299 3684.74 140.593 3689.06 144.938C3689.83 145.697 3690.59 146.457 3691.38 147.24C3695.58 151.449 3699.61 155.744 3703.49 160.251C3705.36 162.421 3707.31 164.52 3709.25 166.625C3714.25 172.185 3718.87 178.009 3723.42 183.941C3724.51 185.367 3725.61 186.79 3726.71 188.211C3781.13 258.63 3815.26 343.106 3825.31 431.5C3825.43 432.572 3825.43 432.572 3825.56 433.666C3827.38 449.924 3828.21 466.099 3828.24 482.456C3828.25 485.178 3828.28 487.899 3828.31 490.621C3828.36 509.011 3826.55 526.435 3825 545C3795.63 545 3766.26 545 3736 545C3736.53 537.565 3737.07 530.216 3737.8 522.815C3744.37 452.309 3731.55 379.874 3701 316C3700.59 315.131 3700.18 314.261 3699.76 313.366C3691.3 295.482 3681.36 278.201 3670 262C3669.63 261.465 3669.26 260.931 3668.87 260.38C3651.53 235.46 3631.52 210.845 3608.4 191.059C3606.49 189.422 3604.61 187.767 3602.73 186.098C3581.26 167.112 3557.48 151.052 3532.36 137.294C3530.19 136.107 3528.05 134.898 3525.9 133.684C3463.48 98.9023 3388.42 84.697 3317.56 88.8125C3316.86 88.8533 3316.15 88.8941 3315.43 88.9362C3304.56 89.5904 3293.83 90.7964 3283 92C3283 62.63 3283 33.26 3283 3.00004C3296.76 1.03427 3309.91 -0.15206 3323.74 -0.203083Z" fill="white"/>
<path d="M450.438 168.625C451.268 168.626 452.099 168.626 452.954 168.627C466.956 168.669 480.345 169.711 494 173C495.333 173.313 495.333 173.313 496.692 173.633C546.916 185.802 588.595 218.029 615.383 261.844C625.389 278.723 632.513 296.923 637 316C637.21 316.873 637.421 317.746 637.637 318.645C641.538 335.566 641.459 352.489 641.238 369.75C641.231 370.464 641.223 371.177 641.215 371.913C640.973 385.027 640.973 385.027 639 387C637.306 387.097 635.608 387.124 633.911 387.123C632.801 387.125 631.691 387.127 630.548 387.129C629.314 387.126 628.079 387.123 626.807 387.12C625.508 387.121 624.208 387.122 622.87 387.123C619.246 387.125 615.623 387.121 611.999 387.116C608.098 387.112 604.197 387.113 600.296 387.114C593.531 387.114 586.767 387.111 580.002 387.106C570.221 387.098 560.441 387.095 550.66 387.094C534.794 387.092 518.927 387.085 503.06 387.075C487.643 387.066 472.226 387.059 456.809 387.055C455.86 387.055 454.91 387.054 453.932 387.054C449.168 387.053 444.404 387.052 439.641 387.05C400.094 387.04 360.547 387.022 321 387C322.223 390.795 323.462 394.585 324.703 398.375C325.045 399.436 325.387 400.497 325.739 401.59C336.917 435.567 361.122 461.464 392.497 477.926C419.533 491.448 451.641 494.869 481 488C481.696 487.839 482.392 487.678 483.109 487.512C499.678 483.52 515.324 476.16 529 466C529.811 465.411 530.622 464.822 531.457 464.215C536.628 460.281 541.35 455.902 546 451.375C546.545 450.856 547.09 450.337 547.652 449.802C548.474 448.984 548.474 448.984 549.313 448.148C549.919 447.55 550.526 446.952 551.151 446.335C553.204 443.952 553.204 443.952 554.517 440.45C556.555 435.975 558.64 432.491 563 430C572.816 427.715 583.351 428.618 593.355 429.039C597.148 429.183 600.943 429.246 604.738 429.316C612.162 429.466 619.58 429.704 627 430C626.195 434.568 624.545 438.335 622.438 442.437C621.897 443.495 621.897 443.495 621.346 444.574C620.241 446.722 619.123 448.862 618 451C617.686 451.606 617.373 452.212 617.05 452.836C594.665 495.714 552.878 526.553 507.5 541.312C497.536 544.415 487.306 546.416 477 548C476.325 548.105 475.65 548.209 474.955 548.317C467.267 549.337 459.492 549.244 451.75 549.25C450.995 549.251 450.24 549.251 449.462 549.252C397.719 549.179 350.632 527.78 313.688 491.937C275.37 452.319 260.064 401.599 260.823 347.547C261.001 338.497 261.988 329.826 264 321C264.199 320.101 264.397 319.202 264.602 318.276C272.771 282.168 289.867 251.982 315 225C315.685 224.261 316.369 223.523 317.074 222.762C351.404 187.036 401.524 168.504 450.438 168.625ZM364 258C363.169 258.697 362.337 259.395 361.481 260.113C355.223 265.525 350.015 271.43 345 278C344.417 278.744 343.835 279.488 343.234 280.254C332.372 294.847 324.565 312.175 321 330C406.8 330 492.6 330 581 330C575.563 308.253 567.442 290.15 553 273C552.158 271.993 551.317 270.986 550.449 269.949C529.729 245.935 498.85 229.679 467.289 226.168C428.793 223.347 393.552 232.746 364 258Z" fill="white"/>
<path d="M1074 3C1092.81 3 1111.62 3 1131 3C1131.33 70.65 1131.66 138.3 1132 208C1135.3 205.36 1138.6 202.72 1142 200C1164.42 183.217 1191.29 172.679 1219 169C1219.67 168.907 1220.34 168.814 1221.03 168.719C1251.03 164.91 1282.48 169.508 1310 182C1310.97 182.439 1310.97 182.439 1311.96 182.886C1352.1 201.385 1383.58 235.246 1399.05 276.684C1407.04 299.302 1409.31 321.713 1409.23 345.562C1409.23 347.791 1409.23 350.02 1409.23 352.249C1409.23 358.252 1409.22 364.255 1409.2 370.258C1409.19 376.55 1409.19 382.841 1409.19 389.132C1409.18 399.676 1409.17 410.221 1409.15 420.765C1409.13 431.617 1409.12 442.469 1409.11 453.321C1409.11 453.992 1409.11 454.663 1409.11 455.354C1409.11 458.72 1409.1 462.086 1409.1 465.452C1409.08 493.302 1409.04 521.151 1409 549C1390.19 549 1371.38 549 1352 549C1351.98 539.107 1351.98 539.107 1351.96 529.014C1351.91 507.19 1351.84 485.365 1351.76 463.54C1351.72 450.312 1351.68 437.083 1351.65 423.855C1351.63 412.318 1351.6 400.781 1351.55 389.244C1351.53 383.142 1351.51 377.039 1351.5 370.937C1351.5 365.179 1351.48 359.422 1351.45 353.664C1351.44 351.564 1351.43 349.465 1351.43 347.365C1351.44 331.356 1350.79 314.981 1345.31 299.75C1345.06 299.02 1344.8 298.29 1344.54 297.539C1340.02 285.055 1333.38 274.286 1325 264C1324.39 263.223 1323.78 262.445 1323.14 261.645C1307.18 242.417 1281.12 228.987 1256.36 226.199C1225.98 223.64 1195.99 230.031 1172.29 250.02C1171.54 250.673 1170.78 251.327 1170 252C1169.25 252.602 1168.51 253.204 1167.74 253.824C1146.87 271.2 1134.89 299.217 1132.18 325.724C1131.54 333.788 1131.69 341.907 1131.68 349.99C1131.67 352.17 1131.66 354.349 1131.65 356.529C1131.62 362.401 1131.61 368.274 1131.6 374.147C1131.58 380.301 1131.55 386.455 1131.53 392.609C1131.48 404.243 1131.44 415.876 1131.41 427.51C1131.37 440.763 1131.32 454.015 1131.27 467.268C1131.17 494.512 1131.08 521.756 1131 549C1112.19 549 1093.38 549 1074 549C1074 368.82 1074 188.64 1074 3Z" fill="white"/>
<path d="M3340.5 347.625C3341.2 347.626 3341.89 347.626 3342.61 347.627C3380.65 347.762 3413.77 362.986 3440.57 389.551C3466.32 415.541 3480.05 449.934 3480.38 486.5C3480.11 519.914 3468.95 551.691 3447 577C3446.29 577.829 3445.58 578.658 3444.86 579.512C3421.05 606.733 3387.1 623.513 3351 626C3312.96 628.011 3278.19 616.45 3249 592C3247.93 591.12 3247.93 591.12 3246.85 590.223C3242.07 586.182 3237.95 581.84 3234 577C3232.86 575.631 3232.86 575.631 3231.69 574.234C3211.71 549.419 3201.78 519.331 3201.75 487.625C3201.75 486.907 3201.75 486.189 3201.75 485.449C3201.8 447.975 3216.66 413.603 3243 387C3259.86 370.544 3280.51 358.597 3303.19 352.188C3303.87 351.993 3304.56 351.798 3305.27 351.597C3316.9 348.507 3328.5 347.59 3340.5 347.625ZM3299 448C3298.43 448.565 3297.85 449.129 3297.26 449.711C3287.31 460.276 3283.49 474.52 3283.65 488.662C3284.16 504.193 3290.44 517.308 3301.2 528.492C3312.74 538.834 3327.26 544.45 3342.74 544.281C3358.45 542.927 3370.89 537.088 3382 526C3382.65 525.361 3383.3 524.721 3383.97 524.062C3393.64 513.868 3397.79 500.474 3398.44 486.625C3397.9 470.671 3391.62 456.997 3380.71 445.512C3369.83 435.43 3356 429.576 3341.19 429.688C3340 429.696 3340 429.696 3338.79 429.705C3322.95 430.032 3310.03 436.816 3299 448Z" fill="white"/>
<path d="M3334.08 169.934C3419.86 167.519 3500.74 202.201 3562.49 260.561C3568.99 266.761 3575.23 273.113 3581 280C3581.42 280.485 3581.84 280.97 3582.27 281.47C3597.79 299.409 3611.27 319.857 3622 341C3622.66 342.281 3622.66 342.281 3623.33 343.588C3630.82 358.303 3636.81 373.331 3642 389C3642.29 389.878 3642.58 390.755 3642.89 391.659C3652.9 422.134 3657.22 453.997 3657.25 486C3657.25 486.824 3657.25 487.648 3657.26 488.497C3657.26 507.594 3655.75 526.241 3652 545C3622.3 545 3592.6 545 3562 545C3563.12 536.028 3563.12 536.028 3563.94 531.539C3564.2 530.089 3564.2 530.089 3564.46 528.609C3564.82 526.627 3565.18 524.646 3565.54 522.664C3575.66 465.887 3561.32 404.405 3528.54 357.144C3524 350.842 3519.07 344.876 3514 339C3513.23 338.102 3512.46 337.203 3511.67 336.277C3509.5 333.8 3507.27 331.391 3505 329C3504.5 328.472 3504 327.944 3503.48 327.4C3462.38 284.372 3404.51 260.878 3345.4 258.816C3324.23 258.349 3303.85 262.138 3283 266C3283 236.3 3283 206.6 3283 176C3287.37 174.751 3290.93 173.741 3295.3 173.184C3296.27 173.06 3297.24 172.936 3298.23 172.808C3299.25 172.686 3300.27 172.563 3301.31 172.438C3302.37 172.308 3303.44 172.179 3304.53 172.046C3314.38 170.887 3324.17 170.25 3334.08 169.934Z" fill="white"/>
<path d="M993.504 209.805C994.328 210.529 995.151 211.254 996 212C997.189 213.025 997.189 213.025 998.402 214.07C1003.61 218.641 1008.57 223.447 1013.5 228.312C1014.11 228.911 1014.72 229.51 1015.35 230.128C1015.93 230.7 1016.5 231.273 1017.09 231.863C1017.61 232.372 1018.12 232.88 1018.65 233.404C1020.13 235.158 1021.01 236.935 1022 239C1016.83 244.221 1011.64 249.437 1006.46 254.646C1004.05 257.065 1001.64 259.485 999.241 261.91C996.481 264.696 993.714 267.473 990.945 270.25C989.648 271.562 989.648 271.562 988.325 272.901C987.124 274.103 987.124 274.103 985.899 275.328C984.84 276.394 984.84 276.394 983.759 277.481C982 279 982 279 980 279C978.776 277.59 977.621 276.118 976.5 274.625C955.314 247.62 922.877 231.122 889 227C851.185 224.498 816.051 234.214 787 259C777.608 267.308 769.694 276.403 763 287C762.61 287.616 762.22 288.231 761.817 288.866C742.867 319.323 737.747 355.494 745.52 390.331C751.115 413.064 762.268 432.777 778 450C778.715 450.798 779.431 451.596 780.168 452.418C801.32 474.839 833.85 489.657 864.565 491.122C903.301 492.241 937.483 480.833 966.355 454.557C971.361 449.82 976.174 444.74 980 439C983.674 439.576 985.354 440.987 987.942 443.602C988.703 444.362 989.463 445.123 990.247 445.907C991.058 446.733 991.868 447.559 992.703 448.41C993.541 449.252 994.379 450.094 995.242 450.962C997.918 453.655 1000.58 456.359 1003.25 459.062C1005.06 460.889 1006.87 462.716 1008.69 464.541C1013.13 469.02 1017.57 473.506 1022 478C1019.36 483.538 1015.17 487.555 1011 492C1010.19 492.871 1009.39 493.743 1008.56 494.641C997.333 506.363 984.106 516.024 970 524C969.383 524.355 968.765 524.71 968.129 525.076C952.643 533.923 936.512 540.148 919.188 544.375C918.211 544.614 917.235 544.852 916.229 545.098C902.513 548.252 888.916 549.39 874.875 549.312C874.162 549.31 873.449 549.308 872.714 549.306C818.628 549.046 772.049 526.274 734.184 488.435C699.825 453.377 683.332 403.805 683.649 355.415C684.439 315.508 697.293 275.61 722 244C722.727 243.063 723.454 242.126 724.203 241.16C752.653 205.495 790.596 182.232 835 172C835.755 171.821 836.511 171.641 837.289 171.457C889.777 159.598 952.58 174.901 993.504 209.805Z" fill="white"/>
<path d="M3129.71 170.886C3130.55 170.886 3131.4 170.886 3132.27 170.886C3134.97 170.887 3137.67 170.894 3140.37 170.902C3142.05 170.904 3143.73 170.905 3145.41 170.905C3151.61 170.911 3157.8 170.925 3164 170.938C3177.86 170.958 3191.72 170.979 3206 171C3206 203.67 3206 236.34 3206 270C3168.75 270.25 3168.75 270.25 3157.06 270.298C3153.55 270.331 3153.55 270.331 3150.04 270.37C3148.5 270.384 3146.96 270.391 3145.41 270.392C3130.06 270.408 3117.95 272.927 3106.22 283.621C3096.81 293.609 3094.69 307.126 3094.72 320.314C3094.72 321.302 3094.71 322.291 3094.7 323.31C3094.69 326.595 3094.68 329.881 3094.68 333.167C3094.67 335.532 3094.66 337.898 3094.65 340.264C3094.62 346.669 3094.61 353.073 3094.6 359.477C3094.58 365.497 3094.56 371.518 3094.53 377.538C3094.49 389.457 3094.45 401.375 3094.42 413.293C3094.39 424.866 3094.36 436.438 3094.32 448.01C3094.31 448.725 3094.31 449.439 3094.31 450.175C3094.3 453.758 3094.28 457.342 3094.27 460.925C3094.17 490.617 3094.08 520.308 3094 550C3061.33 550 3028.66 550 2995 550C2994.93 518.636 2994.88 487.273 2994.85 455.909C2994.84 452.196 2994.84 448.483 2994.84 444.769C2994.83 444.03 2994.83 443.291 2994.83 442.529C2994.82 430.603 2994.8 418.677 2994.77 406.751C2994.74 394.489 2994.72 382.227 2994.72 369.965C2994.71 362.415 2994.7 354.865 2994.68 347.315C2994.66 341.5 2994.66 335.685 2994.66 329.869C2994.66 327.503 2994.65 325.136 2994.64 322.77C2994.44 279.218 3006.12 242.009 3037.12 210.375C3061.25 186.412 3095.44 170.726 3129.71 170.886Z" fill="white"/>
<path d="M1624.3 171.805C1625.92 171.808 1627.53 171.81 1629.15 171.811C1635.06 171.821 1640.97 171.849 1646.87 171.875C1666.74 171.937 1666.74 171.937 1687 172C1687 204.34 1687 236.68 1687 270C1651.25 270.313 1651.25 270.313 1640.03 270.388C1636.66 270.425 1636.66 270.425 1633.3 270.465C1631.82 270.481 1630.34 270.491 1628.86 270.497C1614.07 270.562 1600.01 272.148 1588.47 282.367C1578.29 293.658 1575.86 306.233 1575.84 320.877C1575.84 321.855 1575.83 322.833 1575.83 323.84C1575.81 327.108 1575.8 330.375 1575.79 333.642C1575.78 335.988 1575.77 338.334 1575.76 340.68C1575.74 347.043 1575.72 353.406 1575.7 359.769C1575.68 365.747 1575.65 371.724 1575.63 377.702C1575.58 389.539 1575.54 401.376 1575.5 413.213C1575.46 424.708 1575.42 436.204 1575.37 447.7C1575.37 448.409 1575.37 449.118 1575.36 449.849C1575.35 453.406 1575.34 456.963 1575.32 460.521C1575.21 490.014 1575.1 519.507 1575 549C1542.66 549 1510.32 549 1477 549C1476.93 517.747 1476.88 486.493 1476.85 455.24C1476.84 451.541 1476.84 447.841 1476.84 444.142C1476.83 443.405 1476.83 442.669 1476.83 441.91C1476.82 430.025 1476.8 418.14 1476.77 406.255C1476.74 394.038 1476.72 381.82 1476.72 369.602C1476.71 362.078 1476.7 354.554 1476.68 347.031C1476.66 341.237 1476.66 335.443 1476.66 329.65C1476.66 327.291 1476.65 324.932 1476.64 322.573C1476.46 282.7 1486.48 246.786 1514 217C1514.47 216.49 1514.93 215.98 1515.41 215.454C1543.95 184.563 1583.05 171.55 1624.3 171.805Z" fill="white"/>
<path d="M64 39C82.81 39 101.62 39 121 39C121 81.9 121 124.8 121 169C151.03 169 181.06 169 212 169C212 187.81 212 206.62 212 226C181.97 226 151.94 226 121 226C121.12 262.094 121.12 262.094 121.258 298.188C121.318 312.911 121.377 327.635 121.422 342.358C121.455 353.083 121.495 363.807 121.543 374.531C121.568 380.206 121.59 385.88 121.603 391.555C121.616 396.905 121.638 402.254 121.667 407.604C121.676 409.559 121.682 411.514 121.684 413.469C121.712 436.016 124.053 456.312 140.062 473.688C151.392 484.439 167.133 491 182.718 491.205C183.372 491.215 184.026 491.225 184.701 491.235C186.848 491.267 188.996 491.292 191.145 491.316C192.64 491.337 194.135 491.358 195.63 491.379C199.554 491.434 203.478 491.484 207.402 491.532C212.116 491.591 216.83 491.658 221.544 491.723C228.696 491.82 235.848 491.909 243 492C243 510.81 243 529.62 243 549C225.713 549.12 225.713 549.12 218.236 549.146C213.172 549.164 208.108 549.185 203.044 549.226C198.953 549.259 194.862 549.277 190.77 549.285C189.224 549.29 187.678 549.301 186.132 549.317C154.013 549.644 124.184 538.462 101 516C85.4647 500.631 74.1534 483.047 68.125 461.938C67.934 461.279 67.743 460.621 67.5461 459.943C63.7277 445.471 63.7158 430.66 63.7729 415.814C63.7735 413.733 63.7732 411.652 63.7721 409.571C63.7715 403.971 63.7832 398.371 63.7972 392.771C63.8098 386.9 63.8109 381.029 63.8133 375.158C63.8195 364.063 63.8358 352.967 63.856 341.872C63.8784 329.231 63.8893 316.59 63.8994 303.949C63.9202 277.966 63.9569 251.983 64 226C42.88 226 21.76 226 0 226C0 207.19 0 188.38 0 169C21.12 169 42.24 169 64 169C64 126.1 64 83.2 64 39Z" fill="white"/>
<path d="M3587 549C3590 550 3590 550 3590 550L3587 549Z" fill="white"/>
</g>
<defs>
<clipPath id="clip0_2425_10127">
<rect width="3840" height="626" fill="white"/>
</clipPath>
</defs>
</svg>
